<?xml version="1.0" standalone="no"?>
<!DOCTYPE svg PUBLIC "-//W3C//DTD SVG 20010904//EN"
 "http://www.w3.org/TR/2001/REC-SVG-20010904/DTD/svg10.dtd">
<svg version="1.0" xmlns="http://www.w3.org/2000/svg"
 width="25.000000pt" height="25.000000pt" viewBox="0 0 25.000000 25.000000"
 preserveAspectRatio="xMidYMid meet">
<metadata>
Created by potrace 1.10, written by Peter Selinger 2001-2011
</metadata>
<g transform="translate(0.000000,25.000000) scale(0.100000,-0.100000)"
fill="#000000" stroke="none">
<path d="M84 175 c-5 -12 -10 -13 -20 -4 -17 14 -48 -7 -40 -27 3 -7 1 -16 -4
-19 -18 -11 -10 -35 10 -35 11 0 23 -7 26 -15 4 -10 21 -15 54 -15 40 0 50 4
55 20 8 27 35 27 28 0 -3 -11 0 -20 6 -20 6 0 11 9 11 20 0 13 7 20 20 20 11
0 20 5 20 10 0 6 -9 10 -20 10 -13 0 -20 7 -20 20 0 11 -5 20 -11 20 -6 0 -9
-9 -6 -19 3 -14 -2 -20 -19 -24 -13 -2 -24 0 -24 4 0 5 8 9 18 9 14 0 15 2 2
10 -13 9 -13 11 0 19 8 6 11 13 7 17 -3 4 -13 2 -21 -5 -11 -9 -15 -8 -20 4
-3 8 -15 15 -26 15 -11 0 -23 -7 -26 -15z m42 -6 c10 -17 -13 -36 -27 -22 -12
12 -4 33 11 33 5 0 12 -5 16 -11z m-66 -19 c0 -5 -4 -10 -10 -10 -5 0 -10 5
-10 10 0 6 5 10 10 10 6 0 10 -4 10 -10z m30 -10 c0 -5 -4 -10 -10 -10 -5 0
-10 5 -10 10 0 6 5 10 10 10 6 0 10 -4 10 -10z m60 0 c0 -5 -4 -10 -10 -10 -5
0 -10 5 -10 10 0 6 5 10 10 10 6 0 10 -4 10 -10z m-82 -22 c-3 -7 -15 -15 -28
-16 -21 -3 -22 -2 -11 12 16 19 44 21 39 4z m70 0 c7 -7 12 -20 12 -30 0 -14
-8 -18 -40 -18 -32 0 -40 4 -40 18 0 22 19 42 40 42 9 0 21 -5 28 -12z"/>
</g>
</svg>
