<?xml version="1.0" standalone="no"?>
<!DOCTYPE svg PUBLIC "-//W3C//DTD SVG 20010904//EN"
 "http://www.w3.org/TR/2001/REC-SVG-20010904/DTD/svg10.dtd">
<svg version="1.0" xmlns="http://www.w3.org/2000/svg"
 width="25.000000pt" height="25.000000pt" viewBox="0 0 25.000000 25.000000"
 preserveAspectRatio="xMidYMid meet">
<metadata>
Created by potrace 1.10, written by Peter Selinger 2001-2011
</metadata>
<g transform="translate(0.000000,25.000000) scale(0.100000,-0.100000)"
fill="#000000" stroke="none">
<path d="M30 130 c0 -74 4 -110 11 -110 6 0 8 7 5 16 -3 8 -2 12 4 9 6 -3 10
-1 10 4 0 6 5 11 12 11 9 0 9 -3 0 -12 -21 -21 -13 -28 34 -28 27 0 43 4 39
10 -3 6 -17 10 -31 10 -15 0 -24 6 -24 15 0 8 -5 15 -11 15 -8 0 -7 5 1 15 19
22 -3 44 -25 25 -13 -11 -15 -5 -15 49 l0 61 64 0 c38 0 68 -5 72 -12 4 -7 3
-8 -4 -4 -7 4 -12 2 -12 -3 0 -6 5 -11 11 -11 6 0 -7 -20 -30 -45 -22 -24 -41
-49 -41 -55 0 -22 25 -7 83 49 49 47 59 63 50 72 -9 9 -16 9 -25 1 -11 -8 -17
-6 -26 9 -10 16 -24 19 -82 19 l-70 0 0 -110z m200 77 c0 -1 -26 -27 -57 -57
l-58 -55 55 58 c50 53 60 62 60 54z m-155 -107 c3 -5 1 -10 -4 -10 -6 0 -11 5
-11 10 0 6 2 10 4 10 3 0 8 -4 11 -10z m-20 -19 c3 -5 1 -12 -5 -16 -5 -3 -10
1 -10 9 0 18 6 21 15 7z"/>
<path d="M52 190 c5 -22 33 -24 35 -2 1 11 -5 18 -18 18 -12 0 -19 -6 -17 -16z"/>
<path d="M50 143 c0 -7 8 -13 18 -13 10 0 19 6 19 13 0 7 -9 13 -19 13 -10 0
-18 -6 -18 -13z"/>
<path d="M180 110 c0 -13 -7 -20 -19 -20 -11 0 -23 -4 -26 -10 -4 -6 5 -10 19
-10 19 0 26 -5 26 -20 0 -11 5 -20 11 -20 6 0 9 9 6 20 -4 16 0 20 19 20 13 0
24 5 24 11 0 5 -10 9 -22 7 -19 -2 -22 1 -20 20 2 12 -2 22 -7 22 -6 0 -11 -9
-11 -20z"/>
</g>
</svg>
