<?xml version="1.0" standalone="no"?>
<!DOCTYPE svg PUBLIC "-//W3C//DTD SVG 20010904//EN"
 "http://www.w3.org/TR/2001/REC-SVG-20010904/DTD/svg10.dtd">
<svg version="1.0" xmlns="http://www.w3.org/2000/svg"
 width="25.000000pt" height="25.000000pt" viewBox="0 0 25.000000 25.000000"
 preserveAspectRatio="xMidYMid meet">
<metadata>
Created by potrace 1.10, written by Peter Selinger 2001-2011
</metadata>
<g transform="translate(0.000000,25.000000) scale(0.100000,-0.100000)"
fill="#000000" stroke="none">
<path d="M10 135 l0 -75 38 1 c20 1 29 3 20 6 -21 5 -20 4 -23 61 -1 25 -8 48
-16 52 -25 16 -2 22 40 10 44 -11 58 -24 40 -36 -8 -5 -9 -3 -4 7 5 8 -4 3
-18 -10 -29 -27 -40 -64 -12 -41 9 7 19 9 23 5 4 -4 1 -10 -5 -12 -10 -3 -10
-10 -2 -24 8 -16 20 -19 65 -18 48 2 54 4 49 21 -5 14 -1 18 19 18 14 0 26 5
26 11 0 5 -10 9 -22 7 -19 -2 -22 1 -20 19 2 12 -2 24 -8 28 -6 4 -10 -4 -10
-20 0 -17 -5 -25 -12 -22 -7 2 -12 15 -10 30 3 26 -21 49 -45 40 -6 -2 -14 1
-18 6 -3 6 -26 11 -51 11 l-44 0 0 -75z m25 25 c3 -5 1 -10 -4 -10 -6 0 -11 5
-11 10 0 6 2 10 4 10 3 0 8 -4 11 -10z m125 -5 c0 -8 -7 -15 -15 -15 -8 0 -15
7 -15 15 0 8 7 15 15 15 8 0 15 -7 15 -15z m-47 -28 c-5 -8 -8 -7 -11 1 -3 10
-7 10 -20 0 -15 -12 -15 -11 -4 4 14 18 47 13 35 -5z m-79 -21 c2 -14 0 -23
-4 -21 -4 3 -7 16 -7 30 0 32 8 26 11 -9z m119 17 c-22 -8 -14 -23 13 -23 38
0 24 -24 -16 -28 -44 -5 -59 12 -35 38 10 11 25 20 34 19 10 0 12 -2 4 -6z"/>
</g>
</svg>
