<?xml version="1.0" standalone="no"?>
<!DOCTYPE svg PUBLIC "-//W3C//DTD SVG 20010904//EN"
 "http://www.w3.org/TR/2001/REC-SVG-20010904/DTD/svg10.dtd">
<svg version="1.0" xmlns="http://www.w3.org/2000/svg"
 width="25.000000pt" height="25.000000pt" viewBox="0 0 25.000000 25.000000"
 preserveAspectRatio="xMidYMid meet">
<metadata>
Created by potrace 1.10, written by Peter Selinger 2001-2011
</metadata>
<g transform="translate(0.000000,25.000000) scale(0.100000,-0.100000)"
fill="#000000" stroke="none">
<path d="M97 234 c-33 -18 -44 -57 -25 -86 14 -20 13 -24 -13 -45 -30 -25 -46
-70 -30 -86 11 -11 101 -16 101 -4 0 4 -20 7 -45 7 -37 0 -45 3 -45 19 0 33
38 69 83 78 55 11 80 49 57 89 -20 36 -49 45 -83 28z m58 -24 c20 -23 14 -64
-11 -74 -47 -18 -82 37 -49 74 10 11 23 20 30 20 7 0 20 -9 30 -20z"/>
<path d="M172 93 c2 -12 -3 -17 -14 -15 -10 2 -18 -2 -18 -8 0 -5 9 -10 21
-10 14 0 19 -5 16 -15 -4 -8 -2 -17 3 -20 6 -4 10 3 10 14 0 15 6 21 21 21 11
0 18 4 14 10 -3 5 -12 7 -20 3 -10 -3 -15 2 -15 16 0 12 -5 21 -10 21 -6 0
-10 -8 -8 -17z"/>
</g>
</svg>
