<?xml version="1.0" standalone="no"?>
<!DOCTYPE svg PUBLIC "-//W3C//DTD SVG 20010904//EN"
 "http://www.w3.org/TR/2001/REC-SVG-20010904/DTD/svg10.dtd">
<svg version="1.0" xmlns="http://www.w3.org/2000/svg"
 width="25.000000pt" height="25.000000pt" viewBox="0 0 25.000000 25.000000"
 preserveAspectRatio="xMidYMid meet">
<metadata>
Created by potrace 1.10, written by Peter Selinger 2001-2011
</metadata>
<g transform="translate(0.000000,25.000000) scale(0.100000,-0.100000)"
fill="#000000" stroke="none">
<path d="M66 225 c-14 -13 -26 -28 -27 -32 0 -4 -2 -17 -4 -28 -2 -11 5 -28
16 -38 24 -23 24 -37 -1 -37 -24 0 -50 -37 -46 -65 2 -17 12 -20 72 -23 38 -1
64 1 58 5 -21 16 -23 41 -4 58 11 10 17 21 15 25 -3 4 6 18 20 32 24 24 25 35
10 73 -10 25 -45 54 -66 55 -9 0 -28 -11 -43 -25z m54 -5 c0 -11 5 -20 11 -20
5 0 7 5 3 11 -4 7 -1 10 6 7 8 -2 16 -10 18 -16 2 -8 -12 -12 -47 -12 -47 0
-65 10 -41 25 6 3 10 1 10 -4 0 -6 5 -11 11 -11 6 0 9 6 6 14 -6 15 1 26 15
26 4 0 8 -9 8 -20z m23 -47 c-18 -2 -48 -2 -65 0 -18 2 -4 4 32 4 36 0 50 -2
33 -4z m7 -33 c0 -10 -9 -24 -20 -30 -26 -14 -60 3 -60 30 0 17 7 20 40 20 33
0 40 -3 40 -20z m-28 -62 c-9 -9 -15 -9 -24 0 -9 9 -7 12 12 12 19 0 21 -3 12
-12z m-77 -22 c-10 -7 -15 -18 -11 -24 3 -6 2 -13 -4 -17 -6 -4 -10 4 -10 19
0 14 8 29 17 35 25 13 31 4 8 -13z m55 -22 c0 -25 -7 -28 -34 -18 -17 7 -22
34 -6 34 6 0 10 7 10 16 0 14 3 14 15 4 8 -7 15 -23 15 -36z"/>
<path d="M160 71 c0 -12 -8 -21 -22 -24 l-23 -4 23 -2 c15 -1 22 -7 22 -21 0
-11 5 -20 11 -20 6 0 9 9 6 20 -4 15 0 20 14 20 10 0 19 5 19 10 0 6 -8 10
-17 8 -12 -2 -17 3 -15 15 2 9 -2 17 -8 17 -5 0 -10 -9 -10 -19z"/>
</g>
</svg>
