<?xml version="1.0" standalone="no"?>
<!DOCTYPE svg PUBLIC "-//W3C//DTD SVG 20010904//EN"
 "http://www.w3.org/TR/2001/REC-SVG-20010904/DTD/svg10.dtd">
<svg version="1.0" xmlns="http://www.w3.org/2000/svg"
 width="50.000000pt" height="50.000000pt" viewBox="0 0 50.000000 50.000000"
 preserveAspectRatio="xMidYMid meet">
<metadata>
Created by potrace 1.10, written by Peter Selinger 2001-2011
</metadata>
<g transform="translate(0.000000,50.000000) scale(0.100000,-0.100000)"
fill="#000000" stroke="none">
<path d="M98 384 c-15 -8 -32 -23 -38 -34 -16 -31 -12 -85 10 -113 26 -33 25
-34 -9 -42 -39 -8 -58 -31 -44 -53 15 -25 70 -41 145 -41 57 -1 69 -4 78 -21
10 -18 19 -21 78 -18 65 3 67 4 73 33 6 29 7 29 8 -7 1 -48 21 -50 21 -4 0 33
2 35 38 38 44 4 41 23 -4 22 -28 -1 -30 2 -31 35 -1 33 0 34 9 11 7 -19 11
-21 18 -11 6 10 1 21 -17 34 -32 25 -59 12 -56 -27 1 -17 -3 -26 -13 -26 -9 0
-12 -5 -8 -12 5 -8 2 -9 -9 -5 -11 4 -17 1 -17 -8 0 -9 10 -15 26 -15 21 0 25
-4 22 -23 -3 -19 -10 -22 -57 -25 -53 -3 -70 5 -71 34 0 22 41 54 70 54 23 0
31 5 36 26 8 31 -13 74 -36 74 -19 0 -50 -30 -50 -49 0 -8 -6 -7 -16 4 -10 9
-25 14 -34 12 -16 -4 -16 -2 2 29 25 43 17 85 -24 119 -33 28 -61 31 -100 9z
m75 -15 c24 -11 47 -47 47 -71 0 -13 -73 -138 -80 -137 -3 0 -20 25 -39 57
-42 71 -44 107 -7 139 30 26 44 28 79 12z m177 -159 c0 -16 -31 -39 -45 -34
-18 7 -20 51 -2 57 15 5 47 -10 47 -23z m-108 -32 c-16 -16 -37 4 -28 28 6 16
8 16 23 1 13 -13 15 -19 5 -29z m158 11 c0 -11 -4 -17 -10 -14 -5 3 -10 13
-10 21 0 8 5 14 10 14 6 0 10 -9 10 -21z m-236 -29 c14 24 21 29 30 20 8 -8 7
-15 -6 -24 -10 -7 -18 -19 -18 -26 0 -18 -108 -6 -128 14 -14 14 -12 17 19 30
33 15 35 14 59 -15 l25 -30 19 31z m116 15 c0 -8 -6 -15 -14 -15 -7 0 -16 -9
-19 -20 -4 -15 -14 -20 -38 -20 -31 0 -32 0 -14 20 10 11 27 20 37 20 10 0 21
7 24 15 4 8 10 15 15 15 5 0 9 -7 9 -15z m120 -25 c0 -5 -4 -10 -10 -10 -5 0
-10 5 -10 10 0 6 5 10 10 10 6 0 10 -4 10 -10z"/>
<path d="M118 339 c-21 -12 -24 -49 -6 -67 18 -18 56 -14 68 7 12 24 4 48 -21
61 -21 12 -20 12 -41 -1z m42 -24 c10 -12 10 -18 0 -29 -14 -18 -40 -10 -40
13 0 32 20 40 40 16z"/>
</g>
</svg>
