<?xml version="1.0" standalone="no"?>
<!DOCTYPE svg PUBLIC "-//W3C//DTD SVG 20010904//EN"
 "http://www.w3.org/TR/2001/REC-SVG-20010904/DTD/svg10.dtd">
<svg version="1.0" xmlns="http://www.w3.org/2000/svg"
 width="25.000000pt" height="25.000000pt" viewBox="0 0 25.000000 25.000000"
 preserveAspectRatio="xMidYMid meet">
<metadata>
Created by potrace 1.10, written by Peter Selinger 2001-2011
</metadata>
<g transform="translate(0.000000,25.000000) scale(0.100000,-0.100000)"
fill="#000000" stroke="none">
<path d="M25 176 c-13 -20 -14 -29 -5 -46 10 -18 8 -24 -6 -35 -16 -11 -17
-15 -4 -30 12 -15 25 -16 85 -11 44 4 74 12 81 21 16 21 24 19 24 -6 0 -11 4
-18 9 -15 5 3 7 15 4 26 -4 15 0 20 16 20 11 0 21 5 21 10 0 6 -9 10 -21 10
-15 0 -19 5 -17 21 4 25 -31 53 -39 31 -4 -10 -9 -9 -24 4 -10 9 -25 14 -33
11 -9 -4 -18 -2 -21 3 -12 19 -54 10 -70 -14z m70 -17 c4 -12 -1 -29 -14 -44
l-19 -26 -16 23 c-21 29 -20 55 1 66 22 13 41 5 48 -19z m45 1 c0 -11 -7 -20
-15 -20 -8 0 -15 9 -15 20 0 11 7 20 15 20 8 0 15 -9 15 -20z m58 -25 c0 -14
-6 -25 -13 -25 -7 0 -12 11 -12 25 0 14 5 25 12 25 7 0 13 -11 13 -25z m-33 5
c3 -5 1 -10 -4 -10 -6 0 -11 5 -11 10 0 6 2 10 4 10 3 0 8 -4 11 -10z m-12
-30 c10 -12 15 -25 12 -30 -9 -15 -32 -12 -39 5 -3 8 -13 15 -22 15 -13 0 -14
3 -4 15 17 20 32 19 53 -5z m-96 -31 c8 -8 13 -8 17 0 9 13 36 15 36 2 0 -5
-10 -11 -21 -14 -28 -8 -80 3 -73 14 7 12 28 11 41 -2z"/>
<path d="M45 160 c-4 -7 -3 -16 3 -22 14 -14 45 -2 40 15 -6 16 -34 21 -43 7z"/>
</g>
</svg>
