<?xml version="1.0" standalone="no"?>
<!DOCTYPE svg PUBLIC "-//W3C//DTD SVG 20010904//EN"
 "http://www.w3.org/TR/2001/REC-SVG-20010904/DTD/svg10.dtd">
<svg version="1.0" xmlns="http://www.w3.org/2000/svg"
 width="50.000000pt" height="50.000000pt" viewBox="0 0 50.000000 50.000000"
 preserveAspectRatio="xMidYMid meet">
<metadata>
Created by potrace 1.16, written by Peter Selinger 2001-2019
</metadata>
<g transform="translate(0.000000,50.000000) scale(0.100000,-0.100000)"
fill="#000000" stroke="none">
<path d="M141 371 c-37 -35 -41 -79 -11 -128 l20 -33 -35 -14 c-46 -20 -49
-58 -5 -81 39 -20 136 -20 144 0 4 10 -1 15 -15 15 -18 0 -19 1 -3 25 13 20
24 25 60 25 44 0 44 0 44 -35 0 -24 5 -35 15 -35 10 0 15 11 15 35 0 33 2 35
35 35 24 0 35 5 35 15 0 10 -11 15 -35 15 -33 0 -35 2 -35 35 0 24 -5 35 -15
35 -10 0 -15 -11 -15 -35 0 -32 -2 -35 -30 -35 -33 0 -36 6 -15 34 8 11 15 37
15 59 0 88 -103 130 -169 68z m119 -21 c28 -28 25 -61 -14 -125 l-34 -56 -36
58 c-41 66 -44 90 -16 121 26 28 73 29 100 2z"/>
</g>
</svg>
