<?xml version="1.0" encoding="UTF-8"?>
<svg xmlns="http://www.w3.org/2000/svg" xmlns:xlink="http://www.w3.org/1999/xlink" width="25px" height="25px" viewBox="0 0 25 25" version="1.1">
<g id="surface1">
<path style=" stroke:none;fill-rule:nonzero;fill:rgb(3.921569%,88.627451%,10.980392%);fill-opacity:1;" d="M 23.957031 11.457031 L 21.875 11.457031 L 21.875 9.375 C 21.875 8.800781 21.410156 8.332031 20.832031 8.332031 C 20.257812 8.332031 19.792969 8.800781 19.792969 9.375 L 19.792969 11.457031 L 17.707031 11.457031 C 17.132812 11.457031 16.667969 11.925781 16.667969 12.5 C 16.667969 13.074219 17.132812 13.542969 17.707031 13.542969 L 19.792969 13.542969 L 19.792969 15.625 C 19.792969 16.199219 20.257812 16.667969 20.832031 16.667969 C 21.410156 16.667969 21.875 16.199219 21.875 15.625 L 21.875 13.542969 L 23.957031 13.542969 C 24.535156 13.542969 25 13.074219 25 12.5 C 25 11.925781 24.535156 11.457031 23.957031 11.457031 Z M 23.957031 11.457031 "/>
<path style=" stroke:none;fill-rule:nonzero;fill:rgb(3.921569%,88.627451%,10.980392%);fill-opacity:1;" d="M 15.625 6.25 C 15.625 9.703125 12.828125 12.5 9.375 12.5 C 5.921875 12.5 3.125 9.703125 3.125 6.25 C 3.125 2.796875 5.921875 0 9.375 0 C 12.828125 0 15.625 2.796875 15.625 6.25 Z M 15.625 6.25 "/>
<path style=" stroke:none;fill-rule:nonzero;fill:rgb(3.921569%,88.627451%,10.980392%);fill-opacity:1;" d="M 9.375 14.582031 C 4.199219 14.589844 0.00390625 18.78125 0 23.957031 C 0 24.535156 0.464844 25 1.042969 25 L 17.707031 25 C 18.285156 25 18.75 24.535156 18.75 23.957031 C 18.746094 18.78125 14.550781 14.589844 9.375 14.582031 Z M 9.375 14.582031 "/>
</g>
</svg>
