<?xml version="1.0" standalone="no"?>
<!DOCTYPE svg PUBLIC "-//W3C//DTD SVG 20010904//EN"
 "http://www.w3.org/TR/2001/REC-SVG-20010904/DTD/svg10.dtd">
<svg version="1.0" xmlns="http://www.w3.org/2000/svg"
 width="25.000000pt" height="25.000000pt" viewBox="0 0 25.000000 25.000000"
 preserveAspectRatio="xMidYMid meet">
<metadata>
Created by potrace 1.10, written by Peter Selinger 2001-2011
</metadata>
<g transform="translate(0.000000,25.000000) scale(0.100000,-0.100000)"
fill="#000000" stroke="none">
<path d="M84 225 c-4 -8 -17 -15 -30 -15 -13 0 -24 -4 -24 -10 0 -6 38 -10 95
-10 57 0 95 4 95 10 0 6 -11 10 -25 10 -16 0 -25 6 -25 15 0 21 -78 21 -86 0z
m62 -12 c-11 -11 -35 -12 -42 -2 -3 5 7 9 22 9 15 0 24 -3 20 -7z"/>
<path d="M48 174 c-13 -12 -9 -139 4 -152 16 -16 130 -16 146 0 14 14 16 144
2 153 -5 3 -10 -24 -12 -67 l-3 -73 -60 0 -60 0 -5 73 c-3 41 -8 70 -12 66z"/>
<path d="M94 147 c-8 -21 -1 -82 10 -82 11 0 15 84 4 91 -4 3 -11 -1 -14 -9z"/>
<path d="M139 156 c-5 -38 0 -91 9 -94 15 -5 16 84 2 93 -5 3 -10 4 -11 1z"/>
</g>
</svg>
