<?xml version="1.0" encoding="UTF-8"?>
<svg xmlns="http://www.w3.org/2000/svg" xmlns:xlink="http://www.w3.org/1999/xlink" width="25px" height="25px" viewBox="0 0 25 25" version="1.1">
<g id="surface1">
<path style=" stroke:none;fill-rule:nonzero;fill:rgb(0%,0%,0%);fill-opacity:1;" d="M 19.789062 2.085938 L 18.75 2.085938 L 18.75 1.039062 C 18.75 0.46875 18.28125 0 17.710938 0 C 17.132812 0 16.664062 0.46875 16.664062 1.039062 L 16.664062 2.085938 L 8.335938 2.085938 L 8.335938 1.039062 C 8.335938 0.46875 7.867188 0 7.289062 0 C 6.71875 0 6.25 0.46875 6.25 1.039062 L 6.25 2.085938 L 5.210938 2.085938 C 2.335938 2.085938 0.00390625 4.414062 0 7.289062 L 0 19.789062 C 0.00390625 22.664062 2.335938 24.996094 5.210938 25 L 19.789062 25 C 22.664062 24.996094 24.996094 22.664062 25 19.789062 L 25 7.289062 C 24.996094 4.414062 22.664062 2.085938 19.789062 2.085938 Z M 2.085938 7.289062 C 2.085938 5.566406 3.484375 4.164062 5.210938 4.164062 L 19.789062 4.164062 C 21.515625 4.164062 22.914062 5.566406 22.914062 7.289062 L 22.914062 8.335938 L 2.085938 8.335938 Z M 19.789062 22.914062 L 5.210938 22.914062 C 3.484375 22.914062 2.085938 21.515625 2.085938 19.789062 L 2.085938 10.414062 L 22.914062 10.414062 L 22.914062 19.789062 C 22.914062 21.515625 21.515625 22.914062 19.789062 22.914062 Z M 19.789062 22.914062 "/>
<path style=" stroke:none;fill-rule:nonzero;fill:rgb(0%,0%,0%);fill-opacity:1;" d="M 14.0625 15.625 C 14.0625 16.488281 13.363281 17.1875 12.5 17.1875 C 11.636719 17.1875 10.9375 16.488281 10.9375 15.625 C 10.9375 14.761719 11.636719 14.0625 12.5 14.0625 C 13.363281 14.0625 14.0625 14.761719 14.0625 15.625 Z M 14.0625 15.625 "/>
<path style=" stroke:none;fill-rule:nonzero;fill:rgb(0%,0%,0%);fill-opacity:1;" d="M 8.851562 15.625 C 8.851562 16.488281 8.15625 17.1875 7.289062 17.1875 C 6.429688 17.1875 5.726562 16.488281 5.726562 15.625 C 5.726562 14.761719 6.429688 14.0625 7.289062 14.0625 C 8.15625 14.0625 8.851562 14.761719 8.851562 15.625 Z M 8.851562 15.625 "/>
<path style=" stroke:none;fill-rule:nonzero;fill:rgb(0%,0%,0%);fill-opacity:1;" d="M 19.273438 15.625 C 19.273438 16.488281 18.570312 17.1875 17.710938 17.1875 C 16.84375 17.1875 16.148438 16.488281 16.148438 15.625 C 16.148438 14.761719 16.84375 14.0625 17.710938 14.0625 C 18.570312 14.0625 19.273438 14.761719 19.273438 15.625 Z M 19.273438 15.625 "/>
</g>
</svg>
