<?xml version="1.0" encoding="UTF-8"?>
<svg xmlns="http://www.w3.org/2000/svg" xmlns:xlink="http://www.w3.org/1999/xlink" width="50px" height="50px" viewBox="0 0 50 50" version="1.1">
<g id="surface1">
<path style=" stroke:none;fill-rule:nonzero;fill:rgb(100%,100%,100%);fill-opacity:1;" d="M 18.75 3.125 L 18.75 6.25 L 31.25 6.25 L 31.25 3.125 C 31.25 1.398438 32.648438 0 34.375 0 C 36.101562 0 37.5 1.398438 37.5 3.125 L 37.5 6.25 L 42.1875 6.25 C 44.773438 6.25 46.875 8.347656 46.875 10.9375 L 46.875 15.625 L 3.125 15.625 L 3.125 10.9375 C 3.125 8.347656 5.222656 6.25 7.8125 6.25 L 12.5 6.25 L 12.5 3.125 C 12.5 1.398438 13.898438 0 15.625 0 C 17.351562 0 18.75 1.398438 18.75 3.125 Z M 3.125 18.75 L 46.875 18.75 L 46.875 45.3125 C 46.875 47.898438 44.773438 50 42.1875 50 L 7.8125 50 C 5.222656 50 3.125 47.898438 3.125 45.3125 Z M 9.375 29.6875 C 9.375 30.546875 10.074219 31.25 10.9375 31.25 L 14.0625 31.25 C 14.921875 31.25 15.625 30.546875 15.625 29.6875 L 15.625 26.5625 C 15.625 25.703125 14.921875 25 14.0625 25 L 10.9375 25 C 10.074219 25 9.375 25.703125 9.375 26.5625 Z M 21.875 29.6875 C 21.875 30.546875 22.578125 31.25 23.4375 31.25 L 26.5625 31.25 C 27.421875 31.25 28.125 30.546875 28.125 29.6875 L 28.125 26.5625 C 28.125 25.703125 27.421875 25 26.5625 25 L 23.4375 25 C 22.578125 25 21.875 25.703125 21.875 26.5625 Z M 35.9375 25 C 35.078125 25 34.375 25.703125 34.375 26.5625 L 34.375 29.6875 C 34.375 30.546875 35.078125 31.25 35.9375 31.25 L 39.0625 31.25 C 39.921875 31.25 40.625 30.546875 40.625 29.6875 L 40.625 26.5625 C 40.625 25.703125 39.921875 25 39.0625 25 Z M 9.375 42.1875 C 9.375 43.046875 10.074219 43.75 10.9375 43.75 L 14.0625 43.75 C 14.921875 43.75 15.625 43.046875 15.625 42.1875 L 15.625 39.0625 C 15.625 38.203125 14.921875 37.5 14.0625 37.5 L 10.9375 37.5 C 10.074219 37.5 9.375 38.203125 9.375 39.0625 Z M 23.4375 37.5 C 22.578125 37.5 21.875 38.203125 21.875 39.0625 L 21.875 42.1875 C 21.875 43.046875 22.578125 43.75 23.4375 43.75 L 26.5625 43.75 C 27.421875 43.75 28.125 43.046875 28.125 42.1875 L 28.125 39.0625 C 28.125 38.203125 27.421875 37.5 26.5625 37.5 Z M 34.375 42.1875 C 34.375 43.046875 35.078125 43.75 35.9375 43.75 L 39.0625 43.75 C 39.921875 43.75 40.625 43.046875 40.625 42.1875 L 40.625 39.0625 C 40.625 38.203125 39.921875 37.5 39.0625 37.5 L 35.9375 37.5 C 35.078125 37.5 34.375 38.203125 34.375 39.0625 Z M 34.375 42.1875 "/>
</g>
</svg>
