<?xml version="1.0" encoding="UTF-8"?>
<svg xmlns="http://www.w3.org/2000/svg" xmlns:xlink="http://www.w3.org/1999/xlink" width="25px" height="25px" viewBox="0 0 25 25" version="1.1">
<g id="surface1">
<path style=" stroke:none;fill-rule:nonzero;fill:rgb(100%,4.705882%,4.705882%);fill-opacity:1;" d="M 12.496094 0 C 13.359375 0 14.058594 0.699219 14.058594 1.5625 L 14.058594 6.765625 C 14.058594 7.628906 13.359375 8.328125 12.496094 8.328125 C 11.632812 8.328125 10.933594 7.628906 10.933594 6.765625 L 10.933594 1.5625 C 10.933594 0.699219 11.632812 0 12.496094 0 Z M 12.496094 0 "/>
<path style=" stroke:none;fill-rule:nonzero;fill:rgb(100%,4.705882%,4.705882%);fill-opacity:1;" d="M 16.140625 5.144531 C 16.132812 5.667969 16.394531 6.15625 16.839844 6.441406 C 20.761719 8.839844 22 13.964844 19.601562 17.890625 C 17.203125 21.816406 12.078125 23.050781 8.152344 20.652344 C 4.226562 18.257812 2.992188 13.128906 5.390625 9.203125 C 6.074219 8.082031 7.015625 7.140625 8.132812 6.453125 C 8.585938 6.167969 8.855469 5.675781 8.851562 5.144531 C 8.855469 4.28125 8.15625 3.582031 7.292969 3.578125 C 7 3.578125 6.707031 3.660156 6.457031 3.820312 C 1.085938 7.15625 -0.566406 14.214844 2.773438 19.589844 C 6.109375 24.960938 13.167969 26.613281 18.542969 23.273438 C 23.914062 19.9375 25.566406 12.875 22.226562 7.503906 C 21.300781 6.007812 20.039062 4.746094 18.542969 3.820312 C 17.808594 3.355469 16.84375 3.574219 16.382812 4.308594 C 16.222656 4.558594 16.140625 4.847656 16.140625 5.144531 Z M 16.140625 5.144531 "/>
</g>
</svg>
