<?xml version="1.0" encoding="UTF-8"?>
<svg xmlns="http://www.w3.org/2000/svg" xmlns:xlink="http://www.w3.org/1999/xlink" width="25px" height="25px" viewBox="0 0 25 25" version="1.1">
<g id="surface1">
<path style=" stroke:none;fill-rule:nonzero;fill:rgb(100%,1.960784%,1.960784%);fill-opacity:1;" d="M 24.695312 0.304688 C 24.289062 -0.101562 23.628906 -0.101562 23.222656 0.304688 L 12.5 11.027344 L 1.777344 0.304688 C 1.371094 -0.101562 0.710938 -0.101562 0.304688 0.304688 C -0.101562 0.710938 -0.101562 1.371094 0.304688 1.777344 L 11.027344 12.5 L 0.304688 23.222656 C -0.101562 23.628906 -0.101562 24.289062 0.304688 24.695312 C 0.710938 25.101562 1.371094 25.101562 1.777344 24.695312 L 12.5 13.972656 L 23.222656 24.695312 C 23.628906 25.101562 24.289062 25.101562 24.695312 24.695312 C 25.101562 24.289062 25.101562 23.628906 24.695312 23.222656 L 13.972656 12.5 L 24.695312 1.777344 C 25.101562 1.371094 25.101562 0.710938 24.695312 0.304688 Z M 24.695312 0.304688 "/>
</g>
</svg>
