<?xml version="1.0" encoding="UTF-8"?>
<svg xmlns="http://www.w3.org/2000/svg" xmlns:xlink="http://www.w3.org/1999/xlink" width="25px" height="25px" viewBox="0 0 25 25" version="1.1">
<g id="surface1">
<path style=" stroke:none;fill-rule:nonzero;fill:rgb(0%,0%,0%);fill-opacity:1;" d="M 19.433594 0.96875 L 6.734375 13.667969 C 5.753906 14.640625 5.203125 15.96875 5.210938 17.351562 L 5.210938 18.75 C 5.210938 19.328125 5.671875 19.789062 6.25 19.789062 L 7.648438 19.789062 C 9.03125 19.796875 10.359375 19.246094 11.332031 18.265625 L 24.03125 5.566406 C 25.296875 4.296875 25.296875 2.242188 24.03125 0.96875 C 22.746094 -0.257812 20.71875 -0.257812 19.433594 0.96875 Z M 22.558594 4.09375 L 9.859375 16.792969 C 9.273438 17.375 8.476562 17.707031 7.648438 17.710938 L 7.289062 17.710938 L 7.289062 17.351562 C 7.292969 16.523438 7.625 15.726562 8.207031 15.140625 L 20.90625 2.441406 C 21.367188 2 22.09375 2 22.558594 2.441406 C 23.015625 2.898438 23.015625 3.636719 22.558594 4.09375 Z M 22.558594 4.09375 "/>
<path style=" stroke:none;fill-rule:nonzero;fill:rgb(0%,0%,0%);fill-opacity:1;" d="M 23.960938 9.351562 C 23.382812 9.351562 22.914062 9.820312 22.914062 10.394531 L 22.914062 15.625 L 18.75 15.625 C 17.023438 15.625 15.625 17.023438 15.625 18.75 L 15.625 22.914062 L 5.210938 22.914062 C 3.484375 22.914062 2.085938 21.515625 2.085938 19.789062 L 2.085938 5.210938 C 2.085938 3.484375 3.484375 2.085938 5.210938 2.085938 L 14.625 2.085938 C 15.203125 2.085938 15.667969 1.617188 15.667969 1.039062 C 15.667969 0.46875 15.203125 0 14.625 0 L 5.210938 0 C 2.335938 0.00390625 0.00390625 2.335938 0 5.210938 L 0 19.789062 C 0.00390625 22.664062 2.335938 24.996094 5.210938 25 L 17.023438 25 C 18.40625 25.003906 19.734375 24.453125 20.707031 23.476562 L 23.476562 20.707031 C 24.453125 19.734375 25.003906 18.40625 25 17.023438 L 25 10.394531 C 25 9.820312 24.53125 9.351562 23.960938 9.351562 Z M 19.234375 22 C 18.816406 22.421875 18.285156 22.710938 17.710938 22.835938 L 17.710938 18.75 C 17.710938 18.171875 18.171875 17.710938 18.75 17.710938 L 22.835938 17.710938 C 22.710938 18.285156 22.421875 18.8125 22.007812 19.234375 Z M 19.234375 22 "/>
</g>
</svg>
