<?xml version="1.0" encoding="UTF-8"?>
<svg xmlns="http://www.w3.org/2000/svg" xmlns:xlink="http://www.w3.org/1999/xlink" width="25px" height="25px" viewBox="0 0 25 25" version="1.1">
<g id="surface1">
<path style=" stroke:none;fill-rule:nonzero;fill:rgb(0%,0%,0%);fill-opacity:1;" d="M 22.269531 20.796875 L 24.476562 23.007812 L 23.007812 24.476562 L 20.796875 22.269531 L 18.585938 24.476562 L 17.113281 23.007812 L 19.320312 20.796875 L 17.113281 18.585938 L 18.585938 17.113281 L 20.796875 19.320312 L 23.007812 17.113281 L 24.476562 18.585938 Z M 22.269531 20.796875 "/>
<path style=" stroke:none;fill-rule:nonzero;fill:rgb(0%,0%,0%);fill-opacity:1;" d="M 12.515625 0 C 5.625 -0.0234375 0.0234375 5.558594 0 12.460938 C -0.0234375 19.367188 5.546875 24.976562 12.441406 25 C 13.585938 25.003906 14.722656 24.851562 15.820312 24.542969 C 13.773438 21.773438 14.351562 17.867188 17.117188 15.8125 C 19.320312 14.175781 22.335938 14.175781 24.539062 15.8125 C 26.382812 9.179688 22.511719 2.304688 15.890625 0.457031 C 14.792969 0.148438 13.65625 -0.00390625 12.515625 0 Z M 13.558594 11.890625 L 10.128906 15.320312 L 8.65625 13.847656 L 11.476562 11.027344 L 11.476562 6.25 L 13.558594 6.25 Z M 13.558594 11.890625 "/>
</g>
</svg>
