<?xml version="1.0" encoding="UTF-8"?>
<svg xmlns="http://www.w3.org/2000/svg" xmlns:xlink="http://www.w3.org/1999/xlink" width="25px" height="25px" viewBox="0 0 25 25" version="1.1">
<g id="surface1">
<path style=" stroke:none;fill-rule:nonzero;fill:rgb(0%,0%,0%);fill-opacity:1;" d="M 3.125 6.25 C 3.125 2.796875 5.921875 0 9.375 0 C 12.828125 0 15.625 2.796875 15.625 6.25 C 15.625 9.703125 12.828125 12.5 9.375 12.5 C 5.921875 12.496094 3.128906 9.703125 3.125 6.25 Z M 9.375 14.585938 C 4.199219 14.589844 0.0078125 18.78125 0 23.960938 C 0 24.53125 0.46875 25 1.039062 25 L 17.710938 25 C 18.28125 25 18.75 24.53125 18.75 23.960938 C 18.742188 18.78125 14.550781 14.589844 9.375 14.585938 Z M 22.304688 12.5 L 24.695312 10.109375 C 25.089844 9.703125 25.085938 9.054688 24.679688 8.648438 C 24.28125 8.25 23.632812 8.242188 23.222656 8.640625 L 20.835938 11.027344 L 18.445312 8.640625 C 18.035156 8.242188 17.386719 8.25 16.984375 8.648438 C 16.582031 9.054688 16.578125 9.703125 16.972656 10.109375 L 19.359375 12.5 L 16.972656 14.890625 C 16.703125 15.148438 16.59375 15.539062 16.6875 15.902344 C 16.78125 16.265625 17.070312 16.550781 17.429688 16.648438 C 17.796875 16.742188 18.183594 16.632812 18.445312 16.359375 L 20.835938 13.972656 L 23.222656 16.359375 C 23.632812 16.757812 24.28125 16.75 24.679688 16.351562 C 25.085938 15.945312 25.089844 15.296875 24.695312 14.890625 Z M 22.304688 12.5 "/>
</g>
</svg>
