<?xml version="1.0" encoding="UTF-8"?>
<svg xmlns="http://www.w3.org/2000/svg" xmlns:xlink="http://www.w3.org/1999/xlink" width="50px" height="50px" viewBox="0 0 50 50" version="1.1">
<g id="surface1">
<path style=" stroke:none;fill-rule:nonzero;fill:rgb(100%,100%,100%);fill-opacity:1;" d="M 15.625 27.082031 C 10.449219 27.082031 6.25 22.886719 6.25 17.707031 C 6.25 12.53125 10.449219 8.332031 15.625 8.332031 C 20.800781 8.332031 25 12.53125 25 17.707031 C 24.996094 22.882812 20.800781 27.078125 15.625 27.082031 Z M 29.167969 50 L 2.082031 50 C 0.933594 50 0 49.066406 0 47.917969 L 0 46.875 C 0 38.246094 6.996094 31.25 15.625 31.25 C 24.253906 31.25 31.25 38.246094 31.25 46.875 L 31.25 47.917969 C 31.25 49.066406 30.316406 50 29.167969 50 Z M 36.457031 18.75 C 31.28125 18.75 27.082031 14.550781 27.082031 9.375 C 27.082031 4.199219 31.28125 0 36.457031 0 C 41.636719 0 45.832031 4.199219 45.832031 9.375 C 45.828125 14.550781 41.632812 18.746094 36.457031 18.75 Z M 33.496094 22.960938 C 29.574219 23.488281 26.050781 25.625 23.769531 28.859375 C 28.4375 30.976562 32.105469 34.820312 34.007812 39.582031 L 47.917969 39.582031 C 49.066406 39.582031 50 38.652344 50 37.5 L 50 37.421875 C 49.996094 33.21875 48.183594 29.222656 45.023438 26.457031 C 41.863281 23.6875 37.664062 22.414062 33.496094 22.960938 Z M 33.496094 22.960938 "/>
</g>
</svg>
