<?xml version="1.0" encoding="UTF-8"?>
<svg xmlns="http://www.w3.org/2000/svg" xmlns:xlink="http://www.w3.org/1999/xlink" width="50px" height="50px" viewBox="0 0 50 50" version="1.1">
<g id="surface1">
<path style=" stroke:none;fill-rule:nonzero;fill:rgb(0%,0%,0%);fill-opacity:1;" d="M 25 33.332031 C 20.398438 33.332031 16.667969 29.601562 16.667969 25 C 16.667969 20.398438 20.398438 16.667969 25 16.667969 C 29.601562 16.667969 33.332031 20.398438 33.332031 25 C 33.332031 29.601562 29.601562 33.332031 25 33.332031 Z M 11.839844 33.332031 L 2.082031 33.332031 C 0.933594 33.332031 0 32.402344 0 31.25 C 0.0390625 25.070312 4.578125 19.839844 10.691406 18.925781 C 11.386719 18.828125 12.089844 19.089844 12.550781 19.621094 C 13.015625 20.152344 13.175781 20.882812 12.980469 21.5625 C 12.660156 22.679688 12.5 23.835938 12.5 25 C 12.5 26.855469 12.917969 28.683594 13.722656 30.355469 C 14.027344 31 13.984375 31.753906 13.601562 32.359375 C 13.222656 32.964844 12.558594 33.332031 11.847656 33.332031 Z M 35.417969 50 L 14.582031 50 C 13.433594 50 12.5 49.066406 12.5 47.917969 C 12.5 41.011719 18.097656 35.417969 25 35.417969 C 31.902344 35.417969 37.5 41.011719 37.5 47.917969 C 37.5 49.066406 36.566406 50 35.417969 50 Z M 37.5 16.667969 C 32.898438 16.667969 29.167969 12.9375 29.167969 8.332031 C 29.167969 3.730469 32.898438 0 37.5 0 C 42.101562 0 45.832031 3.730469 45.832031 8.332031 C 45.832031 12.9375 42.101562 16.667969 37.5 16.667969 Z M 12.5 16.667969 C 7.898438 16.667969 4.167969 12.9375 4.167969 8.332031 C 4.167969 3.730469 7.898438 0 12.5 0 C 17.101562 0 20.832031 3.730469 20.832031 8.332031 C 20.832031 12.9375 17.101562 16.667969 12.5 16.667969 Z M 47.917969 33.332031 L 38.160156 33.332031 C 37.445312 33.332031 36.785156 32.964844 36.402344 32.359375 C 36.023438 31.753906 35.976562 31 36.285156 30.355469 C 37.085938 28.683594 37.5 26.851562 37.5 25 C 37.496094 23.835938 37.332031 22.679688 37.007812 21.5625 C 36.8125 20.882812 36.976562 20.148438 37.441406 19.617188 C 37.90625 19.082031 38.609375 18.824219 39.308594 18.925781 C 45.421875 19.839844 49.960938 25.070312 50 31.25 C 50 32.402344 49.066406 33.332031 47.917969 33.332031 Z M 47.917969 33.332031 "/>
</g>
</svg>
