<?xml version="1.0" encoding="UTF-8"?>
<svg xmlns="http://www.w3.org/2000/svg" xmlns:xlink="http://www.w3.org/1999/xlink" width="512px" height="512px" viewBox="0 0 256 256" version="1.1">
<g id="surface1">
<path style=" stroke:none;fill-rule:nonzero;fill:rgb(100%,100%,100%);fill-opacity:1;" d="M 80 138.667969 C 53.492188 138.667969 32 117.175781 32 90.667969 C 32 64.15625 53.492188 42.667969 80 42.667969 C 106.507812 42.667969 128 64.15625 128 90.667969 C 127.96875 117.164062 106.496094 138.636719 80 138.667969 Z M 149.332031 256 L 10.667969 256 C 4.777344 256 0 251.222656 0 245.332031 L 0 240 C 0 195.816406 35.816406 160 80 160 C 124.183594 160 160 195.816406 160 240 L 160 245.332031 C 160 251.222656 155.222656 256 149.332031 256 Z M 186.667969 96 C 160.15625 96 138.667969 74.507812 138.667969 48 C 138.667969 21.492188 160.15625 0 186.667969 0 C 213.175781 0 234.667969 21.492188 234.667969 48 C 234.636719 74.496094 213.164062 95.96875 186.667969 96 Z M 171.507812 117.558594 C 151.425781 120.25 133.375 131.195312 121.695312 147.753906 C 145.597656 158.609375 164.378906 178.285156 174.113281 202.667969 L 245.332031 202.667969 C 251.222656 202.667969 256 197.890625 256 192 L 256 191.59375 C 255.976562 170.085938 246.691406 149.628906 230.511719 135.453125 C 214.335938 121.273438 192.835938 114.753906 171.507812 117.558594 Z M 171.507812 117.558594 "/>
</g>
</svg>
