<?xml version="1.0" standalone="no"?>
<!DOCTYPE svg PUBLIC "-//W3C//DTD SVG 20010904//EN"
 "http://www.w3.org/TR/2001/REC-SVG-20010904/DTD/svg10.dtd">
<svg version="1.0" xmlns="http://www.w3.org/2000/svg"
 width="50.000000pt" height="50.000000pt" viewBox="0 0 50.000000 50.000000"
 preserveAspectRatio="xMidYMid meet">
<metadata>
Created by potrace 1.10, written by Peter Selinger 2001-2011
</metadata>
<g transform="translate(0.000000,50.000000) scale(0.100000,-0.100000)"
fill="#000000" stroke="none">
<path d="M206 389 c-30 -24 -36 -78 -11 -99 14 -11 13 -14 -4 -26 -11 -8 -26
-11 -35 -8 -19 7 -19 7 -5 38 10 20 9 30 -5 51 -37 56 -125 10 -97 -51 10 -22
8 -28 -14 -47 -13 -12 -27 -34 -31 -49 l-6 -28 61 0 c57 0 61 -1 61 -23 0 -45
28 -57 132 -57 103 0 128 12 128 58 0 20 5 22 61 22 l61 0 -6 28 c-4 15 -18
37 -31 49 -22 19 -24 25 -14 47 28 61 -60 107 -97 51 -14 -21 -15 -31 -5 -51
14 -31 14 -31 -5 -38 -9 -3 -24 0 -35 8 -17 12 -18 15 -4 26 25 21 19 75 -11
99 -15 12 -34 21 -44 21 -10 0 -29 -9 -44 -21z m89 -23 c32 -48 -22 -104 -73
-77 -29 16 -37 48 -18 76 22 34 70 34 91 1z m-174 -16 c25 -14 25 -56 0 -70
-25 -13 -27 -13 -45 6 -20 20 -20 38 0 58 18 19 20 19 45 6z m300 0 c10 -6 19
-19 19 -30 0 -19 -25 -50 -40 -50 -13 0 -40 30 -40 45 0 13 26 45 36 45 3 0
14 -5 25 -10z m-273 -104 c2 -2 -4 -18 -13 -35 -14 -28 -20 -31 -65 -31 -52 0
-62 11 -37 42 21 26 51 38 81 33 16 -3 31 -7 34 -9z m179 -21 c29 -29 34 -40
31 -72 l-3 -38 -105 0 -105 0 -3 38 c-3 32 2 43 31 72 29 29 42 35 77 35 35 0
48 -6 77 -35z m112 20 c26 -13 41 -33 41 -56 0 -5 -22 -9 -50 -9 -45 0 -51 3
-65 30 -19 36 -19 38 3 43 31 8 43 7 71 -8z"/>
</g>
</svg>
