<?xml version="1.0" standalone="no"?>
<!DOCTYPE svg PUBLIC "-//W3C//DTD SVG 20010904//EN"
 "http://www.w3.org/TR/2001/REC-SVG-20010904/DTD/svg10.dtd">
<svg version="1.0" xmlns="http://www.w3.org/2000/svg"
 width="50.000000pt" height="50.000000pt" viewBox="0 0 50.000000 50.000000"
 preserveAspectRatio="xMidYMid meet">
<metadata>
Created by potrace 1.10, written by Peter Selinger 2001-2011
</metadata>
<g transform="translate(0.000000,50.000000) scale(0.100000,-0.100000)"
fill="#000000" stroke="none">
<path d="M210 360 c-23 -23 -25 -42 -9 -72 12 -23 -3 -40 -27 -31 -10 4 -10
10 -2 29 9 19 8 28 -7 44 -23 25 -47 25 -70 0 -14 -15 -16 -25 -8 -41 7 -18 4
-27 -14 -45 -13 -13 -23 -32 -23 -44 0 -17 6 -20 51 -20 33 0 48 -4 44 -11 -4
-5 1 -19 11 -30 25 -28 163 -28 188 0 10 11 15 25 11 30 -4 7 11 11 44 11 45
0 51 3 51 20 0 12 -10 31 -23 44 -18 18 -21 27 -14 45 12 25 -15 61 -44 61
-28 0 -53 -44 -40 -69 13 -23 1 -34 -24 -25 -10 4 -14 12 -9 23 16 39 15 60
-5 80 -26 26 -55 27 -81 1z m64 -6 c24 -9 21 -61 -4 -74 -30 -16 -60 4 -60 40
0 35 26 49 64 34z m-119 -54 c0 -18 -6 -26 -23 -28 -13 -2 -25 3 -28 12 -10
26 4 48 28 44 17 -2 23 -10 23 -28z m240 0 c0 -18 -6 -26 -23 -28 -24 -4 -38
18 -28 44 3 9 15 14 28 12 17 -2 23 -10 23 -28z m-227 -55 c2 -2 -3 -12 -10
-24 -10 -16 -23 -21 -56 -21 -40 0 -42 1 -32 21 17 31 74 45 98 24z m143 -15
c22 -22 29 -37 27 -57 l-3 -28 -85 0 -85 0 -3 28 c-5 38 45 87 88 87 22 0 41
-9 61 -30z m113 -3 l18 -22 -42 -3 c-31 -2 -45 1 -56 15 -18 24 -17 31 4 36
27 7 55 -3 76 -26z"/>
</g>
</svg>
