<?xml version="1.0" encoding="UTF-8"?>
<svg xmlns="http://www.w3.org/2000/svg" xmlns:xlink="http://www.w3.org/1999/xlink" width="25px" height="25px" viewBox="0 0 25 25" version="1.1">
<g id="surface1">
<path style=" stroke:none;fill-rule:nonzero;fill:rgb(0%,0%,0%);fill-opacity:1;" d="M 7.292969 0 L 17.707031 0 L 17.707031 6.25 L 7.292969 6.25 Z M 7.292969 0 "/>
<path style=" stroke:none;fill-rule:nonzero;fill:rgb(0%,0%,0%);fill-opacity:1;" d="M 14.582031 14.582031 C 14.582031 15.734375 13.652344 16.667969 12.5 16.667969 C 11.347656 16.667969 10.417969 15.734375 10.417969 14.582031 C 10.417969 13.433594 11.347656 12.5 12.5 12.5 C 13.652344 12.5 14.582031 13.433594 14.582031 14.582031 Z M 14.582031 14.582031 "/>
<path style=" stroke:none;fill-rule:nonzero;fill:rgb(0%,0%,0%);fill-opacity:1;" d="M 19.792969 0 L 19.792969 8.332031 L 5.207031 8.332031 L 5.207031 0 L 3.125 0 C 1.398438 0 0 1.398438 0 3.125 L 0 25 L 25 25 L 25 5.207031 Z M 12.5 18.75 C 10.199219 18.75 8.332031 16.882812 8.332031 14.582031 C 8.332031 12.28125 10.199219 10.417969 12.5 10.417969 C 14.800781 10.417969 16.667969 12.28125 16.667969 14.582031 C 16.667969 16.882812 14.800781 18.75 12.5 18.75 Z M 12.5 18.75 "/>
</g>
</svg>
