<?xml version="1.0" encoding="UTF-8"?>
<svg xmlns="http://www.w3.org/2000/svg" xmlns:xlink="http://www.w3.org/1999/xlink" width="50px" height="50px" viewBox="0 0 50 50" version="1.1">
<g id="surface1">
<path style=" stroke:none;fill-rule:nonzero;fill:rgb(100%,100%,100%);fill-opacity:1;" d="M 29.167969 29.167969 C 29.167969 31.46875 27.300781 33.332031 25 33.332031 C 22.699219 33.332031 20.832031 31.46875 20.832031 29.167969 C 20.832031 26.867188 22.699219 25 25 25 C 27.300781 25 29.167969 26.867188 29.167969 29.167969 Z M 29.167969 29.167969 "/>
<path style=" stroke:none;fill-rule:nonzero;fill:rgb(100%,100%,100%);fill-opacity:1;" d="M 46.949219 8.585938 L 41.414062 3.050781 C 40.859375 2.503906 40.246094 2.023438 39.582031 1.613281 L 39.582031 6.25 C 39.578125 12 34.917969 16.660156 29.167969 16.667969 L 20.832031 16.667969 C 15.082031 16.660156 10.421875 12 10.417969 6.25 L 10.417969 0 C 4.667969 0.0078125 0.0078125 4.667969 0 10.417969 L 0 39.582031 C 0.0078125 45.332031 4.667969 49.992188 10.417969 50 L 39.582031 50 C 45.332031 49.992188 49.992188 45.332031 50 39.582031 L 50 15.953125 C 50.007812 13.1875 48.910156 10.535156 46.949219 8.585938 Z M 25 37.5 C 20.398438 37.5 16.667969 33.769531 16.667969 29.167969 C 16.667969 24.5625 20.398438 20.832031 25 20.832031 C 29.601562 20.832031 33.332031 24.5625 33.332031 29.167969 C 33.332031 33.769531 29.601562 37.5 25 37.5 Z M 25 37.5 "/>
<path style=" stroke:none;fill-rule:nonzero;fill:rgb(100%,100%,100%);fill-opacity:1;" d="M 20.832031 12.5 L 29.167969 12.5 C 32.617188 12.5 35.417969 9.703125 35.417969 6.25 L 35.417969 0.132812 C 34.964844 0.0585938 34.507812 0.015625 34.046875 0 L 14.582031 0 L 14.582031 6.25 C 14.582031 9.703125 17.382812 12.5 20.832031 12.5 Z M 20.832031 12.5 "/>
</g>
</svg>
