<?xml version="1.0" encoding="UTF-8"?>
<svg xmlns="http://www.w3.org/2000/svg" xmlns:xlink="http://www.w3.org/1999/xlink" width="50px" height="50px" viewBox="0 0 50 50" version="1.1">
<g id="surface1">
<path style=" stroke:none;fill-rule:nonzero;fill:rgb(100%,100%,100%);fill-opacity:1;" d="M 40.625 3.125 L 34.375 3.125 C 32.648438 3.125 31.25 4.523438 31.25 6.25 C 31.25 7.976562 32.648438 9.375 34.375 9.375 L 40.625 9.375 C 42.351562 9.375 43.75 10.773438 43.75 12.5 L 43.75 37.5 C 43.75 39.226562 42.351562 40.625 40.625 40.625 L 34.375 40.625 C 32.648438 40.625 31.25 42.023438 31.25 43.75 C 31.25 45.476562 32.648438 46.875 34.375 46.875 L 40.625 46.875 C 45.804688 46.875 50 42.679688 50 37.5 L 50 12.5 C 50 7.320312 45.800781 3.125 40.625 3.125 Z M 33.457031 22.792969 L 20.957031 10.292969 C 19.734375 9.070312 17.757812 9.074219 16.539062 10.292969 C 15.316406 11.515625 15.316406 13.492188 16.539062 14.710938 L 23.710938 21.875 L 3.125 21.875 C 1.398438 21.875 0 23.273438 0 25 C 0 26.726562 1.398438 28.125 3.125 28.125 L 23.710938 28.125 L 16.546875 35.289062 C 15.324219 36.511719 15.324219 38.488281 16.546875 39.710938 C 17.765625 40.929688 19.742188 40.929688 20.964844 39.710938 L 33.464844 27.210938 C 34.679688 25.988281 34.679688 24.015625 33.457031 22.792969 Z M 33.457031 22.792969 "/>
</g>
</svg>
