<?xml version="1.0" standalone="no"?>
<!DOCTYPE svg PUBLIC "-//W3C//DTD SVG 20010904//EN"
 "http://www.w3.org/TR/2001/REC-SVG-20010904/DTD/svg10.dtd">
<svg version="1.0" xmlns="http://www.w3.org/2000/svg"
 width="20.000000pt" height="20.000000pt" viewBox="0 0 20.000000 20.000000"
 preserveAspectRatio="xMidYMid meet">
<metadata>
Created by potrace 1.10, written by Peter Selinger 2001-2011
</metadata>
<g transform="translate(0.000000,20.000000) scale(0.100000,-0.100000)"
fill="#000000" stroke="none">
<path d="M90 139 c0 -31 4 -48 10 -44 13 8 13 95 0 95 -5 0 -10 -23 -10 -51z"/>
<path d="M26 148 c-51 -72 26 -158 110 -123 36 15 54 41 54 77 -1 30 -34 73
-49 63 -9 -5 -9 -11 2 -23 30 -34 25 -78 -10 -95 -36 -18 -74 -8 -92 25 -13
23 -13 30 -1 55 8 15 16 31 18 36 9 17 -18 5 -32 -15z"/>
</g>
</svg>
