<?xml version="1.0" encoding="UTF-8"?>
<svg xmlns="http://www.w3.org/2000/svg" xmlns:xlink="http://www.w3.org/1999/xlink" width="25px" height="25px" viewBox="0 0 25 25" version="1.1">
<g id="surface1">
<path style=" stroke:none;fill-rule:nonzero;fill:rgb(100%,100%,100%);fill-opacity:1;" d="M 16.667969 2.878906 L 16.667969 6.335938 C 19.933594 8.222656 21.527344 12.066406 20.550781 15.710938 C 19.574219 19.351562 16.273438 21.886719 12.5 21.886719 C 8.726562 21.886719 5.425781 19.351562 4.449219 15.710938 C 3.472656 12.066406 5.066406 8.222656 8.332031 6.335938 L 8.332031 2.878906 C 3.199219 4.882812 0.21875 10.257812 1.238281 15.671875 C 2.257812 21.089844 6.988281 25.011719 12.5 25.011719 C 18.011719 25.011719 22.742188 21.089844 23.761719 15.671875 C 24.78125 10.257812 21.800781 4.882812 16.667969 2.878906 Z M 16.667969 2.878906 "/>
<path style=" stroke:none;fill-rule:nonzero;fill:rgb(100%,100%,100%);fill-opacity:1;" d="M 10.9375 0 L 14.0625 0 L 14.0625 8.332031 L 10.9375 8.332031 Z M 10.9375 0 "/>
</g>
</svg>
