<?xml version="1.0" standalone="no"?>
<!DOCTYPE svg PUBLIC "-//W3C//DTD SVG 20010904//EN"
 "http://www.w3.org/TR/2001/REC-SVG-20010904/DTD/svg10.dtd">
<svg version="1.0" xmlns="http://www.w3.org/2000/svg"
 width="738.000000pt" height="613.000000pt" viewBox="0 0 738.000000 613.000000"
 preserveAspectRatio="xMidYMid meet">
<metadata>
Created by potrace 1.16, written by Peter Selinger 2001-2019
</metadata>
<g transform="translate(0.000000,613.000000) scale(0.100000,-0.100000)"
fill="#000000" stroke="none">
<path d="M2557 6093 c3 -21 18 -63 33 -94 l28 -57 -25 -26 c-17 -18 -34 -26
-58 -26 -19 0 -41 -8 -51 -17 -17 -17 -17 -17 -10 2 11 24 20 155 11 155 -3 0
-14 -20 -25 -44 -11 -26 -34 -55 -57 -72 -54 -39 -63 -53 -63 -93 0 -20 -9
-47 -20 -61 l-19 -25 -25 24 c-35 33 -105 40 -129 13 -44 -48 -45 -232 -3
-317 l23 -45 -71 0 c-97 0 -119 7 -111 34 16 53 16 142 1 178 -30 70 -65 70
-151 -1 -70 -58 -95 -53 -95 18 0 34 -17 51 -51 51 -36 0 -69 -28 -127 -108
-88 -121 -136 -155 -288 -206 -158 -52 -284 -213 -284 -364 0 -113 54 -223
176 -354 30 -33 33 -41 23 -59 -10 -20 -9 -21 11 -16 25 7 69 -22 170 -112 79
-70 160 -136 217 -176 42 -29 53 -45 33 -45 -5 0 -10 4 -10 8 0 5 -34 8 -75 7
-54 -1 -79 2 -87 12 -9 11 -9 16 2 23 8 5 11 13 6 17 -10 10 -36 -25 -36 -48
0 -19 51 -63 87 -73 12 -4 51 3 94 19 67 23 74 24 89 9 14 -14 11 -19 -23 -49
-50 -44 -96 -65 -141 -65 -27 0 -36 -4 -36 -16 0 -14 7 -16 45 -11 47 7 100
36 159 88 l36 31 67 -44 c38 -25 92 -57 120 -73 l53 -28 -38 -41 c-41 -45 -76
-99 -87 -133 -11 -40 10 -25 33 22 25 52 88 125 108 125 21 0 19 -3 -40 -65
-30 -31 -59 -69 -65 -86 -12 -34 1 -39 16 -6 17 35 113 137 130 137 11 0 8 -7
-11 -26 -14 -15 -26 -31 -26 -36 0 -10 -99 -108 -109 -108 -10 0 -35 -32 -48
-62 -7 -16 -17 -28 -23 -28 -7 0 -8 6 0 19 5 11 10 26 9 33 0 7 -5 3 -11 -10
-6 -13 -17 -21 -25 -18 -9 4 -18 -13 -28 -52 -19 -70 -36 -104 -53 -110 -11
-3 -12 0 -3 16 6 11 11 26 11 34 0 18 -28 -24 -35 -54 -6 -24 -24 -38 -70 -53
-18 -6 -18 -5 3 15 25 24 29 42 7 34 -8 -4 -15 -10 -15 -16 0 -5 -7 -2 -16 6
-18 18 -30 20 -39 6 -3 -5 3 -10 14 -10 16 0 20 -5 17 -22 -2 -19 -10 -24 -47
-26 -24 -2 -58 -1 -76 3 -27 5 -33 11 -33 30 0 30 -11 31 -70 4 -132 -60 -188
-69 -261 -44 -71 26 -120 84 -144 173 -11 43 -13 45 -19 22 -8 -29 15 -107 46
-158 11 -18 40 -44 64 -58 41 -24 52 -26 122 -22 58 4 94 13 145 37 78 35 87
37 87 16 0 -25 50 -37 130 -33 91 5 165 41 216 103 57 71 175 219 182 230 13
19 127 107 158 123 31 14 34 13 90 -18 33 -19 81 -49 109 -67 27 -18 56 -33
64 -33 10 0 12 -8 7 -31 -4 -24 -2 -35 11 -45 17 -12 16 -14 -6 -38 -14 -14
-20 -26 -15 -26 12 0 48 39 65 72 6 12 15 25 18 28 17 14 62 94 85 151 92 230
81 380 -33 462 -26 19 -62 38 -79 42 -17 3 -36 13 -43 21 -15 18 -30 18 -23
-1 8 -21 -16 -19 -32 3 -10 12 -16 14 -22 5 -8 -12 -17 -11 -134 18 -43 11
-51 29 -13 29 13 0 41 9 61 21 32 18 147 38 234 41 55 2 156 -70 197 -139 20
-34 26 -58 26 -97 -1 -36 1 -45 7 -31 16 37 10 91 -15 140 -13 27 -23 51 -21
53 11 10 108 -52 133 -85 26 -34 28 -43 27 -127 -1 -61 -6 -104 -18 -130 -9
-22 -13 -42 -10 -45 4 -3 9 0 11 7 13 36 83 -16 83 -62 0 -51 -21 -96 -47
-102 -16 -4 -30 -19 -39 -40 -10 -23 -19 -32 -29 -28 -11 5 -14 0 -13 -17 2
-18 -1 -23 -15 -21 -12 2 -21 -4 -24 -17 -7 -27 -21 -27 -33 2 -9 22 -9 22 -9
-3 -1 -14 -7 -34 -15 -45 -15 -22 -28 -74 -30 -115 -1 -14 -21 -57 -45 -94
-37 -57 -46 -65 -52 -50 -7 16 -8 17 -8 2 -1 -9 -6 -29 -13 -43 -8 -19 -14
-22 -20 -13 -6 9 -10 7 -14 -10 -4 -14 -12 -21 -20 -18 -8 3 -14 -1 -14 -9 0
-8 -10 -20 -22 -26 -13 -7 -25 -15 -28 -19 -13 -17 -130 -51 -168 -49 -30 2
-50 -3 -70 -18 -25 -18 -38 -21 -91 -16 -34 3 -64 10 -67 14 -8 14 -66 10 -98
-6 -34 -18 -57 -19 -89 -4 -31 14 -96 -3 -135 -36 -20 -17 -42 -25 -67 -25
-21 0 -53 -9 -71 -21 -33 -20 -134 -144 -134 -164 0 -6 -14 -15 -32 -20 -24
-8 -38 -23 -59 -64 -21 -42 -35 -57 -61 -65 -24 -8 -40 -24 -60 -61 -32 -57
-35 -80 -12 -89 25 -10 34 2 34 44 0 49 38 84 82 75 27 -6 28 -6 28 38 0 30 7
53 21 71 19 24 26 27 61 21 l39 -7 -3 34 c-2 38 4 51 48 101 50 56 80 72 110
58 40 -18 58 -13 76 19 24 42 82 66 124 51 42 -15 55 -14 84 9 29 23 81 26
113 6 12 -7 46 -16 74 -19 131 -15 261 -105 513 -358 63 -64 126 -174 133
-234 5 -47 27 -95 67 -150 37 -50 61 -128 59 -191 0 -27 1 -76 3 -109 3 -33 0
-75 -4 -92 -6 -23 -4 -46 7 -78 8 -25 15 -68 15 -95 0 -66 -36 -216 -61 -257
-17 -27 -19 -42 -14 -87 6 -46 4 -55 -11 -65 -15 -8 -16 -13 -6 -19 29 -19
-25 -99 -74 -108 -38 -7 -56 -31 -34 -44 9 -6 -1 -15 -33 -29 -44 -20 -46 -23
-35 -45 21 -48 -15 -73 -62 -44 -34 22 -36 -3 -2 -31 27 -21 33 -33 30 -56 -4
-36 -31 -41 -36 -8 -2 13 -8 23 -15 23 -6 0 -2 6 9 14 18 14 18 15 2 21 -34
14 -47 -1 -41 -47 3 -24 12 -48 19 -54 13 -11 10 -44 -5 -44 -12 0 -27 15 -34
32 -8 22 -47 12 -47 -12 0 -9 9 -25 20 -35 23 -21 26 -35 7 -35 -22 0 -70 57
-64 74 10 26 -13 18 -25 -9 -9 -19 -8 -29 6 -50 14 -21 14 -25 2 -25 -22 0
-59 66 -51 91 5 15 3 20 -6 17 -20 -6 -23 -65 -5 -92 16 -26 11 -66 -9 -66
-24 0 -70 80 -69 121 1 22 -2 39 -7 39 -14 0 -23 -23 -21 -52 2 -23 -1 -27
-20 -25 -14 1 -23 -4 -26 -15 -3 -14 3 -18 27 -18 16 0 33 -5 37 -12 9 -15 14
-128 6 -128 -4 0 -16 12 -26 27 -16 21 -17 31 -8 55 12 32 3 36 -21 10 -25
-27 -21 -62 10 -94 21 -22 23 -28 10 -28 -8 0 -19 5 -23 11 -4 8 -9 7 -15 -2
-16 -25 -28 9 -17 48 11 39 -3 88 -28 97 -19 7 -28 -17 -16 -41 5 -10 7 -42 5
-71 l-6 -53 -46 7 c-25 4 -48 8 -50 10 -2 2 4 15 13 30 17 24 19 25 36 9 28
-25 33 -2 10 41 -15 26 -18 40 -11 47 18 18 13 48 -6 45 -15 -2 -19 6 -21 44
-3 53 -17 62 -32 22 -11 -27 -3 -101 11 -110 14 -8 10 -51 -5 -57 -8 -3 -23
-3 -35 0 -25 6 -41 -24 -20 -38 11 -7 9 -9 -8 -9 -30 0 -35 12 -27 70 6 42 9
48 18 34 7 -9 21 -15 32 -12 23 4 32 38 10 38 -23 0 -28 35 -11 76 8 20 13 39
10 42 -9 9 -29 -16 -42 -51 -11 -31 -12 -31 -12 -6 -1 15 -4 39 -7 55 -5 27
-3 29 26 30 30 1 49 16 50 38 0 4 -7 6 -15 2 -9 -3 -15 0 -15 9 0 15 50 78 57
71 2 -2 -3 -30 -11 -62 -14 -53 -14 -60 0 -74 14 -13 17 -12 35 9 14 18 17 27
8 37 -15 18 -3 68 22 90 20 18 20 18 10 -9 -19 -50 -21 -81 -6 -104 19 -28 41
-30 55 -4 14 28 12 44 -4 38 -17 -7 -30 22 -20 47 3 9 12 16 20 16 14 0 17 10
15 47 -3 34 15 36 29 3 7 -17 16 -30 21 -30 20 0 7 -20 -16 -26 -18 -4 -25
-13 -25 -29 0 -27 15 -41 25 -24 4 6 17 -4 31 -25 25 -37 51 -45 72 -24 14 14
16 48 3 48 -5 0 -11 -6 -14 -12 -3 -9 -10 -7 -21 7 -19 24 -20 35 -4 35 6 0 4
8 -6 19 -17 19 -17 19 3 14 11 -3 35 -27 52 -54 35 -56 63 -79 94 -79 23 0 85
63 85 86 0 17 -12 18 -26 4 -16 -16 -45 0 -43 24 4 39 -1 56 -15 56 -8 0 -17
7 -20 16 -4 11 2 10 24 -6 17 -12 30 -25 30 -30 0 -15 40 -32 58 -25 15 6 15
8 -2 20 -17 13 -17 15 -3 21 9 3 19 18 22 34 3 16 13 34 21 41 8 6 14 27 14
45 0 21 8 42 21 55 23 23 18 55 -6 45 -13 -5 -14 -2 -4 15 6 11 9 23 6 25 -8
8 -37 -8 -37 -21 0 -8 -4 -16 -9 -19 -4 -3 -6 5 -4 18 3 13 14 26 24 29 12 3
19 14 19 31 0 18 -4 24 -15 20 -9 -4 -16 3 -21 20 -3 14 -12 26 -20 26 -20 0
-17 19 11 77 13 28 27 64 30 80 4 15 10 37 15 48 5 11 18 70 31 131 l22 112
-22 46 c-17 34 -22 63 -22 118 0 65 -3 76 -26 100 -22 23 -26 36 -24 77 1 46
-1 52 -28 66 -17 8 -43 34 -59 58 -16 23 -39 51 -51 61 -28 26 -52 76 -49 103
6 44 -27 21 -45 -31 -5 -14 -66 16 -72 35 -6 18 -59 45 -108 54 -42 8 -47 18
-37 73 9 49 3 55 -11 12 -6 -16 -15 -30 -20 -30 -5 0 -9 -7 -9 -15 0 -8 -6
-15 -14 -15 -15 0 -30 45 -21 60 10 16 -12 11 -29 -6 -19 -18 -19 -20 -6 -45
15 -26 -3 -25 -35 3 -14 12 -25 32 -25 47 0 37 -21 11 -22 -28 -1 -17 -6 -30
-12 -29 -6 1 -22 -2 -35 -6 -19 -7 -28 -3 -46 20 -16 20 -24 24 -30 14 -5 -8
-2 -16 9 -22 21 -12 20 -32 -1 -54 -16 -15 -18 -15 -40 12 -13 16 -23 37 -23
47 0 10 -8 17 -20 17 -27 0 -25 -26 5 -66 14 -18 25 -35 25 -37 0 -2 -17 -7
-37 -11 -32 -5 -41 -2 -55 17 -13 17 -20 19 -29 10 -10 -10 -10 -18 -1 -38 15
-33 7 -48 -18 -35 -27 15 -32 13 -28 -13 1 -13 -5 -32 -15 -41 -10 -10 -15
-26 -13 -35 3 -9 1 -23 -4 -31 -9 -13 -12 -13 -24 2 -7 10 -15 16 -18 13 -2
-2 -27 4 -55 15 -28 10 -53 17 -56 14 -11 -11 6 -36 32 -48 l27 -11 -21 -41
-20 -42 -36 23 c-27 18 -41 37 -55 76 -14 39 -26 54 -47 61 -17 7 -29 20 -33
36 -4 15 -19 48 -35 75 -16 26 -29 51 -29 55 0 8 -111 125 -155 163 -17 14
-38 28 -47 32 -10 3 -18 13 -18 21 0 8 -10 16 -22 18 -34 5 -65 77 -77 181
-18 153 -79 248 -198 308 -77 38 -153 44 -197 15 -32 -20 -78 -98 -86 -145
l-6 -36 -28 43 c-30 48 -74 72 -133 72 -49 0 -83 -23 -83 -56 l0 -26 31 26
c20 17 42 26 65 26 36 0 94 -24 94 -38 0 -5 14 -24 30 -42 18 -20 30 -45 30
-62 0 -29 35 -74 45 -58 3 6 1 45 -6 88 -11 72 -10 80 10 120 27 53 80 82 151
82 38 0 50 -4 50 -15 0 -8 8 -15 18 -15 37 0 111 -74 153 -153 24 -46 32 -74
36 -135 2 -42 11 -94 19 -115 8 -20 14 -40 14 -42 0 -3 -20 10 -45 29 -24 19
-65 44 -90 57 -28 14 -61 43 -84 74 -22 29 -53 58 -70 65 -17 7 -32 18 -32 24
-3 26 -5 32 -16 51 -9 16 -14 17 -26 7 -18 -15 -42 -106 -33 -127 4 -12 -6
-15 -57 -15 -34 0 -84 -3 -112 -6 -48 -5 -51 -5 -70 28 -10 18 -19 42 -20 53
0 22 -24 30 -61 21 -23 -6 -24 -9 -24 -97 0 -90 0 -91 23 -85 12 4 68 17 124
28 90 19 113 21 185 12 226 -29 428 -176 591 -430 66 -104 82 -139 133 -286
50 -147 86 -274 109 -388 21 -99 49 -185 97 -295 33 -75 69 -176 146 -410 19
-55 29 -115 21 -115 -5 0 -12 12 -15 27 -8 31 -28 55 -38 46 -3 -4 -6 6 -6 22
0 16 -3 26 -6 22 -6 -6 -48 29 -50 41 0 4 -4 15 -8 24 -7 15 -12 14 -53 -8
-24 -14 -51 -23 -59 -20 -8 3 -14 -1 -14 -9 0 -8 -9 -15 -20 -15 -11 0 -20 -4
-20 -10 0 -5 -4 -10 -8 -10 -4 0 -8 8 -8 19 0 11 5 17 13 14 7 -3 13 -2 13 1
0 4 -12 11 -27 17 -25 9 -26 12 -10 20 9 6 17 18 17 27 0 12 3 14 8 4 6 -9 14
-4 30 18 12 16 22 34 22 40 0 5 4 10 9 10 16 0 21 30 8 50 -20 34 -23 33 -172
-82 -5 -4 -30 -24 -53 -43 -24 -19 -47 -35 -51 -35 -5 0 -24 -16 -44 -35 -21
-20 -37 -33 -37 -29 0 3 -9 -4 -21 -17 -12 -14 -19 -18 -16 -8 3 9 -1 16 -8
16 -7 0 -12 -8 -10 -18 2 -10 -3 -23 -11 -30 -11 -9 -18 -8 -34 6 -11 10 -23
15 -27 12 -3 -4 -1 -7 6 -7 7 0 10 -4 6 -10 -7 -12 -37 -1 -32 13 1 5 13 14
26 19 18 6 24 4 28 -12 3 -11 9 -20 15 -20 5 0 4 9 -2 20 -7 12 -7 20 -1 20 5
0 9 14 9 31 -1 24 -3 27 -10 15 -5 -9 -6 -21 -2 -28 4 -6 -9 1 -29 16 -40 30
-46 39 -22 30 10 -4 15 0 15 10 0 9 11 22 25 28 14 6 25 16 25 21 0 5 7 4 15
-3 8 -7 12 -16 9 -21 -3 -5 0 -9 5 -9 6 0 11 5 11 12 0 6 6 3 14 -7 14 -19 46
-29 46 -14 0 4 8 5 18 2 15 -6 15 -5 4 10 -13 15 -16 15 -29 1 -12 -12 -18
-13 -27 -3 -8 8 -8 13 2 16 6 3 12 10 12 16 0 8 -3 8 -12 -1 -9 -9 -14 -7 -25
6 -12 16 -13 16 -6 -2 4 -13 3 -17 -5 -12 -14 8 -16 46 -3 46 5 0 29 18 53 40
51 46 52 47 100 84 21 15 35 33 31 39 -3 6 -1 7 5 3 12 -7 45 9 74 36 10 10
25 18 33 18 17 0 50 64 40 79 -3 6 -13 11 -22 11 -14 0 -117 -70 -189 -130
-58 -47 -157 -115 -166 -113 -4 2 -7 -2 -5 -9 1 -6 -6 -14 -16 -16 -10 -2 -16
2 -15 8 2 7 -1 14 -7 16 -5 2 -11 -10 -11 -27 -1 -17 -7 -35 -15 -40 -16 -9
-28 -1 -13 9 6 4 14 16 18 27 4 11 4 16 0 13 -3 -4 -13 0 -21 8 -8 8 -18 12
-23 9 -16 -10 -20 29 -4 44 12 12 18 13 21 4 3 -7 9 -13 14 -13 6 0 7 6 3 13
-6 9 -4 9 7 -1 9 -8 10 -15 2 -23 -7 -7 -15 -5 -27 6 -9 9 -16 12 -16 7 0 -17
29 -34 42 -25 7 4 22 8 33 8 11 0 20 5 20 10 0 6 -5 9 -12 7 -7 -2 -13 3 -13
9 0 7 -3 10 -6 6 -3 -3 -12 0 -19 6 -10 10 -7 18 19 41 17 15 41 35 53 43 13
9 23 21 23 27 0 12 34 46 55 56 5 3 9 8 8 12 -2 5 0 7 5 6 4 -2 18 6 31 17 50
42 105 91 134 118 16 16 35 26 42 23 9 -3 12 2 10 14 -2 11 1 22 6 26 12 7 -8
34 -26 34 -17 0 -95 -51 -95 -62 0 -5 -4 -7 -9 -4 -5 3 -11 -1 -15 -9 -3 -8
-10 -15 -15 -15 -5 0 -25 -13 -43 -30 -18 -16 -36 -30 -41 -30 -5 0 -20 -14
-34 -30 -21 -26 -28 -29 -41 -18 -12 10 -14 10 -8 0 11 -19 -3 -35 -20 -21 -7
6 -12 15 -9 19 3 5 1 11 -5 15 -14 9 -13 -18 2 -33 18 -18 1 -27 -19 -11 -16
13 -17 12 -4 -4 8 -9 11 -21 7 -25 -4 -4 -14 1 -21 11 -10 13 -14 15 -18 5 -3
-7 -6 -2 -6 12 -1 19 -3 22 -11 10 -8 -12 -10 -12 -16 3 -3 9 -10 14 -15 11
-5 -3 -6 3 -2 12 4 11 8 13 11 6 2 -7 8 -12 13 -12 6 0 7 5 4 10 -9 15 2 12
31 -6 24 -16 24 -16 15 9 -5 14 -7 28 -4 31 4 3 -1 6 -11 6 -9 0 -14 -4 -11
-10 10 -16 -11 -12 -25 5 -10 12 -8 16 11 24 16 6 18 10 8 10 -18 1 -42 -22
-34 -31 3 -3 -1 -10 -9 -17 -11 -9 -14 -8 -12 6 0 10 9 24 19 31 9 7 15 17 12
22 -3 5 -1 11 5 15 5 3 10 1 10 -4 0 -6 4 -11 10 -11 5 0 9 3 7 8 -1 4 8 18
20 31 18 20 25 22 37 12 9 -7 14 -16 13 -19 -1 -4 1 -8 6 -10 18 -6 19 -1 2
18 -17 19 -17 21 19 54 33 31 40 34 38 15 -1 -4 9 -4 21 -1 19 5 19 7 4 10
-20 4 -18 23 3 30 7 3 10 0 7 -5 -3 -5 0 -10 8 -10 11 0 12 4 3 14 -6 7 -8 17
-4 20 4 4 12 1 17 -7 9 -13 10 -12 5 2 -5 18 30 50 72 62 12 4 22 12 22 17 0
5 7 9 16 9 10 0 14 6 10 15 -3 9 0 15 8 15 20 0 15 32 -6 38 -10 2 -16 8 -13
12 11 17 -68 -10 -100 -34 -18 -14 -39 -26 -45 -26 -6 0 -9 -4 -6 -9 4 -5 -2
-8 -11 -7 -19 3 -31 26 -14 26 6 0 11 4 11 9 0 6 -9 8 -20 6 -11 -2 -18 0 -15
4 7 13 -26 23 -39 12 -15 -12 -41 3 -32 18 4 6 12 11 17 11 6 0 8 -4 5 -9 -4
-5 3 -7 15 -4 19 5 20 7 4 15 -14 9 -12 14 22 36 21 15 42 26 46 24 4 -1 10 4
13 12 3 8 12 12 20 9 8 -3 14 0 14 7 0 6 5 8 10 5 6 -4 8 -11 5 -16 -9 -14 11
-11 24 4 8 10 7 17 -2 26 -10 11 -7 12 11 6 21 -6 23 -4 18 13 -4 11 -2 31 3
46 12 30 4 59 -13 49 -6 -4 -5 1 3 10 12 15 9 22 -31 60 -25 23 -48 52 -52 63
-3 12 -16 25 -28 31 -20 9 -20 9 -2 28 16 16 17 18 2 12 -11 -4 -19 0 -23 12
-7 24 -82 72 -100 65 -9 -4 -15 0 -15 9 0 8 -12 19 -27 24 -21 7 -27 16 -28
39 0 24 -7 32 -45 51 -32 15 -49 18 -58 11 -9 -8 -11 -7 -7 5 4 8 2 18 -4 22
-6 3 -11 1 -11 -4 0 -6 -5 -11 -12 -11 -6 0 -8 3 -5 6 3 4 -2 17 -12 30 -11
14 -17 33 -14 43 7 27 -12 34 -41 16 -17 -11 -26 -13 -31 -5 -5 8 -11 7 -23
-2 -13 -11 -14 -10 -4 8 10 18 9 23 -7 27 -11 2 -23 1 -28 -3 -4 -5 -14 -2
-21 6 -8 9 -9 14 -2 14 6 0 8 5 4 11 -4 7 -21 9 -48 5 -22 -4 -51 -9 -64 -11
-17 -2 -22 0 -18 11 4 9 -14 4 -51 -16 -53 -27 -59 -28 -80 -15 -26 17 -47 20
-38 5 4 -6 11 -7 17 -4 7 4 8 2 4 -5 -4 -6 -12 -9 -17 -6 -5 4 -8 -310 -7
-822 2 -654 6 -827 15 -826 7 2 22 -17 34 -42 12 -25 25 -45 31 -45 5 0 7 -4
3 -9 -3 -6 4 -19 16 -30 12 -11 18 -24 15 -29 -7 -11 18 -35 27 -26 3 3 8 -4
12 -15 3 -12 11 -19 16 -16 5 4 9 -1 9 -10 0 -11 5 -15 15 -11 9 3 15 1 14 -7
-4 -30 2 -47 16 -47 8 0 16 -4 16 -10 1 -5 2 -14 3 -18 1 -12 34 -43 43 -42 4
0 8 -4 8 -10 0 -5 8 -19 17 -30 10 -11 18 -25 18 -30 0 -13 38 -32 50 -25 5 3
12 0 16 -7 4 -7 4 -10 0 -6 -5 4 -14 1 -21 -5 -11 -10 -7 -18 18 -44 39 -39
52 -55 56 -68 4 -17 34 -45 47 -45 8 0 11 -6 7 -17 -5 -12 -2 -15 9 -11 10 4
15 1 14 -10 0 -9 9 -21 22 -27 12 -5 20 -16 17 -22 -4 -12 8 -18 29 -14 5 1 3
-5 -4 -14 -11 -14 -11 -16 1 -13 8 2 13 -3 11 -10 -1 -8 1 -11 6 -8 4 2 19
-13 33 -35 15 -24 40 -48 66 -60 24 -12 43 -23 43 -25 0 -3 -5 -2 -10 1 -6 3
-10 -1 -10 -10 0 -9 4 -14 9 -11 5 3 14 -1 21 -9 7 -8 9 -15 6 -15 -4 0 -1 -6
6 -14 7 -8 16 -12 20 -9 4 2 5 -4 1 -13 -5 -14 -3 -16 11 -11 10 4 15 3 11 -3
-3 -6 -1 -10 4 -10 6 0 11 -7 11 -16 0 -8 4 -13 9 -10 5 3 11 -3 14 -14 4 -16
11 -20 31 -16 16 3 25 0 23 -7 -1 -7 4 -11 11 -9 7 1 15 -11 18 -28 6 -29 34
-47 53 -35 5 3 12 1 15 -4 4 -5 14 -8 23 -7 9 2 25 -6 36 -17 11 -11 27 -17
38 -14 10 3 21 1 24 -4 3 -4 13 -6 23 -3 14 5 14 3 -2 -10 -15 -12 -17 -19 -8
-28 9 -9 16 -7 32 7 11 10 20 15 20 12 0 -4 11 -2 24 3 14 5 26 6 29 2 2 -4 3
-2 1 4 -3 13 15 34 29 34 5 0 4 -7 -3 -15 -7 -9 -8 -15 -2 -15 5 0 12 7 16 15
3 9 19 15 41 15 19 0 35 5 35 10 0 6 5 10 11 10 6 0 28 14 49 30 21 17 41 30
44 30 4 0 20 10 36 21 20 15 36 20 54 15 16 -4 37 -1 54 8 32 16 72 83 72 119
0 18 12 34 43 56 23 17 48 35 55 42 11 9 12 4 6 -28 -11 -63 -38 -125 -87
-201 -37 -58 -56 -76 -99 -98 -112 -57 -260 -91 -409 -95 -79 -2 -75 -3 -268
89 -39 19 -209 185 -346 337 -49 55 -175 192 -280 305 -105 113 -213 231 -240
264 -46 54 -70 63 -46 17 41 -75 777 -881 885 -968 39 -32 40 -33 114 -53 154
-41 194 -45 310 -28 174 27 367 102 367 144 0 12 11 23 30 29 58 19 113 97
134 190 12 50 3 191 -18 293 -7 36 -6 40 6 31 30 -25 288 -8 383 26 23 8 53
15 65 15 15 0 51 29 106 83 50 51 96 87 114 91 16 4 62 23 101 43 40 19 80 33
91 32 49 -7 199 16 298 46 112 34 362 93 425 100 19 2 103 11 185 19 83 8 161
18 175 21 14 4 45 11 70 17 25 6 61 19 80 28 19 10 60 23 90 30 56 13 257 86
275 100 6 5 60 36 120 70 148 83 261 157 408 265 67 50 136 100 153 110 17 11
63 41 102 68 39 26 77 47 85 47 8 0 35 16 58 36 l44 36 85 -4 c50 -3 99 -12
117 -21 42 -22 104 -97 101 -122 -1 -11 1 -25 4 -31 4 -6 8 -51 9 -100 2 -102
-10 -135 -66 -181 -47 -39 -198 -113 -230 -113 -14 0 -59 18 -99 40 -40 22
-84 40 -99 40 -25 0 -51 -18 -59 -40 -2 -7 -30 3 -67 22 -78 40 -144 43 -207
10 -37 -19 -154 -133 -154 -150 0 -4 15 -19 34 -34 19 -15 44 -48 56 -73 l22
-45 81 2 c45 0 67 3 48 5 l-33 4 63 62 64 62 85 -1 c71 -1 95 -6 147 -29 34
-16 59 -33 57 -40 -3 -6 4 -19 15 -29 15 -14 23 -15 38 -6 16 10 24 7 53 -20
34 -32 35 -32 118 -28 l83 4 44 50 c25 27 48 59 51 72 4 13 12 21 19 18 12 -4
25 18 40 72 4 12 11 20 16 17 16 -11 32 48 35 130 2 44 10 115 17 157 8 42 12
98 10 123 -3 32 -1 45 6 40 6 -3 11 -12 11 -18 0 -7 14 -41 30 -77 28 -62 29
-63 30 -30 0 19 -7 56 -17 82 -13 38 -14 51 -5 70 11 21 12 20 6 -12 -3 -24
-2 -31 4 -21 8 11 13 9 26 -12 9 -14 19 -40 22 -59 9 -52 -26 -217 -83 -392
-23 -71 -27 -77 -37 -57 -10 17 -14 19 -25 9 -11 -11 -12 -10 -6 2 6 11 4 11
-10 -2 -22 -21 -13 -73 11 -64 10 4 14 1 12 -6 -3 -7 -16 -15 -30 -18 -27 -5
-98 -89 -98 -115 0 -9 -20 -20 -52 -29 -99 -28 -144 -28 -247 0 -53 14 -103
30 -111 35 -8 5 -30 16 -48 25 -18 8 -30 19 -27 24 3 6 -5 15 -19 21 -14 7
-23 16 -20 20 3 5 -4 9 -15 9 -12 0 -21 -4 -21 -8 0 -4 -35 -14 -77 -21 -108
-18 -109 -19 -17 -20 68 -1 84 -4 99 -21 16 -18 16 -20 2 -20 -24 0 -21 -17 4
-23 19 -5 20 -11 17 -124 -2 -65 -7 -127 -12 -137 -7 -15 -6 -17 4 -11 7 4 74
7 149 6 87 -1 157 4 194 13 31 7 60 10 63 5 2 -4 11 -6 18 -3 8 3 17 1 20 -5
4 -6 -17 -23 -46 -38 l-53 -28 -222 2 c-123 2 -223 1 -223 -1 0 -2 16 -13 35
-25 20 -12 46 -41 62 -71 l28 -52 60 6 c67 6 244 59 365 110 171 73 339 214
408 344 66 125 106 345 107 597 0 200 -24 350 -64 397 -14 17 -57 67 -95 111
-66 75 -69 80 -51 93 10 8 23 14 28 14 22 0 188 113 177 120 -13 8 -6 15 105
85 38 25 74 45 81 45 21 0 66 43 80 77 8 18 20 33 28 33 7 0 21 9 31 20 10 11
24 20 30 20 7 0 15 6 18 14 8 20 125 76 158 76 15 0 40 -10 55 -23 26 -22 26
-25 14 -63 -9 -27 -35 -60 -88 -109 -204 -189 -226 -220 -197 -281 16 -34 16
-37 -1 -56 -20 -21 -173 -118 -229 -145 -34 -16 -40 -38 -7 -26 19 7 213 127
251 155 13 10 36 18 51 18 42 0 90 19 155 63 78 51 121 92 156 145 55 87 1 98
-102 21 -38 -28 -69 -55 -69 -59 0 -18 20 -20 59 -8 45 14 54 28 19 28 -21 0
-21 1 6 29 29 30 82 58 92 48 32 -32 -121 -178 -229 -219 -53 -20 -107 -17
-107 7 0 7 -7 18 -15 25 -8 7 -15 21 -15 33 0 23 150 175 195 197 17 8 44 25
62 36 27 18 143 67 206 88 10 3 16 10 12 16 -7 11 -119 -29 -174 -61 -18 -11
-35 -18 -37 -17 -2 2 9 27 23 56 22 44 24 57 15 78 -24 51 -110 56 -201 9 -27
-13 -52 -29 -56 -35 -3 -5 -10 -10 -15 -10 -17 0 12 59 46 97 41 45 53 93 30
127 -14 22 -14 28 -1 53 18 34 19 72 3 110 -7 15 -12 58 -12 94 -1 55 -5 71
-27 100 -25 32 -26 38 -17 90 12 72 -1 121 -46 174 -19 22 -37 38 -40 34 -3
-3 10 -36 29 -75 36 -73 44 -129 24 -180 -9 -24 -6 -34 20 -71 33 -47 39 -81
19 -113 -11 -17 -9 -27 10 -60 28 -49 29 -86 2 -100 -27 -15 -25 -38 5 -52 17
-7 25 -19 25 -36 0 -32 -36 -89 -60 -97 -12 -4 -20 -15 -20 -28 0 -12 -9 -41
-20 -64 -18 -40 -22 -43 -58 -43 -21 0 -43 5 -49 11 -7 7 -13 7 -17 0 -4 -5 5
-21 20 -34 19 -18 24 -30 19 -46 -9 -30 -61 -54 -104 -48 -68 9 -108 -15 -76
-46 14 -15 14 -17 -4 -27 -27 -14 -28 -13 -35 16 -5 17 -12 24 -24 22 -13 -2
-17 -14 -18 -47 0 -30 -6 -48 -19 -57 -25 -18 -35 -9 -35 32 0 24 -4 34 -16
34 -13 0 -15 -9 -12 -45 3 -49 -2 -53 -45 -32 -16 7 -25 18 -23 27 16 56 17
82 6 78 -7 -2 -20 -33 -29 -69 -18 -71 -12 -68 -103 -48 -26 6 -58 22 -73 36
-22 23 -29 25 -51 15 -29 -14 -83 -15 -102 -4 -19 12 -12 74 11 100 24 26 12
30 -16 5 -18 -17 -19 -17 -28 0 -6 9 -17 17 -26 17 -13 0 -13 -3 2 -27 17 -25
17 -27 -1 -40 -21 -15 -54 -17 -54 -3 0 6 8 23 17 38 l17 27 -27 -24 c-22 -20
-29 -22 -42 -11 -20 17 -19 36 5 60 24 24 13 26 -18 4 -22 -15 -23 -15 -39 25
-16 41 -33 54 -33 26 0 -8 -6 -15 -14 -15 -17 0 -41 -28 -32 -37 4 -4 10 -3
14 3 17 26 39 21 57 -12 20 -38 15 -48 -27 -58 -37 -9 -68 22 -68 67 0 44 -24
64 -87 76 -27 6 -69 18 -92 27 -36 14 -44 15 -52 3 -21 -33 5 -50 88 -56 92
-7 113 -21 113 -77 0 -47 22 -76 57 -76 18 0 20 -7 22 -65 1 -38 -2 -65 -8
-65 -15 0 -20 12 -22 63 -2 37 -6 47 -20 47 -23 0 -27 -14 -19 -67 9 -56 -9
-52 -28 6 -19 56 -38 48 -35 -15 l2 -49 -34 0 c-18 0 -37 3 -40 7 -4 4 -17 3
-30 -2 -13 -5 -26 -6 -29 -2 -11 10 -36 11 -36 1 0 -5 5 -9 10 -9 6 0 8 -15 4
-39 -6 -35 -4 -39 19 -45 14 -3 33 -14 43 -24 23 -22 210 -33 264 -15 107 36
135 42 142 30 14 -21 -51 -66 -115 -79 -32 -7 -66 -20 -77 -30 -12 -11 -39
-19 -72 -21 -29 -3 -61 -7 -70 -11 -27 -12 -52 -3 -65 25 -7 15 -20 32 -28 39
-23 19 -30 -13 -10 -43 15 -23 15 -25 -5 -30 -11 -3 -20 -1 -20 4 0 5 -5 9
-11 9 -6 0 -9 -6 -6 -13 4 -12 -7 -16 -45 -17 -7 0 -39 3 -71 6 -47 5 -61 3
-77 -11 -19 -18 -20 -17 -20 8 0 22 -5 27 -24 27 -14 0 -28 5 -31 10 -3 6 -14
10 -23 10 -15 -1 -15 -2 2 -15 11 -8 28 -15 39 -15 10 0 16 -4 13 -9 -9 -15 5
-41 21 -41 10 0 14 -7 10 -20 -3 -11 0 -21 6 -21 40 -5 55 -8 77 -17 16 -6 46
-7 79 -1 55 8 76 5 66 -11 -3 -5 7 -10 22 -12 39 -4 33 -22 -10 -29 -19 -3
-46 -13 -59 -21 -35 -23 -150 -34 -189 -18 -22 9 -36 10 -52 2 -12 -5 -31 -13
-41 -16 -16 -6 -17 -4 -6 9 19 23 6 28 -29 10 -17 -8 -31 -12 -31 -8 0 4 -7
-2 -15 -13 -15 -18 -16 -17 -10 13 6 27 4 32 -9 27 -9 -3 -16 -14 -16 -23 -1
-9 -7 -33 -14 -53 -8 -21 -10 -35 -6 -33 5 3 11 -1 14 -7 4 -7 4 -3 2 9 -3 15
2 24 15 28 20 7 59 -10 59 -25 0 -6 4 -10 10 -10 5 0 7 8 3 18 -6 16 -5 16 13
0 10 -9 32 -22 48 -28 49 -18 16 -31 -93 -37 -77 -5 -101 -9 -101 -20 0 -7 10
-18 23 -22 20 -8 20 -10 4 -16 -13 -6 -17 -14 -13 -30 5 -21 2 -23 -67 -30
-83 -8 -149 -7 -157 3 -18 24 -52 33 -85 21 -19 -7 -32 -16 -29 -21 3 -5 10
-6 15 -3 5 4 9 -4 9 -15 0 -16 5 -20 15 -16 12 4 10 -4 -6 -37 -20 -38 -105
-157 -114 -157 -1 0 -12 16 -24 36 l-21 35 31 46 c23 33 28 48 20 56 -8 8 -20
1 -45 -26 -38 -42 -50 -47 -41 -17 4 14 2 20 -7 18 -18 -4 -31 -37 -29 -73 1
-22 -8 -40 -34 -67 -19 -21 -37 -38 -39 -38 -2 0 -3 16 -2 36 2 54 -27 68 -60
30 -14 -15 -27 -26 -30 -24 -5 5 -20 91 -27 154 -4 38 -3 42 18 42 26 0 85 37
85 54 0 6 -9 8 -20 5 -11 -3 -23 -1 -26 5 -4 6 -22 17 -41 25 -24 10 -33 19
-29 29 3 9 2 24 -4 34 -8 16 -6 18 20 16 18 -1 29 2 27 8 -5 14 -48 16 -64 3
-9 -7 -13 -5 -13 7 0 10 11 19 30 23 17 3 39 17 50 31 23 28 26 47 8 36 -7 -4
-9 -3 -5 1 9 11 38 16 49 9 4 -3 2 -11 -5 -18 -6 -8 -16 -12 -21 -9 -4 3 -5
-4 -2 -16 3 -11 8 -29 11 -40 4 -11 0 -21 -10 -25 -24 -9 -18 -26 10 -26 25 0
65 31 65 50 0 6 3 10 8 10 4 0 7 -34 8 -76 0 -54 4 -78 14 -84 24 -15 49 17
52 67 3 40 7 46 36 59 31 13 34 12 63 -19 l31 -32 19 27 c14 19 25 25 41 20
13 -3 19 -1 15 6 -4 5 -4 18 0 28 6 16 7 16 14 -2 7 -18 8 -18 8 -1 1 11 10
30 21 44 28 36 30 163 3 163 -16 1 -16 2 -3 13 18 14 80 104 80 116 0 5 6 14
14 20 22 18 24 56 6 79 -17 20 -17 20 -49 1 -17 -10 -31 -25 -31 -34 0 -8 -11
-17 -25 -21 -14 -3 -25 -11 -25 -18 0 -17 -196 -206 -214 -206 -9 0 -16 -4
-16 -10 0 -5 -9 -10 -21 -10 -15 0 -19 4 -15 16 3 9 6 19 6 24 0 5 28 39 63
77 34 37 80 93 102 123 83 117 147 200 176 231 43 46 89 115 89 133 0 23 -17
28 -43 11 -13 -8 -27 -12 -31 -8 -4 4 -4 1 -1 -8 4 -10 -1 -15 -15 -15 -11 0
-20 3 -20 7 0 15 32 39 43 33 7 -3 4 1 -5 9 -10 8 -18 25 -18 38 0 20 2 21 11
9 8 -12 9 -11 4 6 -3 14 6 42 28 80 18 33 36 67 40 77 3 9 15 17 25 17 14 0
18 -7 17 -27 -4 -52 -17 -138 -26 -160 -5 -13 -4 -25 1 -28 6 -4 10 -30 10
-60 0 -34 5 -59 15 -69 8 -8 15 -21 15 -28 0 -10 3 -9 10 2 7 11 10 11 10 2 0
-7 -7 -24 -16 -37 -9 -14 -13 -33 -9 -44 6 -21 38 -36 55 -26 5 3 10 2 10 -3
0 -5 -10 -12 -22 -15 -16 -5 -19 -9 -10 -19 10 -13 12 -18 12 -38 0 -5 13 -7
29 -4 20 4 30 2 34 -10 11 -27 54 -18 93 19 19 19 38 35 40 35 3 0 19 13 36
29 22 21 32 39 34 67 1 22 3 41 3 44 1 2 6 -1 13 -8 16 -16 37 -15 34 1 -1 7
-11 26 -22 42 -12 17 -29 53 -38 80 -10 28 -22 57 -26 66 -5 9 -6 26 -3 38 4
15 1 21 -11 21 -10 0 -13 5 -9 16 3 9 0 20 -7 24 -12 7 -24 107 -24 200 0 47
8 170 12 170 1 0 15 -12 31 -28 27 -25 30 -35 36 -119 5 -56 11 -90 17 -87 6
4 5 -3 -1 -15 -7 -12 -10 -25 -7 -29 3 -5 6 -41 7 -80 1 -40 6 -75 11 -78 4
-3 8 -14 8 -25 0 -11 4 -18 9 -15 9 6 26 -22 22 -38 -1 -4 1 -16 4 -27 5 -15
11 -16 31 -9 14 6 24 6 24 0 0 -4 -8 -11 -17 -13 -13 -3 -11 -5 7 -7 14 -1 29
-2 33 -1 5 1 11 -8 14 -19 4 -13 14 -20 30 -20 13 0 22 -4 19 -9 -6 -10 85
-61 109 -61 20 0 31 46 15 65 -7 8 -17 15 -22 15 -5 0 -24 16 -44 35 -19 19
-41 35 -49 35 -10 0 -13 11 -10 41 3 23 0 49 -5 59 -8 15 -6 17 10 13 21 -6
27 6 10 23 -11 11 -18 44 -20 99 l-2 40 -12 -28 c-15 -33 -33 -47 -53 -40 -15
6 -18 33 -3 33 6 0 10 5 10 11 0 8 -5 7 -16 -1 -12 -11 -18 -10 -31 3 -15 15
-14 17 17 30 33 14 33 15 11 27 -13 6 -33 9 -46 6 -23 -6 -41 16 -29 35 3 5 1
9 -5 9 -12 0 -31 64 -31 106 0 17 -7 37 -16 45 -40 33 -55 85 -52 192 1 56 0
118 -1 139 -2 25 4 45 19 66 21 28 22 33 9 81 -11 44 -11 58 3 99 9 26 16 68
15 93 -1 99 75 227 129 216 16 -3 24 0 24 9 0 8 -9 14 -19 14 -11 0 -22 4 -25
9 -8 13 83 91 105 91 11 0 26 15 38 38 27 53 58 78 120 96 30 9 62 25 72 35
23 24 90 36 119 21 19 -10 26 -8 49 13 48 45 70 52 95 28 28 -26 40 -26 76 0
31 23 79 21 115 -5 17 -12 16 -15 -21 -54 -21 -23 -43 -42 -47 -42 -5 0 -20
-15 -35 -32 -15 -18 -52 -59 -82 -92 l-55 -58 -7 53 c-4 39 -12 57 -30 70 -14
11 -24 14 -27 7 -2 -6 1 -13 6 -17 33 -21 34 -138 2 -167 -17 -15 -19 -15 -25
0 -11 29 -27 18 -20 -16 4 -22 1 -37 -10 -50 -18 -19 -40 -25 -29 -8 8 13 -5
60 -17 60 -7 0 -9 -22 -5 -58 5 -59 -4 -92 -26 -92 -8 0 -12 17 -12 45 0 29
-7 51 -18 62 -34 34 -33 6 3 -111 8 -24 5 -37 -18 -72 -32 -51 -38 -53 -37
-17 0 33 -25 44 -26 11 0 -19 -3 -16 -13 12 -7 19 -17 33 -22 30 -10 -5 -10
-22 1 -87 6 -33 3 -52 -14 -87 l-21 -46 -35 17 c-26 12 -38 14 -46 6 -16 -16
-4 -30 34 -38 40 -9 57 -22 57 -46 0 -21 -11 -24 -27 -8 -14 14 -47 4 -38 -11
3 -5 15 -10 26 -10 28 0 28 -66 -1 -75 -26 -8 -26 -25 0 -25 17 0 19 -5 14
-25 -4 -15 -2 -25 5 -25 6 0 11 9 11 21 0 11 5 17 10 14 6 -3 10 -24 10 -46 0
-29 9 -53 31 -85 17 -25 33 -60 36 -80 4 -24 17 -43 45 -65 21 -17 46 -45 54
-61 8 -16 30 -36 49 -44 18 -7 37 -19 40 -25 4 -6 17 -8 30 -5 36 9 81 -12
107 -50 23 -34 42 -43 53 -25 7 12 51 0 95 -28 19 -11 42 -21 51 -21 18 0 34
-66 23 -94 -3 -9 -3 -16 0 -16 15 0 26 54 17 86 -9 31 -8 33 9 24 37 -20 52
-42 45 -69 -6 -25 -5 -25 11 -9 16 16 17 22 5 54 -13 35 -12 38 10 55 27 21
39 24 39 10 0 -5 16 -15 35 -21 25 -8 40 -22 50 -43 l13 -32 1 32 c1 45 -8 63
-38 74 -20 8 -22 12 -11 19 20 13 57 12 81 -1 16 -8 26 -7 45 6 25 16 44 13
44 -8 0 -7 11 -13 25 -13 24 -2 36 -11 65 -49 14 -19 14 -19 -3 -6 -20 16 -37
7 -19 -11 19 -19 14 -33 -6 -15 -20 19 -62 23 -62 7 0 -6 8 -13 18 -16 9 -3
25 -10 35 -15 10 -5 22 -7 27 -4 4 3 11 -8 15 -25 7 -30 25 -42 25 -16 0 8 7
17 16 20 23 9 24 8 24 -16 0 -15 3 -19 10 -12 21 21 -26 114 -57 114 -7 0 -13
4 -13 8 0 5 -14 23 -31 40 -35 36 -34 39 7 17 16 -8 37 -12 46 -9 22 7 57 -29
65 -66 3 -16 9 -28 13 -25 4 3 4 22 0 42 -8 35 -8 36 6 18 8 -11 29 -48 46
-82 34 -69 52 -90 63 -73 3 5 -1 13 -9 16 -9 3 -16 15 -16 25 0 10 -8 27 -19
38 -10 10 -26 39 -36 65 -19 50 -30 61 -59 61 -32 0 -30 25 3 38 17 6 31 14
31 18 0 8 -37 19 -66 19 -21 0 -38 -29 -35 -57 1 -7 -3 -13 -9 -13 -5 0 -10 6
-10 14 0 11 -7 13 -29 6 -30 -8 -101 8 -101 24 0 5 21 6 48 4 37 -4 51 0 67
15 33 32 95 58 142 62 63 4 85 -3 78 -26 -4 -12 1 -22 16 -30 19 -10 21 -9 16
5 -9 23 9 20 33 -6 15 -16 20 -18 20 -6 0 19 -32 48 -53 48 -9 0 -17 6 -17 14
0 16 -21 26 -58 26 -34 1 -67 20 -67 40 0 10 -12 16 -37 18 -51 4 -48 17 10
38 26 10 50 23 55 30 4 7 25 15 47 19 23 4 37 11 34 17 -6 10 -36 7 -82 -7
-18 -6 -21 -4 -16 8 3 9 24 18 55 22 57 8 67 28 12 23 -55 -4 -52 15 4 29 l48
13 -48 -5 c-27 -3 -62 -14 -79 -26 -27 -19 -31 -20 -45 -6 -8 8 -12 20 -9 26
9 15 36 14 36 -1 0 -6 7 -4 18 5 10 10 24 17 31 17 7 0 9 5 6 11 -4 6 -13 8
-21 5 -8 -3 -14 -1 -14 4 0 6 -9 10 -20 10 -13 0 -18 5 -14 15 11 28 -48 18
-88 -15 -36 -29 -37 -30 -48 -11 -10 19 3 41 17 27 3 -3 15 6 25 20 14 18 28
24 46 22 20 -2 28 2 30 16 4 16 0 18 -35 12 -35 -6 -37 -5 -19 9 11 8 34 15
50 15 l31 1 -24 19 c-30 25 -58 26 -66 1 -3 -11 -13 -25 -21 -32 -13 -11 -14
-9 -9 13 5 19 2 29 -12 37 -17 10 -16 13 11 37 16 14 35 23 43 20 8 -3 11 -2
8 4 -7 12 35 34 108 55 48 14 64 15 88 5 23 -10 32 -10 44 0 12 10 20 7 46
-21 17 -18 39 -50 50 -71 29 -57 127 -150 184 -175 201 -87 365 -106 504 -56
42 14 97 40 124 56 56 34 140 145 135 178 -2 18 -9 13 -37 -30 -59 -93 -100
-121 -231 -161 -59 -18 -96 -23 -172 -22 -112 2 -194 28 -287 89 -55 37 -55
37 -27 44 15 4 34 13 42 20 8 7 14 7 14 1 0 -17 57 -72 74 -72 9 0 16 5 16 10
0 6 9 10 20 10 10 0 24 9 30 20 11 21 39 26 55 11 19 -18 207 -53 233 -43 6 2
12 8 12 12 0 5 15 4 32 -1 42 -12 58 -11 58 1 0 5 -20 15 -45 21 -25 6 -45 16
-45 21 0 6 6 8 14 5 11 -4 13 1 10 21 -3 21 -2 24 6 12 9 -13 12 -13 24 3 7 9
17 17 21 17 4 0 2 -6 -4 -14 -9 -10 -8 -15 3 -19 17 -7 26 1 26 24 0 17 3 17
45 4 40 -12 46 -11 55 3 5 10 10 13 10 8 0 -6 6 -1 14 10 16 21 5 44 -20 44
-8 0 -14 5 -14 11 0 5 -4 8 -9 4 -5 -3 -13 0 -17 6 -4 8 -3 9 4 5 8 -4 12 0
12 11 0 15 2 14 16 -5 16 -23 34 -29 34 -12 0 5 -3 9 -7 9 -20 -3 -24 2 -13
16 14 17 35 20 24 4 -4 -7 -1 -10 7 -7 11 4 15 42 17 186 l2 181 -27 -5 c-18
-3 -23 -1 -15 4 11 8 11 10 -2 15 -9 4 -16 1 -16 -6 0 -8 -4 -6 -10 3 -7 11
-10 11 -10 2 0 -7 -5 -10 -10 -7 -6 4 -8 12 -4 18 3 7 -1 4 -8 -5 -13 -15 -15
-15 -26 3 -11 17 -9 19 16 19 16 0 32 -3 36 -7 7 -7 18 -11 51 -15 17 -3 20 4
23 38 3 38 0 42 -27 54 -17 7 -31 17 -31 22 0 5 -5 6 -11 3 -11 -8 -40 25 -33
37 3 5 0 8 -5 8 -14 0 -14 -13 1 -28 8 -8 9 -12 1 -12 -23 0 -43 12 -43 26 0
8 -7 14 -16 14 -8 0 -12 -4 -9 -10 3 -5 -1 -10 -10 -10 -12 0 -14 4 -5 19 7
14 7 22 -2 27 -7 4 -8 3 -4 -4 5 -9 -21 -32 -37 -32 -12 0 -13 50 -1 54 8 3
14 0 14 -7 0 -8 3 -7 9 2 7 12 13 12 24 3 7 -7 17 -9 20 -5 4 3 7 -1 7 -10 0
-9 4 -17 9 -17 5 0 12 -8 15 -17 3 -10 4 -6 2 10 -3 26 7 36 19 18 3 -6 14 -8
25 -6 12 2 20 -2 20 -10 0 -7 7 -15 15 -19 9 -3 12 -12 8 -23 -3 -10 -3 -15 1
-12 10 9 16 50 6 44 -5 -3 -11 -1 -14 4 -4 5 2 8 11 7 9 -2 19 -8 21 -14 10
-31 22 -6 22 46 0 47 -4 60 -20 70 -12 7 -25 10 -30 7 -12 -8 -61 16 -54 27 3
5 11 8 17 7 30 -4 58 2 52 10 -3 6 4 8 15 6 18 -4 20 1 20 62 0 52 -3 64 -14
60 -8 -3 -22 3 -32 14 -13 15 -19 16 -25 7 -4 -7 -11 -9 -15 -5 -9 9 -2 17 22
21 35 8 70 25 52 25 -22 1 -24 21 -3 21 12 0 15 13 15 56 0 56 -14 84 -38 76
-6 -2 -12 1 -12 8 0 6 4 9 8 6 4 -2 14 -1 22 5 11 6 12 9 2 9 -7 0 -10 5 -7
10 13 21 -11 9 -29 -15 -15 -20 -25 -24 -50 -19 -17 3 -44 7 -60 9 -50 7 -66
16 -66 36 0 23 -17 24 -44 4 -25 -19 -43 -19 -43 0 0 11 4 12 13 4 16 -13 26
2 13 21 -12 20 -11 30 2 30 5 0 7 -4 4 -10 -3 -5 -1 -10 5 -10 6 0 8 -6 4 -12
-5 -10 -4 -10 6 -1 7 6 19 9 26 6 8 -3 14 1 14 9 0 19 28 19 35 0 8 -21 -4
-30 -15 -12 -8 12 -10 11 -10 -5 0 -13 12 -27 33 -39 17 -9 24 -11 14 -3 -22
18 -22 22 3 24 11 1 18 -2 15 -7 -6 -10 23 -22 36 -14 5 3 9 0 9 -7 0 -7 3 -9
7 -6 3 4 12 2 20 -4 10 -9 13 -7 13 10 0 12 4 19 10 16 5 -3 7 0 4 9 -3 8 -12
12 -19 10 -7 -3 -15 -1 -19 4 -6 10 24 9 42 -2 7 -4 16 -5 19 -2 3 3 12 -2 19
-12 11 -14 13 0 14 97 0 108 -1 113 -20 108 -10 -3 -27 1 -37 8 -16 12 -13 13
20 10 40 -4 48 9 20 31 -17 13 -17 14 0 8 16 -6 17 22 17 485 l0 491 -284 0
c-285 0 -344 -6 -333 -34 3 -8 0 -17 -7 -19 -17 -7 -89 -107 -76 -107 6 0 10
-4 10 -10 0 -5 -6 -10 -14 -10 -7 0 -20 -7 -27 -16 -11 -14 -11 -18 4 -28 12
-10 15 -23 12 -50 -6 -46 -23 -79 -36 -71 -5 4 -7 11 -4 16 4 5 1 9 -4 9 -6 0
-11 -22 -11 -51 l0 -50 -26 20 c-28 22 -64 81 -64 105 0 21 84 185 125 241
l35 50 -32 3 c-24 3 -37 -2 -51 -19 -9 -12 -20 -19 -24 -16 -3 4 0 13 7 22 10
13 9 15 -9 15 -16 0 -21 -6 -21 -25 0 -14 -10 -45 -22 -68 -12 -23 -25 -58
-29 -77 -4 -19 -19 -66 -33 -105 -38 -100 -66 -237 -66 -324 0 -48 -5 -80 -13
-90 -15 -17 -37 -150 -37 -219 0 -24 7 -57 16 -73 37 -73 25 -208 -25 -280
-13 -19 -66 -66 -116 -103 -70 -52 -124 -81 -231 -125 -76 -32 -161 -69 -189
-83 -27 -14 -61 -29 -75 -33 -14 -4 -36 -16 -49 -26 -23 -18 -24 -18 -50 0
-58 41 -149 47 -158 10 -7 -25 -11 -24 -39 6 -30 33 -44 32 -94 -10 -36 -30
-44 -33 -67 -24 -34 13 -112 -5 -140 -31 -33 -30 -60 -34 -73 -10 -10 18 -8
26 11 46 35 37 104 74 139 74 27 0 29 -2 21 -19 -13 -23 -3 -35 16 -20 21 18
15 48 -13 61 -23 11 -33 8 -82 -17 -75 -39 -132 -97 -132 -133 0 -19 -10 -35
-34 -54 -19 -16 -37 -41 -41 -58 -4 -16 -10 -30 -14 -30 -20 0 -94 -78 -137
-143 -43 -65 -48 -69 -60 -52 -8 10 -14 21 -14 24 -1 3 -31 26 -67 51 -37 25
-82 61 -101 80 -46 47 -167 208 -195 258 -95 174 -172 261 -279 317 -31 16
-55 32 -52 36 10 16 139 39 254 44 164 7 289 38 329 82 15 17 37 34 48 37 20
7 88 88 112 133 6 12 11 42 11 67 0 35 4 46 15 46 49 0 155 93 197 172 45 86
23 247 -42 302 -28 23 -29 26 -23 92 4 61 2 73 -18 104 -13 19 -30 47 -37 61
-30 58 -201 123 -322 123 -65 -1 -88 -6 -175 -43 -55 -23 -112 -50 -127 -61
l-26 -19 -16 24 c-32 49 -131 48 -229 -1 -42 -22 -167 -122 -167 -134 0 -18
30 -10 42 11 25 40 129 109 198 130 62 19 71 19 104 5 21 -9 40 -25 46 -41 11
-29 22 -32 41 -9 27 33 181 100 266 115 53 10 55 10 214 -32 48 -12 121 -69
158 -122 39 -57 47 -103 27 -151 l-16 -37 39 -37 c71 -67 90 -189 45 -280 -38
-76 -100 -126 -182 -148 -37 -9 -69 -19 -71 -21 -3 -2 5 -10 17 -19 43 -30 23
-111 -47 -182 -33 -34 -47 -42 -64 -36 -37 11 -41 10 -43 -13 -2 -38 -13 -53
-37 -53 -14 0 -42 -6 -63 -14 -22 -7 -61 -16 -89 -20 l-50 -7 38 23 c63 37 41
40 -26 3 -86 -48 -102 -44 -34 8 31 23 57 46 57 51 0 6 -12 -2 -27 -16 -56
-51 -93 -61 -93 -23 0 23 -2 23 -40 -15 -24 -23 -50 -40 -63 -39 l-22 0 21 9
c27 11 40 30 21 30 -21 0 -15 36 8 55 19 16 19 16 -3 5 -12 -6 -26 -9 -30 -6
-17 10 -119 -28 -164 -61 -113 -82 -214 -229 -238 -345 -13 -65 -5 -125 36
-266 44 -152 108 -241 214 -301 30 -17 124 -40 165 -41 17 0 43 -7 59 -15 15
-8 32 -12 37 -9 13 8 40 -16 33 -28 -3 -5 -13 -6 -23 -3 -10 3 -49 6 -87 6
-105 1 -232 26 -294 58 -30 16 -66 32 -80 36 -47 14 -148 90 -178 135 -38 56
-52 117 -28 126 19 7 21 24 3 24 -17 0 -77 74 -77 94 0 9 -5 16 -11 16 -7 0
-9 23 -5 69 4 59 12 82 55 158 27 48 65 104 85 124 20 20 36 38 36 41 0 10 51
68 138 158 101 106 109 131 11 35 -139 -136 -252 -277 -299 -374 -35 -69 -50
-90 -66 -91 -17 0 -23 11 -38 68 -10 38 -16 84 -14 103 3 32 6 34 43 39 49 6
83 28 131 86 32 40 35 47 22 62 -27 31 -27 49 -1 81 14 17 31 31 38 31 20 0
168 50 182 62 21 17 16 89 -8 114 -27 29 -19 59 13 51 35 -9 85 28 108 80 26
59 25 82 -3 124 -40 59 -67 110 -67 123 0 14 60 137 82 168 10 14 10 21 -4 34
-15 15 -17 15 -35 -4 -10 -12 -38 -61 -63 -109 -46 -88 -46 -88 -88 -91 -51
-4 -52 5 -12 65 17 25 30 57 30 74 0 42 -26 94 -61 123 -35 30 -36 33 -3 61
38 33 34 72 -16 154 -39 66 -60 86 -60 60 0 -6 16 -37 35 -69 51 -85 54 -111
15 -143 -25 -21 -42 -27 -81 -27 -55 0 -107 -23 -153 -66 -26 -25 -28 -31 -23
-80 5 -53 40 -129 61 -137 6 -2 26 0 44 5 39 11 72 58 72 106 0 38 -15 47 -61
34 -27 -6 -34 -13 -34 -32 0 -16 7 -26 19 -28 15 -3 17 0 12 14 -7 18 8 34 32
34 22 0 13 -55 -13 -80 -39 -37 -75 -20 -99 48 -18 50 -18 56 -3 86 17 36 84
76 128 76 38 0 122 -48 147 -84 29 -43 28 -72 -9 -126 -39 -57 -36 -91 8 -104
49 -14 74 10 128 119 26 53 49 94 52 91 3 -3 -13 -42 -36 -88 l-41 -83 30 -60
c16 -33 39 -75 50 -94 18 -28 19 -38 10 -65 -16 -50 -63 -90 -95 -82 -16 4
-33 2 -41 -5 -20 -16 -17 -62 5 -90 25 -33 30 -51 20 -71 -10 -19 -113 -52
-140 -45 -10 3 -38 -8 -63 -23 -24 -16 -46 -26 -49 -24 -10 10 6 42 23 47 10
2 26 17 36 32 15 22 16 32 6 59 -18 49 -14 65 8 36 21 -26 27 -12 10 21 -21
39 -60 18 -60 -32 0 -10 -5 -19 -11 -19 -8 0 -10 14 -6 45 4 24 3 47 -2 50 -5
3 -14 28 -21 55 -13 55 -82 165 -136 217 -23 23 -34 42 -34 62 0 16 -6 36 -14
43 -23 23 -258 135 -308 147 -52 12 -71 8 -155 -36 -84 -44 -61 -53 25 -11 75
38 78 39 129 27 62 -14 235 -98 241 -116 6 -21 -27 -15 -132 22 -106 38 -174
44 -216 20 -14 -8 -35 -14 -46 -15 -12 0 -27 -7 -34 -15 -17 -21 2 -20 80 5
80 26 100 25 185 -4 39 -14 83 -27 98 -31 15 -3 30 -13 33 -23 3 -9 10 -25 16
-36 11 -21 -10 -42 -26 -26 -6 6 -20 10 -32 10 -12 0 -24 5 -26 11 -5 16 -142
23 -168 9 -20 -10 -27 -8 -59 24 -41 40 -52 43 -72 20 -12 -15 -11 -16 8 -10
18 6 28 -2 60 -43 35 -46 63 -64 63 -41 0 17 42 32 75 26 26 -5 32 -11 28 -25
-3 -13 -11 -17 -29 -13 -13 2 -24 0 -24 -6 0 -5 15 -13 34 -16 19 -4 37 -13
40 -22 3 -8 10 -12 16 -9 6 4 8 11 5 16 -4 5 5 9 20 9 14 0 28 -6 31 -14 3 -8
14 -16 26 -19 12 -4 18 -12 16 -24 -3 -15 -12 -18 -68 -16 -84 4 -210 -21
-254 -50 -19 -12 -54 -33 -77 -47 -48 -28 -109 -84 -109 -99 0 -6 -8 -8 -17
-5 -15 5 -15 4 -3 -5 12 -8 12 -11 -3 -17 -9 -3 -14 -10 -11 -15 3 -5 0 -9 -5
-9 -6 0 -10 -6 -8 -12 1 -7 -4 -12 -11 -10 -8 1 -11 -1 -8 -6 3 -5 -3 -15 -13
-24 -10 -9 -21 -22 -24 -29 -4 -11 -8 -11 -22 2 -21 20 -12 67 10 49 9 -8 14
-2 18 26 4 20 17 48 29 61 22 23 22 25 5 37 -16 12 -13 17 30 54 27 23 58 51
71 62 12 11 27 20 32 20 6 0 10 9 10 19 0 11 10 27 21 35 18 12 22 26 23 83
l2 68 -14 -45 c-7 -25 -14 -49 -16 -55 -1 -5 -22 -30 -47 -55 -24 -25 -70 -75
-103 -110 -32 -36 -55 -58 -51 -50 5 8 -2 5 -14 -7 -31 -33 -39 -29 -43 23 -3
44 -1 48 33 71 37 24 41 31 78 123 13 30 25 61 28 68 3 7 -2 12 -11 12 -9 0
-16 1 -16 3 0 1 15 34 34 72 22 45 48 81 72 101 45 35 59 41 130 58 57 14 132
1 189 -32 35 -21 65 -33 65 -27 0 7 -110 61 -154 75 -31 10 -50 10 -95 0 -84
-19 -117 -40 -217 -137 -80 -78 -143 -162 -225 -300 -16 -28 -24 -33 -56 -33
-36 0 -264 36 -267 42 0 2 -12 23 -26 48 -19 37 -25 63 -28 140 -4 106 6 145
41 161 20 9 30 6 62 -16 22 -14 48 -25 59 -23 24 3 64 70 65 108 1 29 85 118
95 102 3 -6 -7 -40 -24 -76 -17 -38 -32 -94 -36 -130 -6 -56 -4 -66 15 -85 21
-21 63 -27 96 -15 21 8 53 72 61 122 5 35 4 41 -16 47 -28 9 -70 -28 -70 -62
0 -30 35 -31 51 -1 10 18 9 20 -6 15 -11 -5 -15 -3 -13 5 7 20 38 22 38 3 0
-28 -31 -85 -55 -101 -17 -11 -28 -12 -53 -3 -39 13 -46 33 -32 93 15 66 71
123 125 128 33 3 44 9 69 46 25 35 28 46 18 60 -28 39 -44 76 -50 114 -4 23
-13 43 -19 45 -9 3 -10 -7 -6 -34z m4009 -445 c3 -10 0 -27 -6 -38 -7 -12 -9
-24 -6 -28 3 -3 6 0 6 7 0 7 5 9 10 6 6 -3 10 -21 10 -40 0 -19 -4 -37 -10
-40 -16 -10 -12 -25 5 -19 15 6 20 -11 15 -45 -1 -8 3 -17 9 -20 5 -4 11 -31
12 -61 1 -30 8 -67 15 -82 8 -14 15 -41 16 -60 2 -18 9 -39 16 -47 10 -11 10
-17 -1 -35 -15 -22 -12 -50 4 -40 5 3 9 0 9 -6 0 -6 5 -8 12 -4 7 4 8 3 4 -5
-4 -6 -11 -9 -15 -7 -3 3 -7 -4 -7 -15 0 -22 7 -24 25 -6 10 10 11 9 6 -5 -7
-17 -19 -23 -40 -18 -5 1 -6 -2 -2 -7 5 -4 13 -9 18 -9 5 -1 12 -2 15 -3 4 0
0 -9 -7 -18 -8 -10 -9 -14 -2 -10 6 4 15 2 19 -4 4 -7 3 -9 -2 -6 -6 3 -16 2
-24 -4 -8 -5 -10 -9 -4 -9 6 0 11 -16 12 -35 1 -19 -3 -35 -7 -35 -5 0 -8 -21
-6 -47 3 -61 -20 -143 -47 -164 -14 -10 -17 -19 -10 -23 8 -5 8 -15 1 -33 -5
-15 -10 -46 -11 -70 0 -23 -4 -40 -8 -38 -5 3 -6 -4 -3 -15 3 -12 0 -20 -7
-20 -7 0 -9 -8 -5 -20 3 -11 2 -20 -3 -20 -13 0 -32 -78 -25 -98 4 -8 -1 -20
-9 -26 -16 -11 -29 -74 -28 -133 0 -25 -4 -33 -18 -33 -11 0 -13 -3 -5 -8 7
-4 10 -31 9 -67 -1 -33 2 -68 6 -77 6 -13 4 -18 -7 -18 -8 0 -15 -7 -15 -15 0
-8 4 -15 9 -15 5 0 8 -8 7 -17 -2 -10 5 -31 14 -48 10 -16 17 -40 16 -52 -2
-14 3 -23 11 -23 9 0 12 -13 9 -50 -3 -27 0 -52 5 -55 11 -8 12 -25 1 -25 -13
0 -54 89 -48 105 2 7 1 15 -4 17 -12 4 -46 134 -55 208 -8 62 9 205 30 259 8
20 16 47 19 61 7 42 17 83 32 130 19 62 23 94 30 252 6 114 4 141 -8 160 -10
15 -18 59 -22 113 -13 189 -19 251 -27 267 -5 9 -16 79 -25 155 -15 135 -13
208 8 288 l10 39 34 -39 c19 -22 37 -48 40 -57z m-3881 -132 c-10 -55 -28 -88
-67 -121 -31 -26 -33 -32 -33 -89 -1 -77 -4 -87 -38 -108 -30 -20 -58 -23 -72
-9 -6 5 -46 11 -90 14 -92 6 -211 29 -227 45 -15 15 26 38 97 52 33 7 71 18
85 25 14 7 49 15 79 18 47 6 56 4 72 -16 18 -21 18 -21 19 -2 1 11 13 41 28
66 15 25 40 68 56 96 28 48 72 85 89 75 5 -2 5 -23 2 -46z m810 -111 c20 -31
35 -61 32 -68 -2 -6 2 -18 10 -25 8 -9 12 -30 9 -58 -2 -24 0 -44 4 -44 4 0
10 -16 12 -35 2 -19 1 -35 -2 -35 -4 0 -8 -22 -9 -49 -1 -54 -18 -102 -49
-141 -10 -14 -31 -47 -45 -75 -33 -66 -127 -150 -176 -160 -12 -2 -49 -17 -84
-34 -55 -26 -76 -30 -183 -35 l-121 -5 -79 39 c-43 21 -90 49 -104 62 -24 22
-71 114 -85 166 -4 13 -9 21 -12 19 -2 -3 0 -20 5 -39 5 -18 6 -41 3 -52 -6
-15 -14 -9 -50 38 -39 50 -44 64 -52 133 -13 109 1 163 41 163 22 0 61 -71 43
-77 -26 -9 -8 -153 19 -153 5 0 50 -25 99 -55 149 -91 329 -134 436 -105 97
26 169 74 200 133 8 17 20 26 28 24 10 -4 12 3 9 26 -2 21 -1 26 4 14 4 -10
10 -18 12 -17 3 1 13 -2 23 -6 25 -9 30 -1 16 30 -9 18 -18 25 -28 21 -8 -3
-12 -3 -8 1 4 4 1 14 -6 23 -11 14 -10 14 6 2 21 -17 23 2 1 23 -12 12 -12 16
-2 16 9 0 10 3 2 8 -8 5 -6 32 7 97 15 69 18 112 13 182 -6 88 -2 119 16 108
4 -3 25 -30 45 -60z m-1272 -37 c121 -28 123 -38 12 -53 -27 -4 -65 -16 -84
-27 -51 -32 -76 -31 -108 5 -16 18 -34 32 -40 33 -7 1 -25 2 -39 3 -20 1 -25
5 -22 23 2 12 13 28 26 34 31 15 148 7 255 -18z m1101 0 c13 -18 18 -19 31 -8
12 10 18 10 30 0 8 -7 15 -19 15 -27 0 -10 6 -13 16 -9 14 6 15 -1 9 -51 -9
-71 -14 -81 -31 -58 -12 16 -17 17 -39 5 -38 -20 -56 2 -21 25 14 10 26 21 26
25 0 11 -39 0 -67 -18 -22 -14 -48 -8 -38 9 4 5 2 9 -4 9 -5 0 -12 -4 -15 -9
-3 -4 -40 -11 -82 -15 -101 -9 -153 -28 -241 -87 -51 -34 -79 -62 -93 -89 -13
-25 -27 -40 -39 -40 -10 0 -22 -7 -25 -15 -7 -20 23 -32 35 -14 6 11 9 8 9 -8
0 -13 -6 -24 -12 -25 -7 0 -17 -2 -23 -3 -5 -2 -16 -3 -22 -4 -7 0 -13 -7 -13
-14 0 -7 -9 -13 -20 -14 -12 -1 -20 4 -20 14 0 9 -7 24 -16 34 -16 18 -11 44
7 34 5 -4 9 6 9 20 0 31 8 46 67 138 95 146 240 212 475 216 68 1 79 -1 92
-21z m-1334 -130 c0 -9 4 -8 10 2 9 13 10 13 10 0 0 -9 3 -11 8 -5 14 19 30
14 34 -10 3 -14 1 -22 -4 -19 -5 4 -16 -3 -24 -15 -13 -18 -24 -20 -102 -18
l-87 2 -3 32 c-4 37 4 40 96 42 43 1 62 -3 62 -11z m-477 -75 c18 -10 36 -24
40 -30 4 -7 15 -13 22 -13 8 0 15 -4 15 -10 0 -5 6 -10 13 -10 20 0 50 -37 41
-51 -4 -7 -3 -10 4 -5 11 6 52 -43 52 -63 0 -12 -20 -16 -20 -3 0 4 -14 23
-30 42 -25 29 -31 32 -39 20 -7 -10 -4 -21 10 -36 10 -11 29 -47 40 -80 19
-54 46 -112 59 -124 3 -3 18 -23 35 -45 73 -99 181 -189 303 -250 69 -36 92
-52 92 -68 0 -11 18 -53 41 -93 22 -41 37 -78 34 -84 -9 -15 -35 -12 -35 4 0
8 -6 21 -12 28 -7 7 -20 27 -28 43 -8 17 -20 38 -28 47 -16 19 -43 13 -35 -8
3 -8 0 -14 -5 -14 -6 0 -13 9 -17 20 -3 10 -22 29 -41 40 -18 12 -34 28 -34
36 0 11 -7 13 -27 8 -21 -6 -25 -4 -20 9 4 11 -2 17 -24 22 -21 5 -29 11 -25
21 4 10 -2 14 -19 14 -29 0 -32 14 -7 30 14 9 11 10 -15 6 -27 -4 -32 -2 -37
20 -5 17 -12 24 -22 20 -8 -3 -22 1 -32 9 -9 8 -41 33 -69 55 -29 23 -53 48
-53 56 0 8 -14 29 -32 46 -20 19 -28 33 -20 36 7 2 12 8 12 13 0 4 -6 6 -14 3
-8 -3 -21 11 -35 40 -11 26 -26 46 -31 46 -6 0 -10 7 -10 15 0 15 -6 24 -36
58 -6 7 -9 42 -8 82 3 48 0 65 -6 55 -7 -11 -12 -12 -17 -4 -5 7 -19 14 -33
17 l-25 4 27 2 c17 1 29 8 33 21 8 25 27 25 68 3z m672 11 c17 -4 20 -15 23
-74 2 -61 0 -72 -20 -90 -13 -12 -36 -24 -51 -27 -34 -7 -43 -23 -52 -88 -4
-27 -9 -59 -11 -70 -2 -11 -1 -14 2 -7 3 6 10 10 15 6 15 -9 10 -24 -7 -24 -9
0 -23 -8 -31 -17 -12 -16 -13 -13 -7 27 8 58 -4 46 -28 -27 -11 -32 -28 -66
-39 -76 -10 -10 -19 -16 -19 -15 0 2 4 18 9 36 5 17 6 32 2 32 -7 0 -19 -31
-36 -97 -4 -13 -13 -23 -21 -23 -18 0 -18 -1 6 51 11 24 19 51 19 59 0 8 -7
-4 -15 -26 -23 -63 -41 -61 -117 13 -67 66 -108 143 -88 167 5 6 11 22 13 36
2 16 12 28 31 34 24 9 31 6 53 -17 31 -34 38 -34 84 3 34 27 38 35 34 65 l-4
34 57 -2 56 -2 21 63 20 62 40 0 c23 0 50 -3 61 -6z m125 -9 c0 -2 -7 -30 -15
-62 -28 -108 -15 -173 36 -173 25 0 66 41 75 74 9 38 -3 78 -24 74 -22 -4 -29
-38 -8 -38 22 0 20 -32 -4 -58 -38 -40 -75 -22 -74 35 2 54 23 125 35 117 6
-3 13 2 15 12 4 16 13 19 57 16 91 -5 96 -8 91 -45 -3 -17 -1 -70 4 -116 9
-74 15 -91 52 -144 29 -42 38 -63 31 -70 -8 -8 -11 -7 -11 1 0 23 -62 83 -83
80 -26 -4 -45 -54 -27 -71 9 -9 15 -7 27 11 9 12 20 22 26 22 7 0 7 -4 -1 -12
-18 -18 -15 -42 10 -73 20 -26 24 -27 81 -20 46 5 58 3 55 -7 -3 -8 -25 -14
-61 -16 -46 -2 -63 2 -95 22 -46 29 -82 75 -82 104 0 25 44 62 74 62 17 0 18
2 6 10 -24 16 -39 12 -66 -17 -19 -21 -33 -27 -58 -25 -19 2 -60 -8 -94 -22
-102 -43 -172 -29 -172 35 0 41 17 79 36 79 9 0 31 15 50 34 32 32 34 37 34
108 l0 73 40 2 c22 2 40 1 40 -2z m1040 -110 c26 -23 26 -39 1 -25 -52 28
-173 2 -242 -52 -20 -15 -40 -28 -44 -28 -3 0 -29 -24 -56 -52 -27 -29 -49
-49 -49 -44 0 5 -7 3 -15 -4 -13 -11 -14 -10 -9 4 3 9 1 16 -6 16 -6 0 -8 5
-5 10 4 6 10 8 15 5 5 -3 12 10 16 30 6 36 20 53 32 40 3 -3 0 -10 -8 -15 -8
-6 -10 -10 -4 -10 6 0 18 7 25 17 11 13 11 17 1 20 -6 3 -10 9 -7 13 3 5 13 6
22 3 13 -5 15 -2 10 12 -8 19 24 50 53 50 9 1 29 6 45 12 41 16 60 19 137 17
50 -1 73 -6 88 -19z m8 -47 c19 -2 -3 -65 -42 -117 -42 -56 -115 -84 -230 -89
l-98 -4 7 23 c16 54 62 101 157 163 52 33 89 37 206 24z m3120 -207 c6 -163
-17 -329 -68 -501 -46 -153 -63 -254 -57 -339 2 -42 8 -84 12 -93 4 -10 3 -18
-1 -18 -5 0 -25 33 -44 73 -34 70 -35 75 -34 192 0 66 4 138 8 160 5 28 5 36
-3 25 -5 -8 -13 -32 -16 -52 -4 -23 -12 -38 -21 -38 -17 0 -37 -47 -31 -72 3
-10 2 -18 -3 -18 -4 0 -11 23 -14 52 -5 37 -10 48 -16 38 -6 -8 -10 -23 -10
-32 0 -10 -4 -18 -10 -18 -5 0 -10 18 -10 40 0 22 -4 40 -10 40 -5 0 -10 -9
-10 -20 0 -37 -20 -20 -48 40 -43 95 -59 71 -22 -36 11 -32 31 -70 44 -84 13
-14 26 -33 29 -43 5 -14 14 -16 45 -13 38 5 38 5 50 -42 7 -26 16 -64 21 -84
4 -21 13 -43 18 -50 6 -7 13 -22 15 -33 3 -11 9 -28 13 -37 5 -14 2 -18 -13
-18 -12 0 -24 4 -27 10 -13 21 -231 -33 -246 -61 -5 -11 -16 -19 -23 -19 -7 0
-26 -17 -43 -37 -17 -21 -45 -46 -62 -56 l-32 -19 13 24 c7 12 16 25 20 28 12
10 21 60 10 60 -12 0 -18 29 -27 133 -4 41 -11 67 -18 67 -7 0 -31 -17 -53
-38 -39 -35 -41 -41 -43 -94 -1 -69 -26 -135 -53 -144 -12 -3 -17 -11 -14 -20
8 -19 14 -41 8 -31 -2 4 -17 14 -34 23 -28 14 -31 14 -44 -3 -7 -10 -14 -13
-14 -7 0 13 -50 26 -50 13 0 -5 -8 -9 -17 -9 -15 0 -15 2 -4 9 10 6 3 8 -21 6
-33 -3 -36 -1 -42 26 -7 34 -23 38 -29 7 -4 -16 -5 -13 -4 7 2 22 7 30 19 29
10 -1 15 3 12 8 -3 5 -12 7 -20 4 -9 -3 -16 4 -20 20 -6 23 -17 25 -20 3 -1
-5 -2 -10 -4 -11 -1 -2 -3 -16 -5 -33 -1 -16 -7 -50 -13 -75 -6 -25 -13 -67
-17 -93 -3 -27 -10 -57 -15 -67 -6 -10 -7 -25 -4 -34 8 -21 -27 -80 -38 -63
-6 9 -14 6 -28 -12 -11 -13 -20 -29 -20 -37 0 -25 -19 -15 -77 44 -74 73 -106
135 -128 245 l-17 89 48 71 c26 40 52 81 58 92 6 12 51 76 100 143 82 111 115
143 113 110 0 -7 1 -22 1 -32 2 -18 3 -18 20 -3 27 24 31 21 26 -20 -16 -131
-16 -160 -2 -187 15 -28 15 -28 16 25 4 139 29 236 81 318 16 25 31 55 33 66
4 26 46 73 72 81 12 3 37 21 56 39 19 18 79 56 134 84 54 28 103 54 110 59 6
5 56 28 111 52 55 25 124 60 154 80 30 19 62 40 70 45 9 6 31 20 48 33 17 12
41 22 52 22 27 0 58 67 73 158 l11 62 20 -32 c17 -28 21 -56 25 -177z m-4094
23 c3 -8 10 -12 16 -9 5 3 10 -3 10 -14 0 -32 67 -99 109 -111 25 -7 40 -18
49 -38 19 -44 53 -58 112 -46 37 8 50 8 50 -1 0 -7 9 -20 20 -30 17 -16 28
-17 77 -9 31 5 58 14 60 20 3 8 -9 9 -39 3 -24 -4 -51 -8 -60 -9 -15 0 -30 26
-33 55 -1 12 -9 12 -63 -5 -39 -12 -45 -12 -69 6 -35 27 -40 44 -12 44 12 0
37 5 54 11 28 10 36 9 61 -9 16 -12 61 -33 99 -47 91 -34 138 -82 155 -156 9
-41 9 -64 1 -97 -13 -47 -34 -61 -63 -43 -13 8 -24 8 -38 1 -44 -24 -70 -5
-84 61 -10 46 -50 93 -101 119 -28 14 -51 28 -53 33 -2 4 -23 7 -47 7 -24 0
-47 5 -50 10 -4 6 -25 20 -47 31 -57 29 -157 22 -348 -26 -36 -9 -68 -22 -72
-28 -5 -9 -20 -5 -52 12 -72 40 -89 56 -82 77 8 28 103 121 138 136 15 7 28
15 28 18 0 3 28 4 63 3 50 -3 71 1 112 21 59 29 91 32 99 10z m1046 -257 c0
-5 -4 -5 -10 -2 -6 3 -7 -1 -4 -9 3 -9 10 -16 15 -16 5 0 9 -13 9 -28 0 -16
14 -54 31 -85 17 -31 28 -61 25 -66 -3 -5 4 -7 16 -3 14 3 19 2 14 -6 -4 -7
-15 -12 -24 -12 -20 -1 -107 -104 -107 -127 0 -29 24 -26 31 4 12 48 105 122
138 110 7 -3 13 -28 14 -57 2 -60 39 -136 89 -187 18 -17 29 -35 24 -38 -5 -3
-23 8 -39 25 -17 16 -35 30 -41 30 -20 0 -12 -29 11 -41 34 -18 43 -31 45 -61
0 -19 -4 -28 -14 -28 -9 0 -13 -8 -11 -22 3 -24 -15 -53 -43 -68 -14 -8 -16
-3 -15 33 1 36 -2 42 -21 45 -17 3 -23 10 -23 29 0 23 3 25 32 21 l32 -5 -22
18 c-12 9 -28 19 -35 22 -6 2 -9 8 -5 12 4 4 23 -4 43 -19 20 -15 41 -26 48
-23 6 2 -8 18 -31 35 l-43 31 25 17 c14 9 26 23 26 32 0 11 -11 5 -36 -19 -32
-31 -36 -32 -45 -16 -14 25 -38 21 -49 -9 -13 -32 -33 -26 -40 11 -7 38 -23
41 -44 10 -17 -25 -18 -26 -31 -8 -14 17 -14 17 -15 -4 0 -31 -20 -71 -38 -78
-9 -3 -28 3 -44 15 -34 25 -54 25 -70 0 -24 -38 -48 -19 -48 40 0 22 6 30 30
39 34 11 48 37 31 54 -6 6 -11 21 -11 33 0 30 -33 40 -62 20 -12 -9 -33 -16
-45 -16 -22 0 -23 3 -22 78 0 42 6 95 13 117 11 36 15 40 46 42 19 1 40 2 46
2 6 1 19 20 28 44 18 47 92 117 124 117 23 0 72 40 73 60 1 14 28 -75 29 -93z
m3688 22 c2 -5 8 -7 12 -4 13 8 50 -18 50 -35 0 -8 5 -22 10 -30 8 -11 9 -6 5
18 -3 18 -1 32 5 32 10 0 14 -14 11 -35 -1 -5 6 -1 14 9 15 19 15 19 15 -2 0
-13 -6 -22 -16 -22 -8 0 -12 -4 -9 -10 11 -17 25 -11 35 15 5 14 12 25 15 25
11 0 0 -35 -15 -47 -9 -7 -10 -12 -4 -13 13 0 32 20 33 35 1 14 24 13 40 -3
16 -16 11 -22 -26 -29 -64 -12 -94 -7 -119 20 -14 15 -20 29 -14 32 6 4 7 11
4 17 -4 6 -10 5 -16 -3 -7 -11 -8 -10 -4 4 3 11 2 16 -4 12 -12 -8 -9 -37 5
-47 15 -11 -2 -20 -24 -13 -12 3 -21 13 -21 21 0 16 -26 19 -35 4 -3 -5 -21
-10 -38 -10 -22 0 -28 3 -19 9 10 6 7 10 -12 15 l-25 6 22 24 c19 22 28 24 72
19 28 -3 52 -9 53 -14z m-4053 -408 c27 -6 30 -11 32 -46 1 -22 5 -55 9 -74 6
-31 5 -33 -12 -27 -11 4 -34 10 -52 13 -27 5 -37 14 -58 54 -13 27 -24 55 -24
63 0 23 45 30 105 17z m355 -100 c0 -10 9 -30 20 -44 11 -14 20 -35 20 -46 0
-28 37 -100 54 -107 10 -4 9 -14 -6 -44 -24 -49 -43 -64 -65 -55 -16 7 -15 9
7 15 l25 8 -27 1 c-20 1 -26 5 -22 16 4 10 0 15 -15 15 -18 0 -20 -3 -11 -19
13 -26 13 -34 -3 -28 -23 9 -50 -20 -45 -48 4 -16 1 -25 -8 -25 -9 0 -11 6 -7
18 6 15 5 15 -10 3 -9 -7 -15 -17 -12 -21 3 -4 -4 -10 -15 -13 -13 -3 -20 0
-20 9 0 23 -18 16 -22 -8 -2 -12 -9 -23 -16 -26 -17 -5 -31 38 -21 71 7 23 5
28 -7 23 -12 -4 -13 4 -9 47 10 115 17 146 36 163 26 23 32 14 14 -20 -8 -16
-15 -30 -15 -33 0 -5 53 36 95 73 l23 21 4 -22 c3 -16 -3 -27 -24 -41 -28 -19
-36 -34 -18 -34 6 0 18 9 27 20 21 24 33 11 33 -36 0 -35 23 -73 34 -56 4 6 2
29 -4 51 -20 75 -19 99 4 106 21 6 21 6 -2 17 -13 7 -21 17 -17 26 3 7 5 20 5
28 0 8 5 14 10 14 6 0 10 -8 10 -19z m395 -136 c22 -8 60 -14 85 -15 43 0 98
-19 58 -20 -10 0 -18 -4 -18 -8 0 -4 73 -8 163 -8 171 -1 256 -13 317 -47 22
-12 53 -19 83 -18 27 0 67 -3 90 -9 23 -5 44 -5 47 -1 11 17 40 20 40 5 0 -8
-13 -20 -28 -25 -16 -5 -39 -23 -51 -39 -26 -36 -13 -40 19 -5 30 32 36 31 43
-2 5 -29 -3 -57 -28 -87 -14 -18 -20 -19 -111 -7 -61 8 -99 9 -103 3 -8 -12
-36 -20 -96 -27 -39 -4 -45 -3 -30 6 11 5 31 36 45 67 13 31 33 65 43 75 26
26 14 33 -17 10 -14 -10 -30 -34 -36 -54 -5 -19 -20 -44 -32 -56 -35 -31 -118
-73 -145 -73 -13 0 -26 -7 -29 -15 -4 -8 -12 -15 -20 -15 -22 0 -87 -50 -119
-92 -17 -21 -34 -44 -40 -51 -5 -7 -19 -29 -29 -49 -10 -21 -27 -45 -37 -54
-18 -16 -19 -16 -19 15 0 25 -5 34 -27 42 -15 6 -23 13 -18 17 6 4 15 14 20
23 46 74 88 131 100 136 13 4 13 8 3 21 -11 13 -10 14 13 9 26 -7 69 15 69 35
0 7 -4 7 -13 0 -13 -11 -61 -18 -82 -12 -5 1 -29 2 -52 1 -55 -1 -91 -32 -157
-135 -56 -86 -106 -136 -136 -136 -31 0 -33 18 -3 22 27 3 28 5 29 62 1 43 5
61 18 68 9 5 16 14 16 19 0 15 57 95 95 133 26 27 47 36 97 45 94 16 139 33
68 25 -30 -4 -67 -8 -82 -9 -28 -3 -110 -50 -138 -79 -8 -9 -49 -56 -90 -105
-41 -50 -85 -93 -98 -97 -34 -10 -72 11 -71 38 1 16 3 18 6 6 6 -25 40 -32 68
-14 29 19 30 27 9 67 -17 34 -20 28 44 99 12 13 22 30 22 36 0 6 11 21 25 34
13 12 22 27 19 32 -8 12 22 34 65 49 18 6 42 20 52 30 11 11 30 19 44 19 31 0
32 -8 3 -20 -17 -6 -3 -9 50 -8 51 1 72 5 72 14 0 19 -12 23 -94 34 -85 11
-116 3 -137 -36 -6 -13 -20 -26 -30 -29 -10 -3 -28 -21 -39 -40 -28 -45 -68
-73 -117 -81 -32 -5 -41 -3 -47 11 -10 26 1 34 39 28 31 -5 36 -3 45 22 6 16
8 35 5 42 -3 9 14 31 42 56 25 23 60 55 76 70 40 39 88 67 112 67 11 0 38 -7
60 -15z m-402 -269 c-1 -102 9 -122 43 -85 9 10 24 19 32 19 12 0 10 -6 -7
-24 -16 -17 -33 -23 -62 -23 -26 0 -36 3 -27 8 10 7 10 9 0 9 -7 0 -15 -7 -18
-15 -4 -8 -15 -15 -25 -15 -10 0 -19 -7 -19 -15 0 -9 -9 -15 -25 -15 -23 0
-25 -3 -19 -27 6 -26 5 -27 -11 -12 -18 18 -29 115 -13 125 4 3 6 9 3 14 -3 4
2 13 10 20 13 11 14 10 9 -5 -12 -29 14 -8 32 26 8 16 26 34 40 39 18 7 24 15
20 28 -4 11 2 21 17 28 12 7 22 12 22 13 0 0 -1 -41 -2 -93z m1242 -171 c4
-15 -1 -29 -19 -48 -14 -15 -28 -44 -31 -65 -3 -20 -10 -62 -15 -92 -18 -108
-22 -168 -13 -185 6 -10 6 -34 0 -64 -8 -36 -6 -76 8 -164 10 -65 21 -117 25
-117 4 0 6 -10 6 -22 -1 -14 4 -22 12 -20 9 2 11 -2 6 -10 -5 -7 -7 -41 -6
-74 3 -60 2 -62 -27 -77 -17 -9 -31 -11 -31 -7 0 5 -19 15 -42 22 -54 16 -78
36 -57 49 8 5 17 9 20 9 22 0 12 136 -13 184 -6 12 -6 16 1 11 7 -4 12 11 13
42 0 26 3 75 5 108 2 33 4 70 4 83 1 12 6 22 11 22 6 0 8 8 5 19 -2 10 1 27 7
37 6 10 11 39 12 64 3 132 32 259 88 379 10 23 11 22 17 -20 4 -24 10 -53 14
-64z m-1422 36 c-1 -23 -10 -54 -21 -69 -10 -15 -21 -34 -25 -43 -3 -11 -20
-18 -46 -21 -34 -3 -41 0 -41 14 0 26 22 68 32 62 5 -3 8 -2 6 3 -7 28 16 71
45 86 44 22 52 16 50 -32z m-476 -138 c4 -12 -18 -37 -55 -63 -12 -8 -22 -20
-22 -27 0 -6 -9 -18 -20 -26 -10 -7 -44 -37 -75 -65 -30 -28 -55 -47 -55 -42
0 6 -5 10 -10 10 -6 0 -10 -6 -9 -12 3 -16 -18 -68 -27 -68 -3 0 -4 6 -1 14 4
10 0 12 -14 9 -26 -7 -24 7 5 37 65 68 97 99 145 140 29 25 60 53 69 63 9 9
22 17 29 17 7 0 10 7 6 16 -4 12 -1 15 12 13 10 -2 20 -9 22 -16z m761 -40 c6
-21 12 -71 14 -112 1 -41 7 -79 13 -85 45 -45 1 -68 -67 -35 -50 24 -86 65
-70 81 6 6 28 9 50 6 26 -2 38 0 34 7 -4 5 -5 18 -4 28 4 21 -26 23 -34 2 -4
-9 -19 -15 -36 -15 -41 0 -87 -26 -130 -74 -31 -34 -39 -38 -48 -26 -39 59 58
190 140 190 19 0 38 7 45 17 18 24 44 2 37 -32 -3 -19 0 -25 12 -25 10 0 14 5
11 10 -3 6 -8 30 -10 55 -3 38 -1 45 14 45 12 0 21 -12 29 -37z m249 -15 c-4
-15 2 -32 15 -48 16 -20 29 -25 68 -25 27 0 46 -3 43 -7 -2 -5 2 -8 10 -8 12
0 33 -29 25 -34 -2 -1 -15 -10 -31 -19 -15 -10 -51 -19 -80 -22 -28 -2 -72 -8
-97 -14 -59 -14 -60 -14 -53 5 5 15 3 15 -25 0 -34 -17 -58 -22 -29 -5 25 15
21 29 -9 29 l-25 0 21 30 c25 35 68 60 104 60 27 0 44 16 24 22 -26 9 -68 -6
-117 -43 l-51 -39 0 30 c0 17 -1 33 -2 36 -2 4 15 9 36 11 39 4 96 31 96 45 0
4 6 5 14 2 8 -3 23 -1 33 5 28 16 36 13 30 -11z m465 -40 c22 -6 61 -31 88
-55 26 -23 50 -40 53 -37 3 3 17 -12 32 -34 22 -34 25 -44 15 -62 -6 -12 -13
-20 -15 -18 -5 4 -139 127 -195 177 -47 43 -43 49 22 29z m-1062 -88 c25 -15
-2 -35 -29 -20 -22 11 -41 6 -41 -10 0 -5 19 -10 43 -12 l42 -3 -3 -52 c-3
-57 3 -67 18 -30 9 22 9 22 9 -4 2 -50 -28 -90 -87 -116 -40 -17 -57 -21 -62
-13 -4 7 -8 54 -9 105 -2 85 0 95 19 105 11 6 20 19 20 29 0 10 3 21 7 24 9
10 56 8 73 -3z m810 -30 c0 -5 7 -10 15 -10 8 0 15 -4 15 -10 0 -5 -5 -10 -11
-10 -6 0 -8 -8 -5 -18 5 -15 -10 -25 -91 -59 -54 -23 -124 -47 -157 -54 -88
-19 -325 -162 -551 -332 -97 -73 -100 -75 -127 -61 -16 8 -28 18 -28 22 0 7
63 52 139 100 20 12 63 35 96 51 33 16 68 39 77 50 10 12 24 21 31 21 6 0 25
12 41 28 17 15 44 32 60 38 24 8 31 17 30 35 -2 38 -3 41 -15 33 -8 -4 -7 -9
2 -15 11 -7 10 -9 -3 -9 -10 0 -18 6 -18 13 0 8 -3 8 -9 -2 -10 -15 -41 -8
-41 9 0 6 12 15 28 21 15 5 59 25 97 44 84 40 111 48 236 70 52 9 109 25 125
36 31 20 64 25 64 9z m-582 -24 c38 -20 76 -65 60 -71 -60 -20 -127 -35 -155
-35 -45 0 -44 28 3 80 40 44 51 47 92 26z m-763 -29 c49 -28 71 -65 50 -86 -8
-8 -22 -15 -32 -16 -10 -1 -25 -5 -35 -9 -9 -4 -33 1 -56 13 -34 17 -39 24
-34 43 9 30 44 77 57 78 6 0 28 -10 50 -23z m1686 -143 c16 -15 16 -17 -3 -51
-16 -27 -26 -33 -42 -29 -12 3 -27 6 -33 6 -7 0 -13 7 -13 15 0 12 -14 15 -70
15 -45 0 -70 4 -70 11 0 8 -12 10 -35 6 -19 -3 -35 -2 -35 2 0 19 95 37 214
39 51 2 74 -2 87 -14z m-1668 -80 c38 -36 70 -74 72 -86 3 -11 12 -26 22 -34
10 -7 14 -14 8 -14 -6 0 -6 -3 1 -8 16 -11 74 -119 67 -126 -4 -3 -1 -6 5 -6
6 0 9 -7 5 -17 -4 -11 -3 -14 5 -9 8 4 10 2 6 -7 -3 -9 3 -16 15 -20 18 -4 35
-33 83 -147 6 -14 10 -30 9 -37 -1 -7 6 -29 15 -50 9 -21 16 -45 15 -55 -1 -9
3 -19 9 -23 5 -3 10 -30 10 -59 0 -37 5 -58 16 -67 9 -7 22 -29 30 -50 18 -44
60 -71 74 -49 6 8 10 27 10 41 0 15 3 41 7 59 4 24 3 31 -5 26 -8 -5 -12 3
-12 23 0 16 -4 32 -9 36 -14 8 -41 65 -31 65 4 0 13 -7 20 -15 7 -8 17 -15 23
-15 6 0 -8 18 -31 39 -58 55 -53 61 8 10 37 -31 49 -47 44 -61 -4 -13 6 -29
33 -53 21 -19 43 -35 49 -35 6 0 31 -15 55 -34 73 -57 240 -136 287 -136 27 0
44 -5 50 -16 7 -13 13 -14 30 -5 54 29 82 8 82 -61 l0 -27 -45 14 c-25 7 -60
22 -78 33 -18 10 -64 29 -101 42 -37 12 -90 38 -119 58 -56 38 -160 92 -178
92 -6 0 -8 -7 -5 -16 4 -9 2 -13 -5 -8 -8 4 -9 -1 -4 -17 9 -29 23 -39 43 -31
9 3 13 1 9 -4 -8 -13 50 -47 64 -38 6 3 4 -8 -5 -24 -9 -17 -16 -47 -16 -67 0
-29 -4 -35 -21 -35 -12 0 -34 11 -50 24 -15 13 -48 27 -71 31 -59 10 -111 38
-128 69 -7 14 -18 26 -24 26 -28 1 -37 20 -42 91 -3 46 -10 78 -18 83 -11 7
-11 15 -3 34 7 15 7 26 1 30 -5 4 -15 33 -21 66 -17 81 -75 193 -144 278 -40
49 -59 81 -59 100 0 32 -65 161 -110 218 -47 59 -24 48 53 -26z m1337 61 c0
-20 -46 -47 -115 -66 -141 -39 -325 -100 -338 -113 -6 -6 -43 -22 -82 -35 -38
-13 -77 -26 -85 -29 -8 -3 4 10 28 29 23 18 44 40 47 49 12 35 196 106 325
125 36 5 142 34 148 40 7 7 72 6 72 0z m-3044 -80 c89 -70 128 -132 164 -265
7 -25 17 -57 22 -71 5 -15 8 -42 6 -60 l-3 -34 -26 50 c-15 28 -46 95 -69 150
-36 85 -110 204 -157 253 -7 7 -13 15 -13 18 0 12 23 -1 76 -41z m3259 4 c78
-12 86 -19 60 -55 -15 -23 -53 -22 -86 0 -23 16 -217 10 -303 -9 -38 -9 -71
-14 -73 -12 -4 4 162 51 188 53 9 1 23 5 30 10 8 4 32 11 54 15 22 4 43 7 47
8 4 0 41 -4 83 -10z m-2201 -208 c46 -22 87 -44 90 -49 3 -5 1 -24 -5 -42 -9
-23 -9 -42 0 -69 10 -34 8 -43 -20 -97 -17 -32 -34 -63 -39 -69 -11 -15 -20
-73 -14 -90 16 -40 64 -4 64 48 0 23 48 70 51 50 1 -5 4 3 8 16 4 16 17 27 35
32 22 6 27 5 22 -7 -6 -16 23 -56 36 -48 4 3 8 1 8 -5 0 -5 -5 -13 -11 -16 -6
-4 -8 -14 -5 -22 3 -8 1 -24 -5 -35 -9 -18 -8 -24 7 -35 23 -17 60 -17 67 0 3
7 3 32 2 55 -4 50 10 56 21 10 13 -58 15 -81 19 -158 2 -41 6 -86 9 -99 4 -15
-1 -32 -11 -43 -14 -16 -14 -18 1 -24 9 -3 23 -1 31 6 10 9 15 9 15 1 0 -6 -4
-11 -9 -11 -12 0 -61 -44 -61 -55 0 -4 7 -2 15 5 9 7 18 10 22 6 3 -3 1 -6 -6
-6 -28 0 -2 -25 27 -26 17 -1 29 2 26 7 -3 5 -12 9 -20 9 -8 0 -14 4 -14 9 0
5 9 7 20 4 11 -3 20 -10 20 -17 0 -6 5 -4 10 4 5 8 10 11 10 5 -1 -18 -25 -42
-38 -38 -7 3 -10 -1 -6 -10 7 -19 -14 -60 -27 -52 -5 4 -9 1 -9 -4 0 -14 -37
-51 -50 -51 -5 0 -10 5 -10 11 0 5 5 7 12 3 7 -4 8 -3 4 4 -4 7 -2 12 4 12 6
0 8 5 5 10 -7 12 -26 14 -23 3 3 -16 -15 -43 -25 -36 -6 3 -7 1 -3 -5 4 -7 15
-12 24 -12 23 0 1 -19 -29 -25 -13 -3 -36 -7 -51 -11 -18 -3 -28 -1 -28 6 0 6
6 8 13 4 6 -4 8 -3 4 1 -13 15 -36 14 -30 -1 3 -8 -1 -14 -8 -15 -8 -1 -21 -2
-29 -3 -8 -2 -26 -3 -39 -4 -15 -1 -21 -7 -18 -16 4 -9 -3 -16 -19 -20 -14 -4
-22 -11 -19 -16 8 -12 -5 -13 -24 -1 -18 12 -51 -4 -51 -23 0 -8 -7 -17 -16
-20 -8 -3 -13 -9 -11 -13 3 -5 -6 -22 -19 -38 -14 -17 -22 -22 -18 -12 3 9 2
17 -4 17 -6 0 -9 -11 -7 -25 1 -14 -2 -25 -7 -25 -5 0 -6 -4 -3 -10 3 -5 2
-10 -4 -10 -5 0 -12 -8 -14 -17 -3 -10 -4 -6 -3 9 1 15 5 30 9 34 4 4 7 11 7
16 0 5 -11 -4 -25 -20 -14 -17 -25 -35 -25 -42 0 -6 -5 -8 -12 -4 -8 5 -10 -6
-5 -42 5 -46 5 -47 -7 -21 -12 27 -32 47 -48 47 -10 0 -5 -76 5 -86 4 -4 7
-23 7 -43 0 -20 9 -65 20 -101 24 -78 24 -80 5 -80 -20 0 -19 -3 10 -46 26
-38 34 -67 13 -46 -8 8 -16 6 -29 -10 l-19 -21 -9 25 c-8 22 -127 186 -156
215 -79 79 -189 294 -253 495 -22 70 -47 142 -56 160 -34 74 -46 149 -35 223
6 39 7 98 4 131 -3 34 -3 89 1 122 l6 61 32 -14 c17 -7 57 -21 88 -30 l58 -18
30 34 c17 19 38 46 47 62 10 15 26 30 37 33 26 9 87 65 80 75 -4 8 26 45 106
129 l35 36 77 -22 c42 -12 115 -41 162 -63z m2250 -38 c-18 -37 -61 -102 -77
-114 -4 -3 -6 -12 -4 -20 2 -8 2 -10 -1 -6 -2 5 -19 -6 -38 -24 -18 -18 -30
-37 -27 -42 3 -6 2 -7 -4 -4 -10 6 -41 -24 -60 -58 -18 -31 -125 -134 -175
-168 -54 -37 -66 -57 -43 -73 15 -11 14 -14 -6 -33 -28 -26 -27 -26 -91 -1
-29 11 -76 20 -104 20 -29 0 -79 10 -115 24 -51 18 -71 21 -98 14 -24 -7 -41
-6 -58 3 -24 13 -31 29 -13 29 6 0 10 -5 10 -11 0 -5 5 -7 11 -3 6 3 -4 15
-24 28 -57 35 -157 120 -157 134 0 15 0 15 45 -4 21 -8 45 -24 54 -35 17 -20
104 -57 156 -67 36 -6 73 -29 98 -59 16 -20 25 -22 80 -17 139 11 168 16 182
30 15 16 10 44 -12 57 -22 14 -14 36 15 42 15 3 42 13 59 22 45 22 203 154
231 192 12 17 29 31 37 31 8 0 33 34 55 74 27 49 46 73 55 70 7 -3 16 0 20 6
16 26 15 -1 -1 -37z m-1318 -52 c5 -5 62 -25 126 -45 64 -20 120 -41 123 -46
3 -6 22 -10 42 -10 20 0 48 -9 65 -21 37 -27 109 -49 158 -49 29 0 41 -6 54
-25 15 -23 15 -25 -1 -26 -42 -4 -118 3 -134 12 -10 5 -24 9 -33 9 -8 0 -46
15 -85 33 -54 26 -68 36 -59 45 9 9 8 12 -6 12 -10 0 -20 -9 -23 -20 -8 -29
-19 -25 -76 29 -58 54 -92 75 -107 66 -18 -11 -10 -29 28 -71 28 -30 35 -43
27 -51 -16 -15 -65 38 -99 105 -14 30 -26 56 -26 58 0 7 16 4 26 -5z m-2164
-366 c10 4 17 -1 21 -16 6 -23 -15 -48 -71 -86 -25 -17 -43 -10 -24 9 15 15
16 31 0 22 -6 -4 -8 -3 -4 4 3 6 2 13 -4 17 -6 4 -10 -6 -10 -24 0 -24 -4 -31
-20 -31 -11 0 -20 -7 -20 -15 0 -8 5 -15 11 -15 5 0 7 5 4 10 -3 6 1 10 9 10
9 0 16 -4 16 -10 0 -5 -4 -10 -8 -10 -5 0 -19 -9 -32 -20 -13 -11 -26 -18 -29
-15 -3 4 1 10 9 15 12 8 11 10 -7 10 -12 0 -23 -3 -25 -8 -1 -4 -19 -4 -38 -1
l-35 6 36 2 c30 1 37 5 41 24 2 13 -1 29 -9 35 -20 20 4 49 54 64 23 7 44 19
47 28 3 12 4 11 5 -3 1 -12 -16 -25 -55 -42 -31 -14 -53 -29 -49 -35 9 -15 25
-12 25 6 0 8 4 13 9 9 10 -6 7 -36 -5 -58 -4 -6 3 -2 15 11 19 20 21 25 9 39
-11 15 -10 16 10 10 18 -4 22 -2 18 9 -3 8 0 14 7 14 7 0 23 10 37 21 14 11
20 18 14 15 -6 -3 -11 1 -11 9 0 11 4 11 22 -1 12 -8 29 -12 37 -9z m2153
-301 c6 -74 0 -120 -23 -184 -3 -8 -7 -27 -9 -43 -6 -42 -32 -97 -48 -103 -8
-4 -12 -10 -9 -15 7 -12 -36 -69 -53 -69 -7 0 -10 -6 -7 -15 4 -8 2 -15 -3
-15 -6 0 -18 -15 -28 -34 -16 -29 -17 -37 -6 -50 11 -13 11 -16 1 -16 -8 0
-10 -3 -7 -7 4 -3 20 6 35 20 16 15 32 24 36 20 4 -4 4 0 1 8 -4 10 3 19 20
27 14 6 25 18 25 27 0 8 11 34 25 57 14 24 32 60 41 81 9 20 20 37 24 37 4 0
16 27 26 59 12 38 25 62 37 65 14 3 17 15 17 60 0 31 2 56 5 56 3 0 33 -12 68
-26 34 -14 80 -27 102 -29 31 -2 40 -7 40 -21 0 -13 -6 -18 -17 -16 -14 2 -18
-4 -18 -33 0 -19 -5 -35 -10 -35 -6 0 -9 -3 -8 -7 1 -5 -4 -25 -11 -46 -7 -21
-10 -44 -7 -52 3 -8 -4 -21 -16 -29 -12 -9 -17 -19 -13 -27 5 -8 4 -10 -4 -5
-16 10 -64 -22 -55 -36 4 -6 3 -8 -3 -5 -6 4 -17 0 -24 -9 -10 -12 -10 -17 0
-23 10 -6 9 -10 -3 -14 -9 -4 -16 -13 -16 -22 0 -18 -20 -21 -20 -2 0 6 -5 4
-11 -7 -8 -12 -14 -15 -18 -7 -5 8 -14 4 -27 -10 -12 -14 -13 -19 -4 -14 16 9
13 5 -34 -35 -27 -24 -28 -24 -15 -2 8 12 16 22 19 22 3 0 6 8 7 18 0 9 4 33
7 52 6 28 5 31 -4 18 -6 -10 -18 -18 -25 -18 -8 0 -15 -4 -15 -10 0 -17 -62
-81 -94 -96 -28 -14 -29 -14 -12 1 17 13 17 15 4 15 -9 0 -20 -5 -24 -11 -3
-6 -15 -8 -26 -6 -10 3 -32 2 -49 -3 -21 -6 -27 -6 -22 3 18 29 37 45 47 40 6
-3 8 -3 4 2 -4 4 4 24 17 44 14 19 25 41 25 48 0 7 8 17 18 22 10 7 12 11 4
11 -20 0 -5 131 24 205 28 75 53 199 57 285 2 45 6 64 15 63 6 -2 12 3 13 10
1 32 28 -97 34 -169z m2745 -139 c0 -48 -28 -142 -61 -207 -10 -20 -19 -41
-18 -45 4 -23 -6 -37 -63 -84 -48 -40 -67 -50 -87 -46 -14 3 -55 10 -90 17
-35 6 -76 19 -90 28 -46 31 -116 61 -171 74 -37 8 -48 13 -32 16 12 2 63 -11
112 -29 78 -27 98 -31 151 -26 33 4 70 12 82 18 97 51 193 159 222 252 9 28
18 58 20 65 10 29 25 8 25 -33z m-2266 -26 c42 -14 67 -28 74 -43 9 -17 11
-18 11 -4 1 11 6 15 16 12 10 -4 12 -11 6 -22 -6 -11 -4 -21 5 -30 15 -14 16
-11 18 27 1 13 7 26 14 29 11 3 12 0 3 -17 -11 -20 -2 -29 13 -14 4 4 47 8 96
8 l88 0 5 -30 c3 -16 2 -61 -1 -98 -5 -63 -8 -70 -41 -98 -43 -35 -57 -37 -35
-4 14 22 13 45 -4 45 -4 0 -18 -18 -32 -40 -13 -22 -38 -45 -55 -51 -16 -7
-38 -19 -48 -27 -11 -10 -44 -16 -100 -18 -45 -2 -74 -1 -64 2 10 3 17 16 18
32 1 40 9 54 66 117 43 47 51 61 41 72 -13 16 -53 39 -45 26 3 -4 -1 -14 -9
-21 -8 -7 -14 -8 -14 -2 0 5 -5 10 -11 10 -5 0 -7 -4 -4 -10 4 -6 -10 -10 -34
-10 -39 0 -40 -1 -53 -47 -12 -44 -17 -48 -48 -53 -29 -4 -42 -15 -75 -65 -22
-33 -44 -62 -47 -64 -14 -8 -98 -18 -98 -11 0 3 14 21 31 38 17 18 28 32 25
32 -4 0 5 12 20 28 14 15 34 46 45 70 10 23 23 42 29 42 5 0 10 7 10 15 0 8 4
15 10 15 11 0 63 109 74 153 8 33 17 33 100 6z m2567 -110 c19 -47 -37 -222
-134 -418 -29 -57 -59 -106 -67 -109 -8 -3 -51 -29 -95 -57 -125 -80 -135 -86
-135 -76 0 12 58 60 110 91 23 14 68 52 99 86 70 75 102 153 136 344 14 74 29
146 34 160 6 14 13 45 17 70 l8 45 8 -55 c4 -30 13 -67 19 -81z m-1036 -83
c11 -7 34 -17 50 -21 28 -8 27 -9 -23 -17 -76 -12 -149 -40 -212 -82 -30 -20
-57 -36 -60 -36 -3 1 -15 9 -28 20 -28 23 -22 37 35 93 27 26 53 40 84 46 68
13 132 12 154 -3z m-3828 -169 c2 -24 0 -28 -7 -17 -9 13 -11 13 -20 0 -5 -8
-10 -19 -10 -25 0 -6 4 -5 8 1 4 7 15 8 27 4 18 -7 19 -8 3 -15 -10 -4 -15
-11 -12 -16 3 -5 -2 -10 -10 -10 -9 -1 -20 -2 -24 -3 -5 0 -19 -12 -33 -26
-24 -25 -63 -53 -106 -77 -18 -9 -23 -9 -24 0 0 9 -2 8 -6 -1 -2 -6 -9 -10
-14 -7 -5 4 -6 -2 -2 -11 4 -12 3 -15 -5 -10 -7 4 -12 2 -12 -5 0 -6 -8 -17
-17 -24 -14 -10 -21 -10 -40 2 -24 16 -43 10 -43 -13 0 -12 -3 -12 -20 -2 -25
16 -26 30 -2 26 10 -2 16 2 14 10 -2 9 4 11 18 7 11 -4 20 -3 19 2 -4 21 2 33
16 33 8 0 15 -6 15 -14 0 -8 5 -18 10 -21 12 -7 7 36 -6 56 -4 8 -3 9 5 5 6
-4 14 0 17 8 3 9 10 13 15 10 5 -3 9 0 9 6 0 6 12 5 33 -5 l32 -16 -25 20
c-14 11 -22 21 -17 22 4 1 12 3 17 4 6 1 15 3 20 4 6 0 10 8 10 17 0 8 4 13 8
10 11 -7 64 29 55 37 -3 4 0 7 8 7 9 0 25 9 37 21 12 11 27 17 32 14 6 -3 10
1 10 9 0 30 15 16 17 -17z m-16 -186 c-8 -14 -7 -22 4 -31 8 -7 12 -17 8 -23
-3 -6 -1 -7 6 -3 6 4 20 4 31 1 19 -6 19 -7 2 -24 -9 -9 -37 -32 -62 -51 -25
-19 -47 -37 -50 -41 -15 -19 -126 -89 -141 -89 -10 0 -21 -4 -24 -10 -3 -5 0
-10 7 -10 9 0 9 -3 -2 -10 -8 -5 -18 -10 -22 -10 -11 0 -2 31 11 40 8 5 10 13
5 21 -6 10 -3 10 11 -1 17 -14 18 -13 12 3 -4 10 -7 32 -7 48 0 16 -4 29 -8
29 -5 0 -6 -15 -4 -32 3 -19 1 -29 -4 -25 -5 5 -9 18 -9 30 -1 13 -6 21 -14
19 -7 -1 -10 2 -6 8 3 6 10 8 15 5 4 -3 11 6 14 20 4 14 11 25 17 25 6 0 25
11 43 25 18 14 38 25 44 25 6 0 13 8 16 18 4 11 19 25 34 32 15 7 34 16 42 21
28 15 42 11 31 -10z m523 -150 c31 -44 72 -108 89 -142 18 -34 42 -81 54 -103
28 -53 45 -129 35 -157 -7 -19 -10 -20 -15 -6 -10 27 -38 20 -68 -15 -30 -36
-34 -36 -44 2 -5 20 0 33 20 54 15 16 24 35 21 43 -4 11 -2 13 9 9 17 -6 21 9
5 19 -7 4 -7 12 0 25 5 10 10 29 9 42 l0 23 -16 -22 -15 -23 -27 29 c-18 19
-31 49 -39 92 -7 35 -28 97 -47 137 -19 39 -33 72 -31 72 1 0 29 -36 60 -79z
m-413 -29 c-8 -3 -4 -10 10 -20 l22 -15 -44 -39 c-56 -49 -159 -122 -159 -112
0 4 -6 -1 -14 -12 -8 -10 -18 -16 -22 -11 -4 4 -2 7 4 7 7 0 12 7 12 15 0 8 5
15 12 15 6 0 8 3 4 7 -4 5 -14 -1 -22 -11 -8 -11 -14 -16 -14 -10 0 5 -4 4 -8
-3 -5 -9 -11 -6 -21 9 -11 18 -11 20 3 15 10 -4 13 -1 9 9 -5 12 12 19 39 15
4 0 5 6 1 14 -3 10 6 25 23 41 43 37 53 44 59 44 16 0 33 28 23 38 -6 6 -6 12
3 17 8 5 10 4 5 -3 -5 -8 0 -12 13 -12 12 0 21 5 21 11 0 5 4 8 8 5 4 -2 14
-1 22 4 10 6 16 5 19 -2 2 -7 -1 -14 -8 -16z m84 -142 c-3 -5 -1 -10 4 -10 6
0 11 -7 11 -15 0 -8 5 -15 10 -15 6 0 10 5 10 12 0 6 6 4 13 -7 8 -10 19 -15
25 -11 7 4 12 2 12 -4 0 -6 5 -8 12 -4 9 6 9 9 0 12 -16 5 -15 19 2 25 11 4
13 1 9 -11 -6 -15 -5 -15 11 -3 9 8 15 20 12 28 -3 7 -1 13 4 13 43 0 -48
-101 -170 -188 -36 -26 -73 -54 -83 -63 -24 -21 -52 -14 -66 17 -14 32 -14 35
4 28 8 -4 12 -11 8 -17 -4 -6 -1 -7 7 -2 10 6 12 4 7 -9 -4 -11 -3 -15 4 -11
6 4 8 13 5 21 -3 8 -1 14 5 14 6 0 7 5 3 12 -6 9 -9 9 -12 0 -2 -8 -9 -9 -23
-2 -22 12 -21 13 -24 -19 -3 -26 15 -51 36 -51 8 0 8 -4 -1 -15 -11 -13 -15
-13 -21 -3 -7 10 -9 10 -9 1 0 -7 -8 -13 -17 -13 -14 0 -15 -2 -4 -9 9 -6 5
-8 -14 -8 l-27 -1 29 19 28 19 -27 0 c-14 0 -28 -4 -30 -9 -1 -5 -9 -2 -17 6
-11 12 -11 14 0 12 8 -1 29 -1 47 0 30 1 32 2 18 17 -9 8 -14 19 -11 24 3 5 1
11 -5 15 -5 3 -10 -1 -10 -9 0 -9 -3 -15 -7 -15 -20 3 -26 -2 -13 -11 13 -8
13 -10 -1 -10 -9 0 -22 7 -29 15 -11 13 -10 14 3 9 11 -4 16 1 19 18 2 13 7
22 11 20 5 -2 17 6 26 17 10 11 21 18 25 14 3 -3 6 0 6 8 0 8 9 21 20 29 11 8
20 20 20 26 0 7 11 15 25 18 15 4 25 14 25 24 0 15 2 15 10 2 5 -8 10 -12 10
-7 0 16 5 23 28 34 13 7 28 10 33 7 5 -3 9 -2 8 3 -3 15 1 23 12 23 5 0 7 -4
4 -10z m178 -171 c-1 -33 -7 -67 -14 -75 -12 -15 -136 -104 -145 -104 -3 0
-15 -9 -26 -20 -14 -13 -29 -18 -42 -14 -16 4 -17 3 -7 -4 11 -8 10 -12 -7
-21 -26 -14 -45 -14 -37 -1 3 6 3 10 -2 10 -10 -1 -43 -25 -43 -33 0 -3 8 -8
18 -10 15 -4 15 -5 0 -6 -25 -2 -34 20 -14 35 11 7 15 18 10 25 -4 8 -3 10 4
5 7 -4 12 -5 12 -2 0 3 -9 10 -19 16 -14 7 -22 7 -27 -2 -4 -7 -3 -8 4 -4 7 4
12 3 12 -1 0 -5 -9 -14 -20 -21 -13 -8 -20 -8 -20 -2 0 14 46 60 60 60 6 0 20
9 32 20 27 25 45 26 27 3 -13 -16 -12 -17 2 -5 11 8 15 21 11 34 -3 12 -1 19
5 15 5 -3 16 3 23 14 8 10 18 19 23 19 5 0 15 6 22 13 8 6 33 26 56 42 23 17
51 40 63 52 34 36 41 28 39 -38z"/>
<path d="M1946 2078 c5 -8 2 -9 -9 -5 -23 9 -63 -11 -75 -37 -5 -11 -27 -40
-47 -64 -37 -42 -38 -43 -52 -23 -8 12 -20 21 -28 21 -7 0 -27 16 -44 35 -41
47 -70 47 -37 0 13 -20 30 -107 29 -152 0 -13 4 -23 8 -23 5 0 9 8 9 17 0 9 2
14 5 11 11 -11 -7 -58 -22 -58 -11 0 -14 -7 -10 -27 3 -15 1 -38 -4 -51 -8
-21 -10 -22 -25 -8 -17 17 -34 13 -34 -8 0 -7 9 -25 21 -40 11 -14 19 -32 16
-39 -2 -6 -19 9 -37 36 -53 75 -72 51 -24 -31 14 -24 24 -52 21 -61 -5 -22 9
-51 26 -51 7 0 24 11 39 25 23 21 26 29 16 44 -9 14 -8 29 1 62 11 37 19 47
54 64 23 11 48 18 55 17 6 -2 12 2 12 8 0 6 11 26 24 43 14 18 30 55 36 82 13
58 29 111 43 142 5 11 6 27 2 34 -5 7 -4 10 2 6 12 -8 56 27 46 37 -11 11 -25
7 -17 -6z"/>
<path d="M4324 5781 c-21 -9 -84 -76 -84 -90 0 -5 -11 -11 -24 -15 -30 -7
-103 -87 -112 -121 -9 -35 14 -85 44 -96 18 -7 22 -14 16 -27 -30 -71 0 -132
66 -132 45 0 97 24 190 88 76 52 102 80 136 144 38 74 30 142 -20 178 -33 23
-130 67 -162 73 -16 3 -38 2 -50 -2z m129 -53 c34 -17 72 -39 84 -50 46 -43
36 -114 -26 -179 -17 -17 -31 -36 -31 -40 0 -17 -20 -9 -21 9 -1 11 -4 8 -8
-8 -5 -18 -14 -24 -29 -23 -13 2 -22 -3 -23 -12 -1 -8 -2 -20 -3 -25 -2 -17
-60 -50 -67 -39 -3 6 -16 -1 -30 -15 -41 -43 -129 -29 -129 20 0 9 8 14 18 13
40 -4 45 3 13 16 -28 13 -31 17 -21 30 7 8 25 15 41 15 20 0 29 5 29 16 0 13
-7 15 -32 11 -43 -6 -84 15 -92 48 -13 51 57 145 108 145 16 0 24 8 31 32 13
42 68 80 102 72 14 -4 53 -20 86 -36z"/>
<path d="M4092 5284 c-39 -31 -63 -74 -56 -101 4 -14 -2 -22 -21 -31 -14 -7
-31 -12 -38 -12 -17 -1 -63 -37 -56 -45 4 -3 23 4 43 16 30 17 57 22 149 26
127 5 165 14 222 51 83 54 115 98 84 117 -30 19 -135 -33 -112 -56 13 -13 43
-1 43 17 0 14 46 31 56 21 14 -14 -21 -47 -83 -80 -63 -33 -76 -36 -168 -38
-98 -3 -100 -3 -103 20 -4 26 39 77 76 92 13 5 20 13 17 19 -9 15 -17 12 -53
-16z"/>
<path d="M5208 5090 c-93 -23 -161 -57 -207 -102 -41 -40 -101 -127 -101 -147
0 -8 -12 -29 -26 -48 -31 -40 -69 -147 -93 -264 -25 -114 -37 -134 -120 -199
-39 -30 -71 -58 -71 -62 0 -19 27 -4 90 53 69 61 110 126 110 173 0 32 53 213
74 255 10 18 26 36 37 38 12 4 19 14 19 29 0 66 79 168 162 210 68 34 211 67
259 59 48 -8 81 -34 85 -66 1 -13 3 -27 3 -31 1 -5 7 -8 15 -8 8 0 18 -9 21
-20 14 -44 -37 -140 -117 -217 -70 -68 -126 -80 -177 -37 -39 33 -39 56 2 99
38 41 74 52 102 31 19 -15 19 -15 1 -16 -18 0 -45 -26 -46 -42 0 -17 43 -6 61
15 37 45 21 77 -40 77 -61 0 -138 -86 -126 -140 5 -25 17 -36 60 -57 48 -24
56 -25 85 -13 35 15 132 107 194 183 31 39 43 48 64 45 42 -5 42 -50 1 -101
-41 -51 -32 -71 36 -75 l48 -3 143 146 c79 80 165 159 191 175 52 33 106 39
140 15 12 -8 28 -12 36 -9 8 3 17 -2 21 -11 9 -24 -3 -38 -20 -24 -22 18 -94
15 -134 -6 -82 -42 -242 -223 -255 -288 -15 -75 -58 -129 -110 -138 -11 -3
-20 -11 -20 -19 0 -41 103 28 134 89 10 20 21 53 24 74 7 47 58 117 140 194
94 87 166 115 207 78 18 -16 45 -12 53 9 10 26 -5 66 -25 66 -11 0 -29 5 -41
12 -35 18 -94 10 -145 -19 -26 -15 -111 -92 -189 -170 -135 -136 -144 -143
-182 -143 -52 0 -58 13 -27 55 56 72 41 122 -33 112 l-39 -5 5 39 c4 28 1 45
-11 57 -8 10 -20 32 -26 48 -22 63 -104 78 -242 44z"/>
<path d="M694 5028 c-38 -41 -73 -112 -92 -188 l-8 -35 -72 -5 c-40 -3 -77
-11 -84 -18 -11 -12 -1 -13 63 -10 l76 3 -1 -123 -1 -123 -39 -22 c-39 -22
-58 -47 -36 -47 7 0 23 9 37 20 40 31 50 25 63 -37 10 -46 21 -66 63 -110 47
-50 77 -66 77 -42 0 6 -20 29 -45 51 -48 42 -74 83 -85 134 -9 40 -6 44 52 76
75 42 105 45 129 14 11 -14 25 -26 30 -26 15 0 10 27 -6 34 -23 8 -18 34 7 38
12 2 24 9 26 17 4 10 0 12 -14 6 -11 -4 -26 -8 -34 -9 -20 -1 -39 57 -39 122
-1 54 3 58 52 54 9 -1 17 3 17 8 0 6 -13 10 -30 10 -16 0 -30 4 -30 9 0 6 -12
3 -27 -5 -16 -7 -49 -14 -75 -14 -56 0 -58 7 -31 86 20 59 63 125 100 153 18
13 23 20 13 21 -9 0 -34 -19 -56 -42z m58 -298 c1 -38 2 -81 2 -96 1 -21 -7
-29 -59 -50 -96 -41 -92 -41 -100 7 -10 59 -8 125 5 165 11 31 14 33 63 37 29
2 60 4 70 5 15 2 17 -8 19 -68z"/>
<path d="M1152 4548 c-36 -40 -102 -180 -102 -218 0 -23 -11 -54 -30 -83 -16
-26 -30 -53 -30 -60 0 -7 7 1 16 18 22 43 44 65 65 65 9 0 43 14 75 31 87 45
151 32 207 -44 20 -25 20 -27 2 -74 -23 -64 -73 -129 -109 -144 -23 -10 -34
-10 -55 2 -39 22 -40 62 0 101 29 29 32 30 44 15 17 -24 27 -21 23 5 -4 31
-29 33 -61 7 -36 -28 -60 -75 -53 -105 7 -26 52 -54 87 -54 51 0 159 157 159
231 -1 41 -13 58 -64 93 -50 33 -92 33 -168 -1 -59 -26 -61 -26 -74 -8 -8 10
-14 27 -14 37 0 21 55 133 69 142 9 6 43 66 37 66 -1 0 -12 -10 -24 -22z"/>
<path d="M2275 3678 c-49 -19 -70 -20 -162 -2 -18 3 -43 4 -56 0 -33 -8 -137
-115 -144 -147 -3 -15 -23 -44 -44 -65 -42 -41 -48 -54 -24 -54 8 0 15 8 15
18 0 24 51 72 57 54 3 -7 17 -19 32 -26 22 -12 32 -12 56 -1 38 16 77 53 72
68 -6 20 -36 32 -48 20 -17 -17 -1 -37 17 -22 11 9 14 8 14 -4 0 -8 -11 -22
-25 -31 -47 -31 -105 -14 -105 32 0 20 15 42 55 82 62 61 45 57 215 48 58 -3
115 14 124 38 3 8 4 14 3 13 -1 -1 -24 -10 -52 -21z"/>
<path d="M6700 3266 c-119 -42 -245 -115 -228 -131 4 -4 22 5 40 20 44 38 187
103 249 115 94 18 192 -21 197 -79 4 -36 -30 -96 -80 -143 -49 -46 -32 -67 20
-23 85 71 258 108 330 71 44 -23 72 -81 73 -154 3 -140 -123 -282 -432 -485
-109 -72 -325 -187 -351 -187 -14 0 -108 -96 -108 -110 0 -22 39 -8 63 23 13
17 51 47 83 66 526 303 710 455 765 633 32 101 0 196 -77 233 -54 25 -170 16
-248 -19 -32 -15 -61 -25 -63 -22 -3 2 5 17 16 33 28 37 40 83 30 111 -12 33
-102 72 -164 72 -27 0 -79 -11 -115 -24z"/>
<path d="M3485 1242 c-16 -1 -53 -7 -82 -13 -61 -12 -58 -1 -73 -209 -6 -85
-29 -337 -51 -559 -21 -223 -39 -418 -39 -433 l0 -28 125 0 125 0 0 60 c0 57
1 60 25 60 14 0 25 6 25 13 0 6 23 27 50 45 65 42 66 62 3 62 -63 0 -75 9 -71
51 l3 34 104 3 c86 2 107 0 122 -14 25 -23 24 -35 -8 -100 -31 -64 -91 -122
-133 -131 -27 -5 -30 -9 -30 -44 l0 -39 125 0 126 0 -6 63 c-4 36 -15 73 -26
89 -22 32 -24 51 -6 66 11 9 9 51 -9 229 -13 120 -35 335 -49 478 -14 143 -28
274 -31 290 l-5 30 -92 0 c-51 0 -105 -1 -122 -3z m65 -578 c5 -98 12 -205 16
-236 l6 -58 -41 0 -42 0 6 48 c7 58 35 397 35 419 0 9 2 14 5 11 3 -2 9 -85
15 -184z"/>
<path d="M3880 756 c0 -464 1 -488 18 -475 9 8 20 18 24 24 10 14 62 -28 66
-53 2 -15 -4 -25 -22 -34 -24 -10 -26 -16 -26 -75 l0 -63 -30 0 c-28 0 -30 -2
-30 -40 l0 -40 125 0 c112 0 125 2 125 18 0 32 -12 62 -25 62 -17 0 -45 33
-45 53 0 9 14 24 30 34 22 13 30 25 30 45 0 25 -3 28 -34 28 -40 0 -59 19 -54
57 3 25 7 28 45 31 41 3 42 4 48 45 3 23 5 58 3 77 -2 24 1 35 12 37 33 6 44
-15 48 -87 4 -69 5 -72 27 -67 15 2 34 -5 52 -19 l28 -22 -38 -76 c-20 -42
-44 -79 -52 -82 -11 -5 -15 -23 -15 -70 l0 -64 115 0 115 0 0 51 c0 45 -2 50
-17 44 -43 -17 -55 -17 -78 5 -14 13 -25 29 -25 37 0 7 22 27 49 43 66 41 73
60 21 60 -35 0 -40 3 -46 27 -10 38 7 58 55 61 l41 3 0 48 c0 68 -26 135 -66
171 -19 16 -40 30 -47 30 -7 0 6 10 28 23 70 39 80 74 79 272 0 185 -8 225
-61 293 -46 61 -84 70 -291 74 l-182 3 0 -489z m290 234 c18 -18 20 -33 20
-133 0 -120 -10 -152 -44 -146 -18 4 -21 51 -17 272 1 32 14 34 41 7z"/>
<path d="M4753 1243 l-243 -3 0 -239 c0 -131 -3 -286 -7 -345 l-6 -107 119 3
119 3 3 45 c4 50 16 70 43 70 36 0 39 -31 37 -316 -3 -250 -5 -278 -20 -288
-14 -8 -22 -7 -35 7 -15 15 -19 42 -23 165 l-5 147 -117 3 -118 3 0 -28 c0
-14 9 -37 21 -49 19 -21 20 -23 4 -60 -15 -37 -15 -38 15 -69 37 -38 37 -51 4
-86 -24 -25 -25 -30 -14 -63 l12 -36 242 0 242 0 14 53 c10 38 13 129 13 337
-1 343 -8 385 -79 450 -40 37 -48 40 -99 40 -57 0 -93 -15 -127 -55 -17 -19
-18 -15 -15 90 2 106 3 110 25 111 12 1 74 2 137 3 l115 1 0 110 c0 61 -3 109
-7 108 -5 -2 -117 -4 -250 -5z"/>
<path d="M3100 1160 c-36 -9 -92 -27 -125 -38 -33 -11 -88 -24 -122 -28 l-63
-7 0 -373 c0 -248 3 -375 10 -379 6 -4 17 -2 25 5 19 16 66 9 79 -13 8 -13 7
-24 -4 -45 -12 -20 -14 -35 -7 -59 12 -39 -2 -60 -41 -65 -24 -3 -27 -7 -24
-35 2 -24 -2 -34 -17 -43 -15 -8 -21 -21 -21 -45 l0 -35 215 0 216 0 -3 73 -3
72 -63 3 c-60 3 -64 2 -96 -33 -39 -41 -64 -44 -94 -12 -28 30 -28 33 8 64 18
15 30 34 30 49 0 20 -5 24 -30 24 -37 0 -54 28 -40 64 8 23 15 26 60 26 l50 0
0 60 0 60 75 0 75 0 0 130 0 130 -75 0 -75 0 0 125 0 125 80 0 80 0 0 110 c0
126 7 120 -100 90z"/>
<path d="M2630 1055 c-14 -8 -50 -24 -80 -35 -89 -35 -90 -36 -90 -165 0 -94
3 -114 16 -119 9 -3 63 -6 121 -6 l106 0 -5 153 c-7 194 -11 205 -68 172z"/>
<path d="M2346 860 c-19 -19 -39 -30 -58 -30 -15 0 -56 -8 -89 -17 l-61 -17 4
-345 c4 -290 8 -355 22 -398 l17 -53 259 0 260 0 0 70 0 70 -30 0 c-24 0 -31
5 -36 27 -4 14 -2 34 5 44 6 10 11 32 11 49 0 25 4 30 25 30 l25 0 0 160 0
160 -140 0 -140 0 0 -104 c0 -101 1 -105 23 -108 21 -3 22 -7 25 -120 3 -129
-5 -176 -32 -192 -13 -9 -20 -7 -32 8 -12 17 -14 86 -14 408 0 213 -3 388 -7
388 -5 0 -21 -14 -37 -30z"/>
<path d="M2743 313 c-7 -2 -13 -13 -13 -24 0 -14 -7 -19 -25 -19 -19 0 -25 -5
-25 -21 0 -19 4 -21 30 -15 21 4 30 2 30 -8 0 -8 -16 -16 -40 -20 -27 -4 -40
-11 -40 -22 0 -12 9 -15 43 -12 41 3 42 2 51 -35 13 -53 41 -47 41 8 0 39 1
40 38 43 29 3 37 7 35 20 -3 13 -12 16 -47 13 -33 -2 -42 1 -39 11 3 7 12 14
21 16 15 3 77 57 77 68 0 12 -33 1 -47 -16 -10 -11 -26 -20 -36 -20 -10 0 -21
9 -24 20 -5 21 -9 22 -30 13z"/>
<path d="M2960 285 c0 -10 10 -15 34 -15 19 0 37 -4 40 -8 9 -16 -13 -84 -35
-108 -18 -19 -20 -27 -11 -36 18 -18 43 1 67 50 16 33 24 40 41 36 16 -4 27 4
48 35 15 22 25 45 21 50 -4 7 -46 11 -106 11 -81 0 -99 -3 -99 -15z"/>
<path d="M4350 286 c0 -11 14 -16 47 -18 25 -2 48 -8 50 -15 5 -15 -53 -81
-90 -99 -27 -15 -28 -17 -14 -32 15 -14 20 -13 56 16 22 18 44 32 49 32 5 0
19 -11 32 -25 27 -28 45 -32 53 -10 4 9 -8 26 -29 43 l-36 30 21 40 c11 22 17
42 14 46 -4 3 -39 6 -80 6 -57 0 -73 -3 -73 -14z"/>
</g>
</svg>
