<?xml version="1.0" encoding="UTF-8"?>
<svg xmlns="http://www.w3.org/2000/svg" xmlns:xlink="http://www.w3.org/1999/xlink" width="50px" height="50px" viewBox="0 0 50 50" version="1.1">
<g id="surface1">
<path style=" stroke:none;fill-rule:nonzero;fill:rgb(0%,0%,0%);fill-opacity:1;" d="M 39.582031 8.332031 L 37.292969 8.332031 C 36.296875 3.488281 32.03125 0.0078125 27.082031 0 L 22.917969 0 C 17.96875 0.0078125 13.703125 3.488281 12.707031 8.332031 L 10.417969 8.332031 C 4.667969 8.339844 0.0078125 13 0 18.75 L 0 39.582031 C 0.0078125 45.332031 4.667969 49.992188 10.417969 50 L 39.582031 50 C 45.332031 49.992188 49.992188 45.332031 50 39.582031 L 50 18.75 C 49.992188 13 45.332031 8.339844 39.582031 8.332031 Z M 22.917969 4.167969 L 27.082031 4.167969 C 29.722656 4.175781 32.070312 5.84375 32.949219 8.332031 L 17.050781 8.332031 C 17.929688 5.84375 20.277344 4.175781 22.917969 4.167969 Z M 10.417969 12.5 L 39.582031 12.5 C 43.035156 12.5 45.832031 15.296875 45.832031 18.75 L 45.832031 25 L 4.167969 25 L 4.167969 18.75 C 4.167969 15.296875 6.964844 12.5 10.417969 12.5 Z M 39.582031 45.832031 L 10.417969 45.832031 C 6.964844 45.832031 4.167969 43.035156 4.167969 39.582031 L 4.167969 29.167969 L 22.917969 29.167969 L 22.917969 31.25 C 22.917969 32.402344 23.847656 33.332031 25 33.332031 C 26.152344 33.332031 27.082031 32.402344 27.082031 31.25 L 27.082031 29.167969 L 45.832031 29.167969 L 45.832031 39.582031 C 45.832031 43.035156 43.035156 45.832031 39.582031 45.832031 Z M 39.582031 45.832031 "/>
</g>
</svg>
