<?xml version="1.0" encoding="UTF-8"?>
<svg xmlns="http://www.w3.org/2000/svg" xmlns:xlink="http://www.w3.org/1999/xlink" width="50px" height="50px" viewBox="0 0 50 50" version="1.1">
<g id="surface1">
<path style=" stroke:none;fill-rule:nonzero;fill:rgb(100%,100%,100%);fill-opacity:1;" d="M 43.75 12.5 L 31.25 12.5 L 31.25 0 Z M 31.25 15.625 L 43.75 15.625 L 43.75 45.3125 C 43.75 47.902344 41.652344 50 39.0625 50 L 10.9375 50 C 8.347656 50 6.25 47.898438 6.25 45.3125 L 6.25 4.6875 C 6.25 2.097656 8.347656 0 10.9375 0 L 28.125 0 L 28.125 12.5 C 28.125 14.226562 29.523438 15.625 31.25 15.625 Z M 12.5 8.59375 C 12.5 9.023438 12.855469 9.375 13.28125 9.375 L 21.09375 9.375 C 21.523438 9.375 21.875 9.023438 21.875 8.59375 L 21.875 7.03125 C 21.875 6.605469 21.523438 6.25 21.09375 6.25 L 13.28125 6.25 C 12.855469 6.25 12.5 6.605469 12.5 7.03125 Z M 13.28125 15.625 L 21.09375 15.625 C 21.523438 15.625 21.875 15.273438 21.875 14.84375 L 21.875 13.28125 C 21.875 12.851562 21.523438 12.5 21.09375 12.5 L 13.28125 12.5 C 12.855469 12.5 12.5 12.851562 12.5 13.28125 L 12.5 14.84375 C 12.5 15.273438 12.855469 15.625 13.28125 15.625 Z M 25.539062 30.9375 L 24.914062 30.78125 C 22.6875 30.097656 22.734375 29.699219 22.8125 29.34375 C 22.945312 28.582031 24.433594 28.398438 25.769531 28.601562 C 26.316406 28.683594 26.914062 28.875 27.484375 29.074219 C 28.5 29.425781 29.617188 28.886719 29.972656 27.867188 C 30.324219 26.847656 29.785156 25.734375 28.765625 25.382812 C 28.0625 25.140625 27.488281 24.984375 26.953125 24.867188 L 26.953125 24.21875 C 26.953125 23.140625 26.082031 22.265625 25 22.265625 C 23.921875 22.265625 23.046875 23.140625 23.046875 24.21875 L 23.046875 24.804688 C 20.859375 25.273438 19.316406 26.640625 18.964844 28.679688 C 18.242188 32.867188 22.207031 34.027344 23.898438 34.523438 L 24.464844 34.691406 C 27.324219 35.507812 27.277344 35.78125 27.191406 36.28125 C 27.058594 37.042969 25.574219 37.230469 24.234375 37.023438 C 23.554688 36.925781 22.6875 36.613281 21.921875 36.339844 L 21.484375 36.179688 C 20.46875 35.828125 19.355469 36.355469 18.992188 37.371094 C 18.636719 38.390625 19.167969 39.503906 20.183594 39.867188 L 20.601562 40.011719 C 21.359375 40.285156 22.199219 40.558594 23.046875 40.746094 L 23.046875 41.40625 C 23.046875 42.484375 23.921875 43.359375 25 43.359375 C 26.082031 43.359375 26.953125 42.484375 26.953125 41.40625 L 26.953125 40.796875 C 29.136719 40.328125 30.6875 38.984375 31.039062 36.945312 C 31.765625 32.714844 27.714844 31.554688 25.539062 30.9375 Z M 25.539062 30.9375 "/>
</g>
</svg>
