<?xml version="1.0" encoding="UTF-8"?>
<svg xmlns="http://www.w3.org/2000/svg" xmlns:xlink="http://www.w3.org/1999/xlink" width="25px" height="25px" viewBox="0 0 25 25" version="1.1">
<g id="surface1">
<path style=" stroke:none;fill-rule:nonzero;fill:rgb(0%,0%,0%);fill-opacity:1;" d="M 4.792969 2.707031 C 4.375 3.125 4.167969 6.09375 4.167969 12.605469 C 4.167969 23.332031 3.957031 22.917969 9.582031 22.917969 C 12.394531 22.917969 12.917969 22.761719 12.707031 22.136719 C 12.449219 21.5625 11.5625 21.355469 9.0625 21.355469 L 5.730469 21.355469 L 5.730469 3.644531 L 12.5 3.644531 L 12.5 6.511719 C 12.5 9.792969 13.175781 10.417969 16.667969 10.417969 C 18.019531 10.417969 19.167969 10.730469 19.6875 11.300781 C 20.519531 12.136719 20.574219 12.082031 20.730469 10.675781 C 20.886719 9.480469 20.3125 8.644531 17.394531 5.675781 L 13.855469 2.082031 L 9.636719 2.082031 C 7.03125 2.082031 5.15625 2.34375 4.792969 2.707031 Z M 16.144531 7.03125 L 17.917969 8.855469 L 15.988281 8.855469 C 14.113281 8.855469 14.0625 8.800781 14.0625 7.03125 C 14.0625 6.042969 14.113281 5.207031 14.21875 5.207031 C 14.324219 5.207031 15.15625 6.042969 16.144531 7.03125 Z M 16.144531 7.03125 "/>
<path style=" stroke:none;fill-rule:nonzero;fill:rgb(0%,0%,0%);fill-opacity:1;" d="M 7.292969 12.761719 C 7.292969 13.855469 12.863281 13.800781 14.269531 12.761719 C 15.207031 12.03125 14.949219 11.980469 11.300781 11.980469 C 8.074219 11.980469 7.292969 12.136719 7.292969 12.761719 Z M 7.292969 12.761719 "/>
<path style=" stroke:none;fill-rule:nonzero;fill:rgb(0%,0%,0%);fill-opacity:1;" d="M 15.519531 13.332031 C 13.957031 14.167969 12.5 16.511719 12.5 18.230469 C 12.5 20.988281 15.46875 23.957031 18.230469 23.957031 C 20.988281 23.957031 23.957031 20.988281 23.957031 18.230469 C 23.957031 16.457031 22.5 14.167969 20.832031 13.28125 C 18.957031 12.292969 17.34375 12.292969 15.519531 13.332031 Z M 19.269531 14.949219 C 20.730469 16.25 20.574219 16.667969 18.75 16.300781 C 17.550781 16.09375 17.1875 16.199219 17.1875 16.824219 C 17.1875 17.34375 17.761719 17.707031 18.644531 17.8125 C 20.46875 18.019531 20.886719 20 19.324219 21.40625 C 18.332031 22.34375 18.230469 22.34375 17.1875 21.511719 C 15.730469 20.207031 15.886719 19.792969 17.707031 20.105469 C 18.90625 20.363281 19.269531 20.261719 19.269531 19.636719 C 19.269531 19.21875 18.59375 18.75 17.707031 18.542969 C 15.886719 18.230469 15.625 16.71875 17.082031 15.15625 C 18.230469 13.90625 18.019531 13.90625 19.269531 14.949219 Z M 19.269531 14.949219 "/>
<path style=" stroke:none;fill-rule:nonzero;fill:rgb(0%,0%,0%);fill-opacity:1;" d="M 7.292969 15.886719 C 7.292969 16.40625 7.8125 16.667969 8.855469 16.667969 C 9.894531 16.667969 10.417969 16.40625 10.417969 15.886719 C 10.417969 15.363281 9.894531 15.105469 8.855469 15.105469 C 7.8125 15.105469 7.292969 15.363281 7.292969 15.886719 Z M 7.292969 15.886719 "/>
<path style=" stroke:none;fill-rule:nonzero;fill:rgb(0%,0%,0%);fill-opacity:1;" d="M 7.292969 19.011719 C 7.292969 19.53125 7.8125 19.792969 8.855469 19.792969 C 9.894531 19.792969 10.417969 19.53125 10.417969 19.011719 C 10.417969 18.488281 9.894531 18.230469 8.855469 18.230469 C 7.8125 18.230469 7.292969 18.488281 7.292969 19.011719 Z M 7.292969 19.011719 "/>
</g>
</svg>
