<?xml version="1.0" encoding="UTF-8"?>
<svg xmlns="http://www.w3.org/2000/svg" xmlns:xlink="http://www.w3.org/1999/xlink" width="50px" height="50px" viewBox="0 0 50 50" version="1.1">
<g id="surface1">
<path style=" stroke:none;fill-rule:nonzero;fill:rgb(100%,100%,100%);fill-opacity:1;" d="M 12.5 4.167969 C 12.5 6.199219 12.449219 6.25 10.675781 6.25 C 9.375 6.25 8.386719 6.667969 7.550781 7.550781 L 6.25 8.800781 L 6.25 41.199219 L 7.550781 42.449219 C 8.75 43.699219 9.0625 43.75 15.988281 43.75 L 23.125 43.75 L 21.09375 41.667969 L 19.0625 39.582031 L 10.417969 39.582031 L 10.417969 16.667969 L 39.582031 16.667969 L 39.582031 34.0625 L 41.667969 32.03125 L 43.75 30 L 43.75 19.425781 C 43.75 8.855469 43.75 8.800781 42.449219 7.550781 C 41.613281 6.667969 40.625 6.25 39.324219 6.25 C 37.550781 6.25 37.5 6.199219 37.5 4.167969 L 37.5 2.082031 L 33.332031 2.082031 L 33.332031 6.25 L 16.667969 6.25 L 16.667969 2.082031 L 12.5 2.082031 Z M 12.5 4.167969 "/>
<path style=" stroke:none;fill-rule:nonzero;fill:rgb(100%,100%,100%);fill-opacity:1;" d="M 24.0625 23.699219 C 23.074219 25.78125 22.761719 26.042969 21.144531 26.042969 C 17.863281 26.042969 17.605469 26.457031 19.636719 28.28125 C 21.355469 29.792969 21.457031 30 21.144531 32.394531 C 20.9375 33.75 20.9375 34.894531 21.09375 34.894531 C 21.25 34.894531 22.292969 34.375 23.4375 33.75 L 25.417969 32.550781 L 27.605469 33.800781 C 28.800781 34.480469 29.84375 34.894531 29.949219 34.792969 C 30.050781 34.6875 29.894531 33.59375 29.582031 32.292969 C 29.011719 30.050781 29.011719 30 30.9375 28.386719 C 31.980469 27.5 32.707031 26.613281 32.5 26.40625 C 32.292969 26.199219 31.144531 26.042969 29.949219 26.042969 C 27.917969 26.042969 27.707031 25.886719 26.824219 23.957031 C 26.300781 22.761719 25.730469 21.71875 25.519531 21.613281 C 25.3125 21.511719 24.6875 22.449219 24.0625 23.699219 Z M 41.042969 38.386719 L 35.417969 44.011719 L 28.125 36.71875 L 26.71875 38.175781 L 25.261719 39.582031 L 30.46875 44.792969 L 35.675781 50 L 42.8125 42.863281 L 50 35.730469 L 48.59375 34.269531 C 47.8125 33.488281 47.082031 32.8125 46.925781 32.8125 C 46.71875 32.8125 44.113281 35.3125 41.042969 38.386719 Z M 41.042969 38.386719 "/>
</g>
</svg>
