<?xml version="1.0" encoding="UTF-8"?>
<svg xmlns="http://www.w3.org/2000/svg" xmlns:xlink="http://www.w3.org/1999/xlink" width="50px" height="50px" viewBox="0 0 50 50" version="1.1">
<g id="surface1">
<path style=" stroke:none;fill-rule:nonzero;fill:rgb(100%,100%,100%);fill-opacity:1;" d="M 25 50 C 38.808594 50 50 38.808594 50 25 C 50 11.191406 38.808594 0 25 0 C 11.191406 0 0 11.191406 0 25 C 0.015625 38.800781 11.199219 49.984375 25 50 Z M 22.917969 12.5 C 22.917969 11.347656 23.847656 10.417969 25 10.417969 C 26.152344 10.417969 27.082031 11.347656 27.082031 12.5 L 27.082031 29.167969 C 27.082031 30.316406 26.152344 31.25 25 31.25 C 23.847656 31.25 22.917969 30.316406 22.917969 29.167969 Z M 25 37.5 C 26.152344 37.5 27.082031 38.433594 27.082031 39.582031 C 27.082031 40.734375 26.152344 41.667969 25 41.667969 C 23.847656 41.667969 22.917969 40.734375 22.917969 39.582031 C 22.917969 38.433594 23.847656 37.5 25 37.5 Z M 25 37.5 "/>
</g>
</svg>
