<?xml version="1.0" encoding="UTF-8"?>
<svg xmlns="http://www.w3.org/2000/svg" xmlns:xlink="http://www.w3.org/1999/xlink" width="25px" height="25px" viewBox="0 0 25 25" version="1.1">
<g id="surface1">
<path style=" stroke:none;fill-rule:nonzero;fill:rgb(89.803922%,0%,0%);fill-opacity:1;" d="M 3.125 6.25 C 3.125 2.796875 5.921875 0 9.375 0 C 12.828125 0 15.625 2.796875 15.625 6.25 C 15.625 9.703125 12.828125 12.5 9.375 12.5 C 5.921875 12.5 3.125 9.703125 3.125 6.25 Z M 13.585938 14.582031 L 5.164062 14.582031 C 2.3125 14.585938 0.00390625 16.898438 0 19.746094 L 0 25 L 18.75 25 L 18.75 19.746094 C 18.746094 16.898438 16.4375 14.585938 13.585938 14.582031 Z M 16.667969 10.417969 L 16.667969 12.5 L 25 12.5 L 25 10.417969 Z M 16.667969 10.417969 "/>
</g>
</svg>
