<?xml version="1.0" encoding="UTF-8"?>
<svg xmlns="http://www.w3.org/2000/svg" xmlns:xlink="http://www.w3.org/1999/xlink" width="50px" height="50px" viewBox="0 0 50 50" version="1.1">
<g id="surface1">
<path style=" stroke:none;fill-rule:nonzero;fill:rgb(100%,100%,100%);fill-opacity:1;" d="M 39.582031 8.332031 L 37.292969 8.332031 C 36.296875 3.488281 32.03125 0.0078125 27.082031 0 L 22.917969 0 C 17.96875 0.0078125 13.703125 3.488281 12.707031 8.332031 L 10.417969 8.332031 C 4.667969 8.339844 0.0078125 13 0 18.75 L 0 25 L 50 25 L 50 18.75 C 49.992188 13 45.332031 8.339844 39.582031 8.332031 Z M 17.050781 8.332031 C 17.929688 5.84375 20.277344 4.175781 22.917969 4.167969 L 27.082031 4.167969 C 29.722656 4.175781 32.070312 5.84375 32.949219 8.332031 Z M 17.050781 8.332031 "/>
<path style=" stroke:none;fill-rule:nonzero;fill:rgb(100%,100%,100%);fill-opacity:1;" d="M 27.082031 31.25 C 27.082031 32.402344 26.152344 33.332031 25 33.332031 C 23.847656 33.332031 22.917969 32.402344 22.917969 31.25 L 22.917969 29.167969 L 0 29.167969 L 0 39.582031 C 0.0078125 45.332031 4.667969 49.992188 10.417969 50 L 39.582031 50 C 45.332031 49.992188 49.992188 45.332031 50 39.582031 L 50 29.167969 L 27.082031 29.167969 Z M 27.082031 31.25 "/>
</g>
</svg>
