<?xml version="1.0" standalone="no"?>
<!DOCTYPE svg PUBLIC "-//W3C//DTD SVG 20010904//EN"
 "http://www.w3.org/TR/2001/REC-SVG-20010904/DTD/svg10.dtd">
<svg version="1.0" xmlns="http://www.w3.org/2000/svg"
 width="50.000000pt" height="50.000000pt" viewBox="0 0 50.000000 50.000000"
 preserveAspectRatio="xMidYMid meet">
<metadata>
Created by potrace 1.10, written by Peter Selinger 2001-2011
</metadata>
<g transform="translate(0.000000,50.000000) scale(0.100000,-0.100000)"
fill="#000000" stroke="none">
<path d="M53 492 c-12 -2 -27 -9 -33 -17 -17 -20 -15 -434 2 -451 14 -14 191
-24 196 -11 7 23 -4 27 -76 27 -47 0 -83 5 -90 12 -17 17 -17 379 0 396 18 18
282 17 296 -1 6 -7 12 -53 14 -103 2 -71 6 -89 18 -89 12 0 16 17 18 84 3 95
-9 138 -42 147 -25 6 -268 11 -303 6z"/>
<path d="M155 399 c-20 -24 -29 -29 -38 -20 -15 15 -37 14 -37 -2 0 -18 32
-47 52 -47 20 0 82 76 73 90 -10 17 -22 12 -50 -21z"/>
<path d="M224 359 c-11 -18 12 -31 52 -27 27 2 40 8 42 21 3 14 -4 17 -42 17
-25 0 -48 -5 -52 -11z"/>
<path d="M155 279 c-20 -24 -29 -29 -38 -20 -15 15 -37 14 -37 -2 0 -18 32
-47 53 -47 21 0 77 69 70 86 -8 21 -19 17 -48 -17z"/>
<path d="M224 239 c-11 -18 12 -31 52 -27 27 2 40 8 42 21 3 14 -4 17 -42 17
-25 0 -48 -5 -52 -11z"/>
<path d="M353 168 c-60 -61 -104 -142 -86 -159 5 -4 29 -3 54 2 39 8 58 22
113 79 36 37 66 74 66 82 0 27 -31 58 -58 58 -20 0 -44 -16 -89 -62z m104 17
c3 -9 3 -19 -1 -22 -8 -9 -37 18 -30 28 8 14 24 11 31 -6z m-62 -86 c-17 -17
-43 -37 -58 -46 -28 -14 -29 -14 -22 9 4 13 23 40 43 61 32 33 38 35 51 22 13
-13 12 -18 -14 -46z"/>
<path d="M170 183 c-1 -5 -10 -19 -21 -32 -15 -18 -23 -21 -31 -13 -16 16 -38
15 -38 -1 0 -18 32 -47 52 -47 20 0 82 76 73 90 -7 12 -35 14 -35 3z"/>
</g>
</svg>
