<?xml version="1.0" encoding="UTF-8"?>
<svg xmlns="http://www.w3.org/2000/svg" xmlns:xlink="http://www.w3.org/1999/xlink" width="50px" height="50px" viewBox="0 0 50 50" version="1.1">
<g id="surface1">
<path style=" stroke:none;fill-rule:nonzero;fill:rgb(0%,0%,0%);fill-opacity:1;" d="M 9.375 14.582031 C 7.441406 14.589844 5.582031 13.820312 4.21875 12.449219 L 1.042969 9.625 C -0.246094 8.472656 -0.359375 6.496094 0.792969 5.207031 C 1.941406 3.917969 3.917969 3.808594 5.207031 4.957031 L 8.507812 7.902344 C 8.726562 8.160156 9.039062 8.316406 9.375 8.332031 C 9.652344 8.332031 9.914062 8.222656 10.109375 8.027344 L 17.636719 0.863281 C 18.894531 -0.273438 20.828125 -0.203125 21.996094 1.023438 C 23.167969 2.253906 23.144531 4.1875 21.945312 5.386719 L 14.476562 12.5 C 13.121094 13.84375 11.285156 14.59375 9.375 14.582031 Z M 50 7.292969 C 50 5.566406 48.601562 4.167969 46.875 4.167969 L 30.207031 4.167969 C 28.484375 4.167969 27.082031 5.566406 27.082031 7.292969 C 27.082031 9.015625 28.484375 10.417969 30.207031 10.417969 L 46.875 10.417969 C 48.601562 10.417969 50 9.015625 50 7.292969 Z M 14.476562 29.167969 L 21.945312 22.054688 C 23.144531 20.855469 23.167969 18.917969 21.996094 17.691406 C 20.828125 16.464844 18.894531 16.390625 17.636719 17.527344 L 10.109375 24.695312 C 9.703125 25.101562 9.042969 25.101562 8.636719 24.695312 L 5.335938 21.390625 C 4.113281 20.171875 2.136719 20.171875 0.914062 21.390625 C -0.304688 22.613281 -0.304688 24.589844 0.914062 25.8125 L 4.21875 29.113281 C 7.046875 31.941406 11.621094 31.964844 14.476562 29.167969 Z M 50 23.957031 C 50 22.234375 48.601562 20.832031 46.875 20.832031 L 30.207031 20.832031 C 28.484375 20.832031 27.082031 22.234375 27.082031 23.957031 C 27.082031 25.683594 28.484375 27.082031 30.207031 27.082031 L 46.875 27.082031 C 48.601562 27.082031 50 25.683594 50 23.957031 Z M 14.476562 45.832031 L 21.945312 38.722656 C 23.144531 37.519531 23.167969 35.585938 21.996094 34.359375 C 20.828125 33.128906 18.894531 33.058594 17.636719 34.195312 L 10.109375 41.363281 C 9.914062 41.558594 9.652344 41.667969 9.375 41.667969 C 9.039062 41.648438 8.726562 41.496094 8.507812 41.238281 L 5.207031 38.292969 C 3.917969 37.140625 1.941406 37.253906 0.792969 38.542969 C -0.359375 39.832031 -0.246094 41.808594 1.042969 42.957031 L 4.214844 45.78125 C 7.042969 48.609375 11.621094 48.632812 14.476562 45.832031 Z M 50 40.625 C 50 38.898438 48.601562 37.5 46.875 37.5 L 30.207031 37.5 C 28.484375 37.5 27.082031 38.898438 27.082031 40.625 C 27.082031 42.351562 28.484375 43.75 30.207031 43.75 L 46.875 43.75 C 48.601562 43.75 50 42.351562 50 40.625 Z M 50 40.625 "/>
</g>
</svg>
