<?xml version="1.0" standalone="no"?>
<!DOCTYPE svg PUBLIC "-//W3C//DTD SVG 20010904//EN"
 "http://www.w3.org/TR/2001/REC-SVG-20010904/DTD/svg10.dtd">
<svg version="1.0" xmlns="http://www.w3.org/2000/svg"
 width="50.000000pt" height="50.000000pt" viewBox="0 0 50.000000 50.000000"
 preserveAspectRatio="xMidYMid meet">
<metadata>
Created by potrace 1.10, written by Peter Selinger 2001-2011
</metadata>
<g transform="translate(0.000000,50.000000) scale(0.100000,-0.100000)"
fill="#000000" stroke="none">
<path d="M117 423 c-4 -3 -7 -80 -7 -170 l0 -163 140 0 140 0 0 112 0 112 32
33 c31 32 31 34 14 51 -16 16 -18 16 -35 -5 l-18 -22 -29 30 c-27 28 -30 29
-129 29 -56 0 -105 -3 -108 -7z m228 -33 c16 -17 16 -20 2 -20 -8 0 -18 8 -20
18 -4 13 -5 11 -6 -5 -1 -17 5 -23 19 -23 11 0 20 -2 20 -4 0 -2 -29 -33 -65
-69 -39 -39 -65 -74 -65 -86 0 -19 3 -20 23 -10 12 6 45 33 72 60 l50 48 -1
-97 -2 -97 -121 -1 -121 -1 0 153 0 154 98 0 c86 0 101 -3 117 -20z m85 -8 c0
-14 -166 -173 -173 -165 -4 4 30 44 75 90 78 78 98 94 98 75z"/>
<path d="M147 383 c-4 -3 -7 -17 -7 -30 0 -19 5 -23 30 -23 17 0 30 4 30 9 0
5 -10 7 -22 4 -20 -4 -19 -2 5 12 15 8 27 20 27 25 0 16 -17 12 -24 -5 -3 -8
-10 -15 -15 -15 -6 0 -8 7 -5 15 6 15 -7 21 -19 8z"/>
<path d="M153 313 c-7 -2 -13 -16 -13 -29 0 -20 5 -24 31 -24 23 0 30 4 26 15
-4 8 -2 17 3 20 6 4 10 11 10 17 0 6 -8 4 -18 -5 -23 -21 -33 -22 -26 -2 6 16
6 16 -13 8z m34 -39 c-3 -3 -12 -4 -19 -1 -8 3 -5 6 6 6 11 1 17 -2 13 -5z"/>
<path d="M140 215 c0 -21 5 -25 30 -25 25 0 30 4 30 25 0 21 -5 25 -30 25 -25
0 -30 -4 -30 -25z m50 0 c0 -8 -7 -15 -15 -15 -8 0 -15 7 -15 15 0 8 7 15 15
15 8 0 15 -7 15 -15z"/>
<path d="M147 163 c-14 -13 -6 -42 13 -48 27 -9 40 1 40 31 0 18 -5 24 -23 24
-13 0 -27 -3 -30 -7z m43 -18 c0 -8 -7 -15 -15 -15 -8 0 -15 7 -15 15 0 8 7
15 15 15 8 0 15 -7 15 -15z"/>
<path d="M330 121 c0 -5 9 -7 20 -4 11 3 20 7 20 9 0 2 -9 4 -20 4 -11 0 -20
-4 -20 -9z"/>
</g>
</svg>
