<?xml version="1.0" standalone="no"?>
<!DOCTYPE svg PUBLIC "-//W3C//DTD SVG 20010904//EN"
 "http://www.w3.org/TR/2001/REC-SVG-20010904/DTD/svg10.dtd">
<svg version="1.0" xmlns="http://www.w3.org/2000/svg"
 width="50.000000pt" height="50.000000pt" viewBox="0 0 50.000000 50.000000"
 preserveAspectRatio="xMidYMid meet">
<metadata>
Created by potrace 1.10, written by Peter Selinger 2001-2011
</metadata>
<g transform="translate(0.000000,50.000000) scale(0.100000,-0.100000)"
fill="#000000" stroke="none">
<path d="M186 471 c-57 -41 -87 -114 -77 -190 0 -5 9 -12 19 -15 16 -6 52 -58
52 -77 0 -5 -12 -9 -27 -9 -68 0 -120 -68 -111 -145 l3 -30 205 0 205 0 3 42
c5 74 -45 133 -113 133 -14 0 -25 4 -25 9 0 19 36 71 52 77 55 17 16 154 -59
204 -54 36 -76 37 -127 1z m94 -31 c0 -22 5 -40 10 -40 6 0 10 11 10 25 0 32
25 23 46 -16 l15 -29 -111 0 -111 0 15 29 c21 39 46 48 46 16 0 -14 5 -25 10
-25 6 0 10 18 10 40 0 38 2 40 30 40 28 0 30 -2 30 -40z m100 -90 c0 -6 -50
-10 -130 -10 -80 0 -130 4 -130 10 0 6 50 10 130 10 80 0 130 -4 130 -10z
m-237 -51 c-4 -13 -9 -17 -15 -11 -11 11 -3 32 12 32 4 0 6 -9 3 -21z m197 -1
c0 -37 -36 -85 -68 -92 -56 -13 -112 34 -112 94 0 19 6 20 90 20 87 0 90 -1
90 -22z m36 11 c3 -6 2 -15 -4 -21 -6 -6 -11 -2 -15 11 -5 22 7 29 19 10z
m-76 -130 c0 -3 -11 -16 -25 -29 l-25 -23 -25 23 c-14 13 -25 26 -25 29 0 3
23 6 50 6 28 0 50 -3 50 -6z m-160 -54 c0 -19 5 -35 10 -35 6 0 10 16 10 35 0
42 14 44 52 8 22 -21 28 -36 28 -70 l0 -43 -40 0 c-29 0 -40 4 -40 15 0 8 -4
15 -10 15 -5 0 -10 -7 -10 -15 0 -8 -4 -15 -10 -15 -6 0 -10 30 -10 70 0 40 4
70 10 70 6 0 10 -16 10 -35z m200 0 c0 -19 5 -35 10 -35 6 0 10 16 10 35 0 19
5 35 10 35 6 0 10 -30 10 -70 0 -40 -4 -70 -10 -70 -5 0 -10 7 -10 15 0 8 -4
15 -10 15 -5 0 -10 -7 -10 -15 0 -11 -11 -15 -40 -15 l-40 0 0 42 c0 32 6 49
27 70 37 38 53 36 53 -7z m-238 -45 c-3 -53 -6 -60 -24 -60 -18 0 -20 4 -14
41 7 44 22 79 34 79 4 0 5 -27 4 -60z m317 41 c6 -10 13 -37 17 -60 6 -37 4
-41 -14 -41 -18 0 -21 7 -24 60 -3 61 4 74 21 41z"/>
</g>
</svg>
