<?xml version="1.0" standalone="no"?>
<!DOCTYPE svg PUBLIC "-//W3C//DTD SVG 20010904//EN"
 "http://www.w3.org/TR/2001/REC-SVG-20010904/DTD/svg10.dtd">
<svg version="1.0" xmlns="http://www.w3.org/2000/svg"
 width="50.000000pt" height="50.000000pt" viewBox="0 0 50.000000 50.000000"
 preserveAspectRatio="xMidYMid meet">
<metadata>
Created by potrace 1.10, written by Peter Selinger 2001-2011
</metadata>
<g transform="translate(0.000000,50.000000) scale(0.100000,-0.100000)"
fill="#000000" stroke="none">
<path d="M191 411 c-59 -56 -66 -116 -19 -169 l31 -37 -34 -6 c-47 -10 -79
-50 -79 -100 l0 -39 160 0 160 0 0 39 c0 50 -32 90 -79 99 l-33 7 35 43 c33
39 35 44 25 79 -14 50 -36 81 -69 99 -41 21 -63 17 -98 -15z m79 -16 c0 -14 5
-25 10 -25 6 0 10 7 10 17 0 14 2 14 20 -2 11 -10 20 -22 20 -27 0 -4 -36 -8
-80 -8 -44 0 -80 4 -80 8 0 5 9 17 20 27 18 16 20 16 20 2 0 -10 5 -17 10 -17
6 0 10 11 10 25 0 18 5 25 20 25 15 0 20 -7 20 -25z m28 -72 c-27 -2 -69 -2
-95 0 -27 2 -5 3 47 3 52 0 74 -1 48 -3z m22 -37 c0 -27 -41 -66 -70 -66 -19
0 -36 9 -49 26 -36 46 -29 54 49 54 52 0 70 -3 70 -14z m-48 -108 l-22 -22
-22 22 -22 22 44 0 44 0 -22 -22z m-32 -70 c0 -24 -4 -28 -30 -28 -17 0 -30 5
-31 13 0 10 -2 10 -6 0 -11 -28 -23 -11 -23 32 0 45 19 66 21 23 1 -22 2 -20
15 21 8 24 54 -28 54 -61z m81 45 c2 -24 2 -25 6 -5 8 39 23 24 23 -23 0 -25
-4 -45 -10 -45 -5 0 -10 6 -11 13 0 10 -2 10 -6 0 -2 -7 -18 -13 -34 -13 -25
0 -29 4 -29 27 0 25 34 73 52 73 4 0 9 -12 9 -27z m-181 -20 c0 -31 -15 -61
-26 -51 -9 10 5 78 16 78 6 0 10 -12 10 -27z m246 -8 c7 -39 -2 -58 -16 -35
-13 20 -13 70 0 70 5 0 12 -16 16 -35z"/>
</g>
</svg>
