<?xml version="1.0" encoding="UTF-8"?>
<svg xmlns="http://www.w3.org/2000/svg" xmlns:xlink="http://www.w3.org/1999/xlink" width="50px" height="50px" viewBox="0 0 50 50" version="1.1">
<g id="surface1">
<path style=" stroke:none;fill-rule:nonzero;fill:rgb(100%,100%,100%);fill-opacity:1;" d="M 37.5 12.5 C 37.5 19.402344 31.902344 25 25 25 C 18.097656 25 12.5 19.402344 12.5 12.5 C 12.5 5.597656 18.097656 0 25 0 C 31.902344 0 37.5 5.597656 37.5 12.5 Z M 37.5 12.5 "/>
<path style=" stroke:none;fill-rule:nonzero;fill:rgb(100%,100%,100%);fill-opacity:1;" d="M 25 29.167969 C 14.648438 29.179688 6.261719 37.566406 6.25 47.917969 C 6.25 49.066406 7.183594 50 8.332031 50 L 41.667969 50 C 42.816406 50 43.75 49.066406 43.75 47.917969 C 43.738281 37.566406 35.351562 29.179688 25 29.167969 Z M 25 29.167969 "/>
</g>
</svg>
