<?xml version="1.0" encoding="UTF-8"?>
<svg xmlns="http://www.w3.org/2000/svg" xmlns:xlink="http://www.w3.org/1999/xlink" width="50px" height="50px" viewBox="0 0 50 50" version="1.1">
<g id="surface1">
<path style=" stroke:none;fill-rule:nonzero;fill:rgb(100%,100%,100%);fill-opacity:1;" d="M 20.832031 47.917969 C 20.832031 49.066406 19.902344 50 18.75 50 L 2.082031 50 C 0.933594 50 0 49.066406 0 47.917969 C 0 46.765625 0.933594 45.832031 2.082031 45.832031 L 18.75 45.832031 C 19.902344 45.832031 20.832031 46.765625 20.832031 47.917969 Z M 20.832031 47.917969 "/>
<path style=" stroke:none;fill-rule:nonzero;fill:rgb(100%,100%,100%);fill-opacity:1;" d="M 2.082031 41.667969 L 14.582031 41.667969 C 15.734375 41.667969 16.667969 40.734375 16.667969 39.582031 C 16.667969 38.433594 15.734375 37.5 14.582031 37.5 L 2.082031 37.5 C 0.933594 37.5 0 38.433594 0 39.582031 C 0 40.734375 0.933594 41.667969 2.082031 41.667969 Z M 2.082031 41.667969 "/>
<path style=" stroke:none;fill-rule:nonzero;fill:rgb(100%,100%,100%);fill-opacity:1;" d="M 2.082031 33.332031 L 10.417969 33.332031 C 11.566406 33.332031 12.5 32.402344 12.5 31.25 C 12.5 30.097656 11.566406 29.167969 10.417969 29.167969 L 2.082031 29.167969 C 0.933594 29.167969 0 30.097656 0 31.25 C 0 32.402344 0.933594 33.332031 2.082031 33.332031 Z M 2.082031 33.332031 "/>
<path style=" stroke:none;fill-rule:nonzero;fill:rgb(100%,100%,100%);fill-opacity:1;" d="M 25 0 C 11.191406 0 0 11.191406 0 25 C 0 25.128906 0.015625 25.25 0.0195312 25.378906 C 0.679688 25.132812 1.378906 25.007812 2.082031 25 L 10.417969 25 C 12.492188 24.992188 14.4375 26.023438 15.601562 27.742188 C 16.761719 29.464844 16.992188 31.652344 16.207031 33.574219 C 17.933594 34.027344 19.378906 35.203125 20.179688 36.796875 C 20.976562 38.394531 21.046875 40.257812 20.375 41.910156 C 22.058594 42.339844 23.484375 43.460938 24.292969 45 C 25.101562 46.539062 25.222656 48.347656 24.621094 49.980469 C 24.75 49.980469 24.871094 50 25 50 C 38.808594 50 50 38.808594 50 25 C 50 11.191406 38.808594 0 25 0 Z M 32.722656 32.722656 C 31.910156 33.535156 30.589844 33.535156 29.777344 32.722656 L 23.527344 26.472656 C 23.136719 26.082031 22.917969 25.550781 22.917969 25 L 22.917969 14.582031 C 22.917969 13.433594 23.847656 12.5 25 12.5 C 26.152344 12.5 27.082031 13.433594 27.082031 14.582031 L 27.082031 24.136719 L 32.722656 29.777344 C 33.535156 30.589844 33.535156 31.910156 32.722656 32.722656 Z M 32.722656 32.722656 "/>
</g>
</svg>
