<?xml version="1.0" encoding="UTF-8"?>
<svg xmlns="http://www.w3.org/2000/svg" xmlns:xlink="http://www.w3.org/1999/xlink" width="50px" height="50px" viewBox="0 0 50 50" version="1.1">
<g id="surface1">
<path style=" stroke:none;fill-rule:nonzero;fill:rgb(0%,0%,0%);fill-opacity:1;" d="M 25 0 C 18.886719 0.0195312 12.988281 2.269531 8.417969 6.332031 L 5.640625 3.554688 C 5.042969 2.960938 4.148438 2.78125 3.371094 3.105469 C 2.589844 3.425781 2.082031 4.1875 2.082031 5.027344 L 2.082031 14.582031 C 2.082031 15.734375 3.015625 16.667969 4.167969 16.667969 L 13.722656 16.667969 C 14.5625 16.667969 15.324219 16.160156 15.644531 15.378906 C 15.96875 14.601562 15.789062 13.707031 15.195312 13.109375 L 12.828125 10.746094 C 18.464844 5.929688 26.414062 4.886719 33.101562 8.089844 C 39.789062 11.289062 43.964844 18.128906 43.75 25.542969 C 43.472656 35.257812 35.816406 43.152344 26.113281 43.722656 C 16.410156 44.296875 7.875 37.359375 6.457031 27.742188 C 6.257812 26.183594 4.933594 25.011719 3.359375 25 C 2.46875 24.988281 1.613281 25.363281 1.015625 26.027344 C 0.417969 26.6875 0.136719 27.578125 0.238281 28.464844 C 2.035156 41.179688 13.15625 50.472656 25.988281 49.980469 C 38.972656 49.355469 49.355469 38.972656 49.980469 25.988281 C 50.242188 19.191406 47.726562 12.585938 43.015625 7.683594 C 38.304688 2.78125 31.800781 0.0078125 25 0 Z M 25 0 "/>
<path style=" stroke:none;fill-rule:nonzero;fill:rgb(0%,0%,0%);fill-opacity:1;" d="M 23.957031 14.582031 C 22.234375 14.582031 20.832031 15.984375 20.832031 17.707031 L 20.832031 26.652344 C 20.832031 27.757812 21.273438 28.816406 22.054688 29.597656 L 25.789062 33.332031 C 27.015625 34.519531 28.964844 34.5 30.171875 33.296875 C 31.375 32.089844 31.394531 30.140625 30.207031 28.914062 L 27.082031 25.789062 L 27.082031 17.707031 C 27.082031 15.984375 25.683594 14.582031 23.957031 14.582031 Z M 23.957031 14.582031 "/>
</g>
</svg>
