<?xml version="1.0" standalone="no"?>
<!DOCTYPE svg PUBLIC "-//W3C//DTD SVG 20010904//EN"
 "http://www.w3.org/TR/2001/REC-SVG-20010904/DTD/svg10.dtd">
<svg version="1.0" xmlns="http://www.w3.org/2000/svg"
 width="225.000000pt" height="225.000000pt" viewBox="0 0 225.000000 225.000000"
 preserveAspectRatio="xMidYMid meet">
<metadata>
Created by potrace 1.10, written by Peter Selinger 2001-2011
</metadata>
<g transform="translate(0.000000,225.000000) scale(0.100000,-0.100000)"
fill="#000000" stroke="none">
<path d="M990 1990 c-83 -30 -159 -89 -207 -159 -58 -84 -76 -152 -71 -260 6
-130 64 -241 161 -312 l39 -28 -37 -16 c-21 -8 -40 -15 -43 -15 -3 0 -38 -20
-78 -45 -192 -120 -320 -340 -326 -559 -2 -80 13 -106 90 -152 267 -161 1046
-145 1254 26 47 39 57 75 46 173 -16 152 -78 284 -185 398 -53 56 -192 159
-215 159 -3 0 -22 7 -43 15 l-37 16 39 28 c55 40 91 86 127 161 29 60 31 73
31 175 0 105 -2 114 -33 178 -43 87 -114 157 -199 198 -59 29 -80 33 -163 36
-76 3 -106 -1 -150 -17z m290 -41 c90 -39 154 -99 197 -186 26 -53 28 -67 28
-168 0 -105 -2 -114 -33 -178 -24 -48 -51 -82 -97 -123 -55 -49 -63 -60 -54
-76 6 -10 22 -23 37 -29 41 -15 134 -62 157 -79 11 -8 54 -49 95 -90 116 -115
177 -259 182 -426 2 -66 1 -68 -36 -100 -177 -153 -900 -180 -1191 -43 -93 43
-109 65 -107 145 7 241 154 464 374 567 31 15 61 27 66 27 5 0 15 11 22 25 13
25 12 28 -51 85 -86 77 -122 151 -127 264 -6 105 11 173 58 244 46 68 111 118
195 150 80 30 203 26 285 -9z"/>
<path d="M1030 1941 c-95 -31 -167 -90 -215 -176 -86 -153 -58 -316 76 -440
94 -86 232 -114 357 -71 70 24 158 106 197 183 27 53 30 67 30 158 0 92 -2
104 -29 153 -45 80 -88 125 -158 162 -55 30 -73 34 -148 37 -47 1 -96 -1 -110
-6z m248 -56 c205 -112 238 -377 65 -535 -124 -114 -312 -114 -436 0 -189 172
-130 467 112 557 23 8 67 12 121 10 71 -2 94 -8 138 -32z"/>
<path d="M970 1184 c-261 -69 -456 -298 -485 -570 -6 -55 -4 -63 19 -91 32
-38 103 -69 214 -93 359 -78 908 -31 1020 88 33 34 33 37 27 96 -29 275 -223
501 -490 571 -74 19 -231 19 -305 -1z m359 -44 c221 -78 381 -285 406 -526 6
-58 5 -62 -21 -83 -35 -27 -162 -67 -277 -87 -270 -45 -671 -19 -846 56 -80
35 -85 45 -72 138 13 103 42 176 103 268 79 118 208 210 348 249 83 23 275 14
359 -15z"/>
</g>
</svg>
