<?xml version="1.0" standalone="no"?>
<!DOCTYPE svg PUBLIC "-//W3C//DTD SVG 20010904//EN"
 "http://www.w3.org/TR/2001/REC-SVG-20010904/DTD/svg10.dtd">
<svg version="1.0" xmlns="http://www.w3.org/2000/svg"
 width="50.000000pt" height="50.000000pt" viewBox="0 0 50.000000 50.000000"
 preserveAspectRatio="xMidYMid meet">
<metadata>
Created by potrace 1.10, written by Peter Selinger 2001-2011
</metadata>
<g transform="translate(0.000000,50.000000) scale(0.100000,-0.100000)"
fill="#000000" stroke="none">
<path d="M210 490 c-20 -5 -49 -24 -67 -44 -29 -31 -33 -43 -33 -91 0 -47 4
-59 31 -90 21 -23 26 -35 17 -35 -24 0 -94 -55 -117 -93 -29 -48 -43 -124 -24
-131 22 -9 23 -8 23 17 1 33 34 99 66 129 82 76 206 76 288 0 32 -31 65 -96
66 -130 0 -17 5 -23 17 -20 26 5 18 71 -13 126 -26 44 -95 102 -122 102 -11 0
-8 8 11 28 58 61 55 146 -8 201 -20 17 -44 31 -55 31 -10 0 -24 2 -32 4 -7 2
-29 0 -48 -4z m110 -59 c36 -36 46 -73 30 -112 -38 -91 -159 -92 -197 -1 -42
100 91 190 167 113z"/>
</g>
</svg>
