<?xml version="1.0" standalone="no"?>
<!DOCTYPE svg PUBLIC "-//W3C//DTD SVG 20010904//EN"
 "http://www.w3.org/TR/2001/REC-SVG-20010904/DTD/svg10.dtd">
<svg version="1.0" xmlns="http://www.w3.org/2000/svg"
 width="25.000000pt" height="25.000000pt" viewBox="0 0 25.000000 25.000000"
 preserveAspectRatio="xMidYMid meet">
<metadata>
Created by potrace 1.10, written by Peter Selinger 2001-2011
</metadata>
<g transform="translate(0.000000,25.000000) scale(0.100000,-0.100000)"
fill="#000000" stroke="none">
<path d="M81 214 c-25 -32 -25 -34 -7 -59 12 -17 11 -22 -15 -46 -28 -26 -47
-74 -34 -87 11 -11 178 -14 194 -3 20 13 6 59 -29 91 -26 24 -28 29 -15 40 20
17 19 32 -6 64 -26 34 -62 34 -88 0z m83 -16 c14 -23 -3 -52 -33 -56 -42 -6
-67 38 -39 66 17 17 58 11 72 -10z m15 -104 c17 -14 31 -34 31 -45 0 -17 -8
-19 -80 -19 -97 0 -113 16 -62 62 40 35 71 36 111 2z"/>
</g>
</svg>
