<?xml version="1.0" encoding="UTF-8"?>
<svg xmlns="http://www.w3.org/2000/svg" xmlns:xlink="http://www.w3.org/1999/xlink" width="50px" height="50px" viewBox="0 0 50 50" version="1.1">
<g id="surface1">
<path style=" stroke:none;fill-rule:nonzero;fill:rgb(100%,100%,100%);fill-opacity:1;" d="M 25 0 C 13.5 0.0117188 4.179688 9.332031 4.167969 20.832031 C 4.167969 31.835938 21.667969 46.945312 23.652344 48.632812 L 25 49.769531 L 26.347656 48.632812 C 28.332031 46.945312 45.832031 31.835938 45.832031 20.832031 C 45.820312 9.332031 36.5 0.0117188 25 0 Z M 25 31.25 C 19.246094 31.25 14.582031 26.585938 14.582031 20.832031 C 14.582031 15.082031 19.246094 10.417969 25 10.417969 C 30.753906 10.417969 35.417969 15.082031 35.417969 20.832031 C 35.410156 26.582031 30.75 31.242188 25 31.25 Z M 25 31.25 "/>
<path style=" stroke:none;fill-rule:nonzero;fill:rgb(100%,100%,100%);fill-opacity:1;" d="M 31.25 20.832031 C 31.25 24.285156 28.453125 27.082031 25 27.082031 C 21.546875 27.082031 18.75 24.285156 18.75 20.832031 C 18.75 17.382812 21.546875 14.582031 25 14.582031 C 28.453125 14.582031 31.25 17.382812 31.25 20.832031 Z M 31.25 20.832031 "/>
</g>
</svg>
