<?xml version="1.0" standalone="no"?>
<!DOCTYPE svg PUBLIC "-//W3C//DTD SVG 20010904//EN"
 "http://www.w3.org/TR/2001/REC-SVG-20010904/DTD/svg10.dtd">
<svg version="1.0" xmlns="http://www.w3.org/2000/svg"
 width="50.000000pt" height="50.000000pt" viewBox="0 0 50.000000 50.000000"
 preserveAspectRatio="xMidYMid meet">
<metadata>
Created by potrace 1.10, written by Peter Selinger 2001-2011
</metadata>
<g transform="translate(0.000000,50.000000) scale(0.100000,-0.100000)"
fill="#000000" stroke="none">
<path d="M182 484 c-92 -47 -115 -155 -54 -253 17 -29 32 -54 32 -56 0 -2 -22
-11 -49 -20 -97 -32 -107 -86 -24 -127 42 -20 63 -23 163 -23 97 0 122 4 162
22 85 39 74 96 -23 128 -27 9 -49 18 -49 20 0 1 16 29 36 61 31 52 35 65 31
112 -6 85 -61 142 -144 149 -32 2 -59 -2 -81 -13z m135 -34 c18 -10 39 -34 49
-51 27 -53 15 -102 -52 -206 -32 -51 -61 -93 -64 -93 -3 0 -31 42 -64 93 -66
104 -79 153 -52 206 21 40 71 71 116 71 19 0 49 -9 67 -20z m-103 -355 c15
-25 31 -45 36 -45 4 0 21 20 37 45 32 51 46 54 111 25 50 -23 50 -36 1 -65
-50 -29 -248 -29 -298 0 -49 29 -49 42 1 65 66 30 82 27 112 -25z"/>
<path d="M202 387 c-45 -48 -16 -120 48 -120 41 0 70 28 70 70 0 66 -74 97
-118 50z m76 -19 c34 -34 -6 -90 -48 -68 -35 19 -20 80 20 80 9 0 21 -5 28
-12z"/>
</g>
</svg>
