<?xml version="1.0" encoding="UTF-8"?>
<svg xmlns="http://www.w3.org/2000/svg" xmlns:xlink="http://www.w3.org/1999/xlink" width="50px" height="50px" viewBox="0 0 50 50" version="1.1">
<g id="surface1">
<path style=" stroke:none;fill-rule:nonzero;fill:rgb(0%,0%,0%);fill-opacity:1;" d="M 29.167969 14.582031 C 29.167969 16.882812 27.300781 18.75 25 18.75 C 22.699219 18.75 20.832031 16.882812 20.832031 14.582031 C 20.832031 12.28125 22.699219 10.417969 25 10.417969 C 27.300781 10.417969 29.167969 12.28125 29.167969 14.582031 Z M 35.3125 24.910156 L 25 35 L 14.703125 24.925781 C 9 19.238281 8.984375 10 14.675781 4.296875 C 20.367188 -1.40625 29.605469 -1.414062 35.304688 4.277344 C 41.007812 9.972656 41.007812 19.210938 35.3125 24.910156 Z M 33.332031 14.582031 C 33.332031 9.980469 29.601562 6.25 25 6.25 C 20.398438 6.25 16.667969 9.980469 16.667969 14.582031 C 16.667969 19.1875 20.398438 22.917969 25 22.917969 C 29.601562 22.917969 33.332031 19.1875 33.332031 14.582031 Z M 45.554688 22.109375 L 42.566406 21.109375 C 41.636719 23.644531 40.167969 25.949219 38.257812 27.859375 L 25 40.832031 L 11.792969 27.917969 C 9.285156 25.417969 7.535156 22.261719 6.75 18.808594 C 5.011719 18.652344 3.289062 19.230469 2.003906 20.410156 C 0.71875 21.589844 -0.0078125 23.257812 0 25 L 0 45.316406 L 16.632812 50.070312 L 33.339844 45.902344 L 50.007812 49.960938 L 50.007812 28.089844 C 50.003906 25.332031 48.195312 22.902344 45.554688 22.109375 Z M 45.554688 22.109375 "/>
</g>
</svg>
