<?xml version="1.0" standalone="no"?>
<!DOCTYPE svg PUBLIC "-//W3C//DTD SVG 20010904//EN"
 "http://www.w3.org/TR/2001/REC-SVG-20010904/DTD/svg10.dtd">
<svg version="1.0" xmlns="http://www.w3.org/2000/svg"
 width="50.000000pt" height="50.000000pt" viewBox="0 0 50.000000 50.000000"
 preserveAspectRatio="xMidYMid meet">
<metadata>
Created by potrace 1.10, written by Peter Selinger 2001-2011
</metadata>
<g transform="translate(0.000000,50.000000) scale(0.100000,-0.100000)"
fill="#000000" stroke="none">
<path d="M214 421 c-64 -28 -82 -113 -40 -188 l24 -41 -26 -7 c-14 -3 -39 -16
-54 -27 -28 -20 -29 -21 -11 -40 29 -33 77 -48 153 -48 70 0 116 13 155 45 20
16 20 17 -10 40 -16 14 -42 27 -57 30 l-27 6 24 40 c54 85 18 185 -70 194 -22
3 -50 1 -61 -4z m86 -26 c63 -33 65 -84 8 -183 -24 -39 -45 -72 -48 -72 -3 0
-24 33 -47 72 -58 98 -56 149 5 182 35 19 46 19 82 1z m-66 -257 l26 -33 26
33 c29 37 32 37 82 16 l37 -15 -22 -18 c-45 -37 -201 -37 -246 0 l-22 18 35
15 c49 21 55 20 84 -16z"/>
<path d="M243 359 c-40 -15 -42 -82 -2 -94 30 -10 58 4 65 31 12 46 -21 79
-63 63z m44 -35 c3 -8 -2 -23 -11 -32 -15 -15 -17 -15 -32 0 -21 21 -11 48 16
48 11 0 23 -7 27 -16z"/>
</g>
</svg>
